<svg height="172" viewBox="0 0 236 172" width="236" xmlns="http://www.w3.org/2000/svg" xmlns:xlink="http://www.w3.org/1999/xlink"><filter id="a" height="131.4%" width="114.2%" x="-7.1%" y="-15.7%"><feGaussianBlur in="SourceGraphic" stdDeviation="5"/></filter><linearGradient id="b"><stop offset="0" stop-color="#fff"/><stop offset="1" stop-color="#fff" stop-opacity="0"/></linearGradient><radialGradient id="c" cx="102.021%" cy="-1.795%" gradientTransform="matrix(1 0 0 .34976 0 -.012)" r="280.944%" xlink:href="#b"/><radialGradient id="d" cx="102.021%" cy="-1.75%" gradientTransform="matrix(1 0 0 .28522 0 -.013)" r="344.378%" xlink:href="#b"/><radialGradient id="e" cx="-2.07%" cy="-1.687%" gradientTransform="matrix(1 0 0 .46672 0 -.009)" r="210.539%" xlink:href="#b"/><radialGradient id="f" cx="-1.917%" cy="-1.665%" gradientTransform="matrix(1 0 0 .4676 0 -.009)" r="209.808%" xlink:href="#b"/><g fill="none"><g fill="#000" opacity=".2"><path d="m145.88 35.413c.141-.094.282-.094.47 0 5.865-3.373 15.39-3.373 21.256 0 .14-.094.329-.094.422 0-1.126-.656-2.017-.984-2.017-.984-.61-.234-1.455-.515-2.112-.75-.328-.093-.798-.234-1.126-.28-1.736-.422-3.848-.656-5.819-.656-2.017 0-4.082.234-5.865.655-.329.094-.798.188-1.126.281-.61.188-1.455.516-2.065.75-.328.14-.75.328-1.08.468-.28.14-.656.375-.938.516z"/><path d="m168.028 35.413 4.974 2.857 4.974 2.857 4.974 2.858 4.974 2.857 4.974 2.857 4.974 2.858 4.974 2.857 4.974 2.858 4.974 2.857 4.974 2.857a.352.352 0 0 0 -.423 0l-49.974-28.808c.376.14.517.14.657.235zm-150.203 74.291 12.81-7.448 12.81-7.448 12.81-7.447 12.81-7.448 12.811-7.448 12.81-7.354 12.81-7.448 12.81-7.448 12.81-7.448 12.811-7.448c.141-.094.282-.094.47 0l-128.104 74.385c-.188-.093-.329-.093-.47 0z"/><path d="m217.58 64.22c5.866 3.373 5.913 8.9.047 12.273-42.7 24.78-85.355 49.512-128.056 74.292-5.865 3.372-15.39 3.372-21.256 0l-49.975-28.808c-5.866-3.373-5.913-8.9-.094-12.273 42.7-24.78 85.355-49.512 128.056-74.291 5.865-3.373 15.39-3.373 21.256 0 16.705 9.602 33.363 19.205 50.021 28.808z"/><path d="m211.346 39.535c-.094-.703-.235-1.171-.282-1.406-.094-.327-.235-.749-.563-1.452-.188-.421-.375-.702-.657-1.17-.188-.282-.47-.656-.704-.938-.281-.327-.704-.796-1.08-1.077-.374-.375-.984-.75-1.407-1.077-.234-.188-.563-.328-.798-.516 5.444 3.373 5.49 8.9-.375 12.273l-128.009 74.292c-5.865 3.372-15.39 3.372-21.256 0l-49.975-28.761c-5.865-3.373-5.912-8.9-.093-12.273a5.549 5.549 0 0 0 -1.924.984c-.234.14-.47.374-.657.562-.281.28-.704.656-.938.937-.47.562-.751.983-.939 1.218-.657 1.029-.891 1.873-1.079 2.529-.094.422-.188.89-.282 1.405-.046.469-.046.797-.093 1.265v.703c0 .468.047.936.187 1.405-.094-.469-.187-.937-.187-1.405 0 1.264.187 2.201.375 2.857a9.075 9.075 0 0 0 1.08 2.389c.187.328.562.796.75 1.03.329.375.798.844 1.126 1.172.376.374.939.749 1.408 1.077.235.14.563.328.798.468l49.974 28.808a14.23 14.23 0 0 0 2.017.984c.61.234 1.455.515 2.112.75.328.093.798.234 1.126.28 1.736.422 3.848.656 5.819.656 2.017 0 4.082-.234 5.865-.656.329-.093.798-.187 1.126-.28.61-.188 1.455-.516 2.065-.75.329-.14.75-.328 1.08-.469.28-.14.656-.327.938-.515.14-.093.281-.28.375-.562-.094.281-.234.469-.375.562l51.24-29.698 76.815-44.593c.423-.281 1.033-.61 1.408-.937.422-.328.892-.75 1.267-1.124.235-.235.563-.61.75-.844.235-.28.517-.702.705-1.03.328-.562.75-1.5.938-2.155.094-.421.188-.796.282-1.405.094-.562.094-.937.094-1.405v-.703c.046-.515.046-.89-.047-1.405z" filter="url(#a)" transform="translate(12.1 32.321)"/></g><path d="m145.88 30.635c.141-.094.282-.094.47 0 5.865-3.373 15.39-3.373 21.256 0 .14-.094.329-.094.422 0a14.23 14.23 0 0 0 -2.017-.984c-.61-.234-1.455-.515-2.112-.75-.328-.093-.798-.234-1.126-.28-1.736-.422-3.848-.656-5.819-.656-2.017 0-4.082.234-5.865.656-.329.093-.798.187-1.126.28-.61.188-1.455.516-2.065.75-.328.14-.75.328-1.08.468-.28.141-.656.375-.938.516z" fill="#646764"/><path d="m168.028 30.635 4.974 2.857 4.974 2.857 4.974 2.858 4.974 2.857 4.974 2.858 4.974 2.857 4.974 2.857 4.974 2.858 4.974 2.857 4.974 2.857a.352.352 0 0 0 -.423 0l-49.974-28.807c.376.14.517.14.657.234zm-150.203 74.291 12.81-7.448 12.81-7.447 12.81-7.448 12.81-7.448 12.811-7.448 12.81-7.448 12.81-7.448 12.81-7.448 12.81-7.448 12.811-7.448c.141-.093.282-.093.47 0l-128.103 74.48c-.188-.094-.329-.094-.47 0z" fill="#646764"/><path d="m217.58 59.443c5.866 3.372 5.913 8.9.047 12.272-42.7 24.78-85.355 49.512-128.056 74.292-5.865 3.372-15.39 3.372-21.256 0l-49.975-28.808c-5.866-3.373-5.913-8.9-.094-12.273 42.7-24.78 85.355-49.512 128.056-74.291 5.865-3.373 15.39-3.373 21.256 0 16.705 9.602 33.363 19.205 50.021 28.808z" fill="#656d78"/><path d="m223.446 67.078c-.094-.703-.235-1.171-.282-1.405-.094-.328-.235-.75-.563-1.452-.188-.422-.375-.703-.657-1.172-.188-.28-.47-.655-.704-.936-.281-.328-.704-.797-1.08-1.078-.374-.374-.984-.75-1.407-1.077-.234-.187-.563-.328-.798-.515a.352.352 0 0 0 -.422 0c5.866 3.372 5.913 8.9.047 12.272l-128.009 74.292c-5.865 3.372-15.39 3.372-21.256 0l-49.975-28.808c-5.866-3.373-5.913-8.9-.094-12.273a.427.427 0 0 0 -.47 0c-.468.281-1.032.656-1.454.984-.234.14-.47.375-.657.562-.281.281-.704.656-.938.937-.47.562-.751.984-.939 1.218-.657 1.03-.891 1.874-1.079 2.53-.094.42-.188.89-.282 1.405-.046.468-.046.796-.093 1.264v.703c0 .468.047.937.187 1.405-.094-.468-.187-.937-.187-1.405 0 1.265.187 2.202.375 2.857a9.075 9.075 0 0 0 1.08 2.39c.187.327.562.796.75 1.03.329.375.798.843 1.126 1.17.376.376.939.75 1.408 1.078.235.14.563.328.798.469l49.974 28.808a14.23 14.23 0 0 0 2.017.983c.61.234 1.455.515 2.112.75.328.093.798.234 1.126.28 1.736.422 3.848.657 5.819.657 2.017 0 4.082-.235 5.865-.656.329-.094.798-.188 1.126-.281.61-.188 1.455-.516 2.065-.75.329-.14.75-.328 1.08-.468a9.31 9.31 0 0 0 .938-.515c.14-.094.281-.282.375-.563-.094.281-.234.469-.375.563l51.24-29.698 76.815-44.594c.423-.281 1.033-.609 1.408-.937.422-.328.892-.75 1.267-1.124.235-.234.563-.61.75-.843.235-.281.517-.703.705-1.03.328-.563.75-1.5.938-2.156.094-.421.188-.796.282-1.405.094-.562.094-.937.094-1.405v-.703a4.45 4.45 0 0 0 -.047-1.358z" fill="#434a54"/><path d="m187.408 51.948c.61.328.61.89 0 1.265-.61.328-1.549.328-2.159 0l-10.886-6.277c-.61-.328-.61-.89 0-1.265.61-.328 1.549-.328 2.159 0zm-17.174-9.884c.61.328.61.89 0 1.265-.61.328-1.549.328-2.159 0s-.61-.89 0-1.265c.563-.375 1.549-.375 2.159 0z" fill="#263238"/><path d="m52.455 121.134c3.003 1.733 3.003 4.543.047 6.277-3.004 1.733-7.837 1.733-10.84 0-3.003-1.734-3.003-4.544-.047-6.277s7.836-1.733 10.84 0z" fill="#646764" opacity=".4"/><path d="m42.366 121.93c3.003-1.733 7.836-1.733 10.84 0 .28.187.562.375.797.562a5.089 5.089 0 0 0 -1.595-1.311c-3.003-1.734-7.884-1.734-10.84 0-2.674 1.545-2.956 3.981-.75 5.714-1.267-1.64-.798-3.653 1.548-4.965z" fill="#263238"/><path d="m203.878 73.167c.892.516.892 1.359 0 1.874l-9.29 5.387-8.635 5.012-64.896 37.661-8.915 5.153-12.388 7.167-6.194 3.606c-.892.516-2.346.516-3.238 0l-62.08-35.74c-.892-.515-.892-1.359 0-1.874l6.194-3.607 12.388-7.167 8.915-5.152 64.896-37.661 8.634-5.012 9.291-5.387c.892-.515 2.346-.515 3.238 0z" fill="#fff"/><path d="m182.528 81.13-5.303-3.044 5.303-3.045 5.255 3.045zm-83.9 54.29-5.256-3.044 5.256-3.045 5.255 3.045zm5.255-8.01-5.255-3.044 5.255-2.998 5.256 2.998zm-24.682-3.934-5.255-2.998 5.255-3.045 5.256 3.045zm101.215-36.959-3.707-2.154 3.707-2.108 3.66 2.108zm-2.393 4.591-3.707-2.108 3.707-2.155 3.707 2.155zm-12.247 3.982-3.707-2.108 3.707-2.155 3.66 2.155zm-7.273 7.822-3.707-2.108 3.707-2.155 3.707 2.155zm6.569-15.458-3.707-2.108 3.707-2.154 3.66 2.154zm-74.28 38.176-3.707-2.154 3.707-2.108 3.707 2.108zm-45.282-21.547-3.707-2.155 3.707-2.107 3.707 2.107zm11.074 8.291-3.707-2.155 3.707-2.107 3.66 2.107zm133.452-30.26-2.393-1.358 2.393-1.405 2.44 1.405zm-4.786 1.265-1.549-.937 1.548-.89 1.596.89zm-14.64 6.511-1.596-.89 1.595-.937 1.596.937zm-9.057 7.916-1.596-.89 1.596-.937 1.595.937zm5.49.234-1.595-.936 1.595-.89 1.548.89zm6.851-3.325-1.596-.89 1.596-.937 1.548.937zm-11.684-3.888-1.596-.937 1.596-.89 1.548.89zm22.57-3.045-1.595-.937 1.595-.89 1.596.89zm15.157-9.649-1.596-.937 1.596-.89 1.548.89zm-9.479 7.869-1.595-.937 1.595-.89 1.595.89zm-14.781-3.747-1.595-.89 1.595-.937 1.548.937zm20.271-1.312-1.548-.937 1.548-.89 1.596.89zm-12.763-7.307-1.549-.89 1.549-.937 1.595.937zm-74.469 55.695-1.689-.937 1.69-.983 1.642.983zm7.743-8.151-1.69-.983 1.69-.937 1.642.937zm5.161 3.28-1.642-.984 1.643-.937 1.642.937zm7.602-4.591-1.642-.984 1.642-.937 1.643.937zm5.397-2.436-1.643-.984 1.643-.936 1.642.936zm10.839-7.541-1.69-.984 1.69-.937 1.642.937zm3.754-1.78-1.69-.937 1.69-.984 1.642.984zm-7.226 4.496-2.394-1.405 2.394-1.358 2.393 1.358zm-27.592 13.678-1.642-.937 1.642-.983 1.69.983zm-18.722 1.734-1.643-.984 1.643-.937 1.642.937zm-10.84-.328-1.69-.937 1.69-.984 1.643.984zm6.241-9.088-1.642-.937 1.642-.936 1.69.936zm-23.462.984-1.642-.984 1.642-.937 1.69.937zm3.989-6.277-1.643-.937 1.643-.983 1.689.983zm.469 4.263-1.642-.937 1.642-.984 1.642.984zm-10.793-2.717-1.689-.937 1.69-.984 1.642.984zm2.581-2.717-1.642-.937 1.642-.984 1.642.984zm-3.613-5.153-1.642-.983 1.642-.937 1.69.937zm-9.384.516-1.643-.984 1.642-.937 1.643.937zm4.129-1.733-1.643-.937 1.643-.984 1.642.984zm-3.332-1.406-1.642-.937 1.642-.936 1.69.936zm-1.737-4.544-1.642-.936 1.643-.984 1.689.984z" fill="#676b66" opacity=".5"/><g fill="#b4bf00"><path d="m107.966 108.908-46.643-26.84 46.643-26.888 46.642 26.887z"/><path d="m63.153 94.949-10.651-6.136 10.651-6.09 10.605 6.09z"/><path d="m64.42 105.582-10.652-6.136 10.652-6.137 10.605 6.137z"/><path d="m73.758 99.446-10.605-6.137 10.605-6.089 10.652 6.09z"/><path d="m82.674 104.458-9.057-5.2 9.057-5.246 9.056 5.246z"/><path d="m82.674 111.531-7.79-4.497 7.79-4.497 7.789 4.497zm55.37-11.711-7.836-4.496 7.836-4.497 7.79 4.497z"/><path d="m147.898 101.6-7.79-4.496 7.79-4.497 7.79 4.497zm3.144-37.38-7.836-4.496 7.836-4.497 7.79 4.497z"/><path d="m160.098 64.83-5.584-3.233 5.584-3.185 5.537 3.185zm-10.229-6.605-5.537-3.232 5.537-3.186 5.584 3.186zm-40.449 58.74-7.836-4.497 7.836-4.497 7.79 4.497z"/><path d="m99.05 116.965-11.684-6.746 11.684-6.745 11.731 6.745zm21.163-4.638-11.684-6.745 11.684-6.745 11.73 6.745z"/><path d="m122.371 120.197-11.684-6.745 11.684-6.746 11.731 6.746zm13.796-8.76-11.684-6.745 11.684-6.745 11.731 6.745zm9.666-15.223-11.73-6.746 11.73-6.745 11.684 6.745zm9.854-11.383-11.684-6.745 11.684-6.745 11.731 6.745z"/><path d="m143.3 79.819-11.685-6.745 11.684-6.746 11.731 6.746z"/><path d="m144.332 72.184-11.732-6.746 11.73-6.745 11.685 6.745zm-17.55 33.023-11.73-6.745 11.73-6.745 11.684 6.745zm-57.81 6.324-4.974-2.904 4.974-2.858 4.974 2.858zm5.725-6.558-3.004-1.733 3.004-1.686 2.956 1.686zm4.363 10.914-2.956-1.686 2.957-1.733 3.003 1.733zm7.415 0-2.957-1.686 2.957-1.733 2.956 1.733zm18.065 4.45-2.956-1.733 2.956-1.686 3.003 1.686zm-5.912.797-2.956-1.687 2.956-1.686 2.956 1.686zm52.226-15.927-2.956-1.733 2.956-1.686 2.956 1.686zm7.977-16.441-2.956-1.733 2.956-1.687 2.956 1.687zm12.717-9.416-2.957-1.686 2.957-1.733 3.003 1.733zm-16.142-9.321-2.956-1.686 2.956-1.734 2.956 1.734zm10.229-4.075-2.956-1.733 2.956-1.687 3.003 1.687zm-108.91 30.541-2.957-1.733 2.957-1.687 2.956 1.687zm-5.397 0-1.642-.984 1.642-.937 1.69.937zm2.018 5.433-1.69-.936 1.69-.937 1.643.937zm22.618 9.275-1.643-.984 1.643-.936 1.689.936zm37.257 7.167-1.642-.937 1.642-.984 1.643.984zm23.369-4.59-1.643-.984 1.642-.937 1.643.937zm16.141-12.039-1.642-.937 1.642-.983 1.69.983zm1.502-6.979-1.69-.937 1.69-.984 1.642.984zm4.082 0-1.642-.937 1.642-.984 1.642.984zm9.666-14.287-1.689-.937 1.69-.984 1.642.984zm-.563-3.42-1.642-.983 1.642-.937 1.643.937zm-6.475-8.291-1.69-.983 1.69-.937 1.642.937zm-2.816 3.045-1.689-.984 1.69-.937 1.642.937zm8.823-3.935-1.643-.983 1.642-.937 1.642.937zm-55.653 53.119-1.689-.937 1.69-.983 1.642.983zm-58.279-26.466-5.162-2.998 5.162-2.95 5.114 2.95zm38.712 10.165-4.974-2.904 4.974-2.857 4.974 2.857z"/></g><path d="m129.222 102.537-6.288-3.606 6.288-3.607 6.288 3.607zm5.678 6.652-6.288-3.607 6.288-3.607 6.288 3.607zm11.356-14.755-6.288-3.607 6.288-3.654 6.287 3.654zm-24.166 11.757-4.223-2.436 4.223-2.436 4.223 2.436zm15.954-8.666-4.223-2.436 4.223-2.435 4.223 2.435zm21.21-17.191-4.224-2.436 4.224-2.435 4.223 2.435zm-9.104 2.904-4.223-2.435 4.223-2.436 4.223 2.436zm-44.953 26.607-4.223-2.436 4.223-2.436 4.223 2.436zm-16.517-10.305-4.223-2.436 4.223-2.436 4.223 2.436zm-16.189-2.155-4.223-2.436 4.223-2.436 4.223 2.436zm1.126-5.855-4.223-2.436 4.223-2.436 4.223 2.436zm46.361 20.47-2.44-1.406 2.44-1.405 2.393 1.405zm26.606-13.491-2.44-1.405 2.44-1.359 2.393 1.359zm.798-11.992-2.44-1.358 2.44-1.405 2.44 1.405zm2.956-8.572-2.44-1.405 2.44-1.405 2.393 1.405zm-1.361-4.356-2.393-1.405 2.393-1.406 2.44 1.406zm.141-6.23-2.44-1.405 2.44-1.406 2.393 1.406zm-34.63 39.863-2.393-1.359 2.393-1.405 2.44 1.405zm-4.833 7.494-2.393-1.405 2.393-1.405 2.44 1.405zm-17.455-11.523-2.44-1.405 2.44-1.405 2.44 1.405zm1.642 8.432-2.44-1.406 2.44-1.358 2.44 1.358zm-12.764-14.193-2.393-1.406 2.393-1.405 2.44 1.405zm45.704 18.221-4.551-2.623 4.551-2.623 4.505 2.623z" fill="#d8d82a" opacity=".5"/><path d="m32.324 92.232v6.417l5.443 3.139v-6.418z" fill="#89aa3f"/><path d="m37.767 95.37v6.418l38.573-22.156-.047-6.418z" fill="#527636"/><path d="m32.324 92.232 5.443 3.139 38.525-22.157-5.396-3.185z" fill="#b8ce3f"/><path d="m200.124 67.265-.047 6.418-5.396 3.185v-6.464z" fill="#89aa3f"/><path d="m194.681 70.404v6.464l-48.8-28.34.046-6.417z" fill="#527636"/><path d="m200.124 67.265-5.443 3.139-48.754-28.293 5.396-3.185z" fill="#b8ce3f"/><path d="m146.584 28.948-.188 50.777-40.354 23.515.187-50.777z" fill="#e7e7e7"/><path d="m106.23 52.276-.188 50.964-39.322-22.953.187-50.683z" fill="#d5d5d5"/><path d="m146.584 27.075-40.354 23.514-39.323-22.671 40.449-23.468z" fill="#e9e9e9"/><path d="m146.584 26.981-40.354 23.562-39.323-22.673 40.496-23.468z" fill="#f4f3f2"/><path d="m107.309 4.403v4.075l33.691 19.44v-4.029z" fill="#d5d5d5"/><path d="m107.309 4.403v4.075l-33.363 19.44v-4.029z" fill="#e7e7e7"/><g fill="#ed5565"><path d="m110.828 2.389-40.355 23.515-3.566-2.015 40.355-23.514zm35.803 20.657-40.402 23.515-3.566-2.014 40.402-23.562z"/><path d="m66.907 23.89 39.323 22.67 3.567-2.014-39.323-22.672zm36.883-21.501 39.322 22.672 3.519-2.015-39.322-22.671z"/></g><path d="m146.631 23.046v4.029l-40.402 23.514v-4.028zm-79.724.797v4.075l39.322 22.671v-4.028z" fill="#da4453"/><path d="m144.332 47.498-15.532 8.994 1.69.983 15.531-8.993z" fill="#dcdcdc"/><path d="m146.021 48.482v33.726l-1.032.562v-33.726zm-14.499 8.478v33.586l-1.033.609v-33.633z" fill="#c5c5c5"/><path d="m131.522 89 13.467-7.823v1.593l-13.467 7.776zm0-32.227 13.467-7.823v1.593l-13.467 7.822z" fill="#c5c5c5"/><path d="m130.49 91.155v-33.633l-1.69-.984v33.633z" fill="#898989"/><path d="m144.989 50.543-13.467 7.822v30.635l13.467-7.776z" fill="#3e8dba"/><path d="m16.517 3.185-13.467 7.776v30.729l13.467-7.775z" fill="url(#c)" opacity=".7" transform="translate(128.471 47.31)"/><path d="m144.989 79.21-13.467 7.776v2.014l13.467-7.776z" fill="#dcdcdc"/><path d="m144.989 81.177v-32.133l-1.69.983v30.167z" fill="#898989"/><path d="m124.624 49.84-15.532 8.994 1.69.983 15.531-8.993z" fill="#dcdcdc"/><path d="m126.313 50.824v42.626l-1.032.562v-42.58zm-14.5 8.431v42.533l-1.032.609v-42.58zm0 40.987 13.468-7.823v1.593l-13.468 7.776zm0-40.987 13.468-7.822v1.592l-13.468 7.776z" fill="#c5c5c5"/><path d="m110.781 102.397v-42.58l-1.69-.983v42.58z" fill="#898989"/><path d="m125.28 53.025-13.467 7.776v39.441l13.468-7.776z" fill="#3e8dba"/><path d="m16.517 3.373-13.467 7.775v39.442l13.467-7.775z" fill="url(#d)" opacity=".7" transform="translate(108.763 49.653)"/><path d="m125.28 90.452-13.467 7.776v2.014l13.468-7.776z" fill="#dcdcdc"/><path d="m125.28 92.42v-39.396l-1.689.984v37.427z" fill="#898989"/><path d="m122.84 71.762v6.37l-2.017 1.031v-6.37z" fill="#c5c5c5"/><path d="m120.823 79.163v-6.37l-.61-.328v6.323z" fill="#898989"/><path d="m122.23 71.434-2.017 1.03.61.329 2.018-1.03z" fill="#dcdcdc"/><path d="m69.629 39.488 15.532 8.994-1.69.983-15.531-8.993z" fill="#dcdcdc"/><path d="m67.94 40.472v24.217l1.032.609v-24.264zm14.499 8.384v24.218l1.032.609v-24.218zm0 22.625-13.467-7.776v1.593l13.467 7.776zm0-22.625-13.467-7.822v1.592l13.467 7.823z" fill="#c5c5c5"/><path d="m83.471 73.683v-24.265l1.69-.936v24.217z" fill="#898989"/><path d="m68.972 42.626 13.467 7.823v21.031l-13.467-7.776z" fill="#3e8dba"/><path d="m1.032 3.279 13.468 7.823v21.032l-13.468-7.776z" fill="url(#e)" opacity=".7" transform="translate(67.94 39.347)"/><path d="m68.972 61.738 13.467 7.776v1.967l-13.467-7.776z" fill="#dcdcdc"/><path d="m68.972 63.705v-21.079l1.69.984v19.112z" fill="#898989"/><path d="m87.788 50.027 15.532 8.994-1.736.984-15.532-8.994z" fill="#dcdcdc"/><path d="m86.052 51.011v24.264l1.033.562v-24.264zm14.547 8.385v24.217l.985.61v-24.219zm0 22.624-13.514-7.775v1.592l13.514 7.776zm0-22.624-13.514-7.823v1.593l13.514 7.822z" fill="#c5c5c5"/><path d="m101.584 84.222v-24.217l1.736-.984v24.217z" fill="#898989"/><path d="m87.085 53.166 13.514 7.822v21.08l-13.514-7.823z" fill="#3e8dba"/><path d="m1.314 3.513 13.514 7.823v21.079l-13.514-7.823z" fill="url(#f)" opacity=".7" transform="translate(85.77 49.653)"/><path d="m87.085 72.277 13.514 7.776v2.014l-13.514-7.822z" fill="#dcdcdc"/><path d="m87.085 74.245v-21.08l1.736.984v19.112z" fill="#898989"/><path d="m105.948 55.572 13.245 10.944 41.656-24.094-13.34-11.038z" fill="#fff"/><path d="m131.005 59.49 6.382-3.62-13.28-10.902-6.428 3.712zm-18.66-7.495-6.113 4.203 13.027 10.318 6.397-3.63zm17.065-9.873 13.326 10.81 6.382-3.62-13.28-10.901zm11.73-7.038 13.343 10.821 6.366-3.653-13.295-10.868z" fill="#ed5565"/><path d="m128.205 67.645c-1.507.909-2.878.191-3.015-2.154l-.183-3.063 5.635-3.24.183 3.064c.137 2.345-1.112 4.483-2.62 5.393zm23.438-13.67c-1.497.82-2.801.273-2.994-1.915v-3.237l5.485-3.2.118 3.154c.241 2.189-1.111 4.377-2.609 5.198zm-11.459 6.825c-1.507.91-2.878.192-3.015-2.153l-.183-3.063 5.214-3.063.182 3.063c.137 2.345-.69 4.355-2.198 5.216z" fill="#d5d5d5"/><path d="m157.564 51.142c-1.787 1.013-3.284-.046-3.284-2.35l-.156-3.136 6.661-3.516.312 3.22c0 2.303-1.697 4.814-3.533 5.782zm-23.598 13.038c-1.787 1.013-3.285-.047-3.285-2.35v-2.644l6.317-3.667v3.04c0 2.258-1.196 4.607-3.032 5.62zm-11.916 7.127c-1.787 1.014-3.436.068-3.436-2.236v-3.04l6.446-3.615.152 2.927c0 2.304-1.326 4.997-3.162 5.964zm23.457-13.507-.143-.1c-1.787 1.013-3.141.054-3.141-2.25v-2.948l6.426-3.682v2.936c-.049 2.258-1.355 5.077-3.142 6.044z" fill="#da4453"/><path d="m147.898 28.058v3.748l-41.715 24.404v-3.982z" fill="#c5c5c5"/><path d="m147.898 28.058-41.715 24.17-1.361-.795 41.715-24.17z" fill="#fff"/><path d="m65.546 28.714v3.748l40.73 23.749v-3.982z" fill="#c5c5c5"/><path d="m65.546 28.714 40.73 23.515 1.314-.796-40.683-23.468z" fill="#fff"/><path d="m64.28 77.336v24.077l-2.065 1.171v-24.03z" fill="#9a5725"/><path d="m62.215 78.554v24.03l-2.112-1.17v-24.079z" fill="#7d4118"/><path d="m75.87 65.579-.047 18.456-13.655 7.963.047-18.456z" fill="#527636"/><path d="m62.215 73.542-.047 18.456-13.796-7.963.047-18.456z" fill="#89aa3f"/><path d="m75.87 65.579-13.655 7.963-13.796-7.963 13.702-7.916z" fill="#b8ce3f"/><path d="m71.693 54.571-.046 11.242-9.526 5.528.047-11.243z" fill="#527636"/><path d="m62.168 60.098-.047 11.243-9.573-5.528.047-11.242z" fill="#89aa3f"/><path d="m71.693 54.571-9.525 5.527-9.573-5.527 9.526-5.527z" fill="#b8ce3f"/><path d="m71.693 54.571-.046 11.242-9.526 5.528.047-11.243z" fill="#527636"/><path d="m62.168 60.098-.047 11.243-9.573-5.528.047-11.242z" fill="#89aa3f"/><path d="m71.693 54.571-9.525 5.527-9.573-5.527 9.526-5.527z" fill="#b8ce3f"/><path d="m69.019 46.233-.047 8.104-6.851 3.981.047-8.103z" fill="#527636"/><path d="m62.168 50.215-.047 8.103-6.898-3.981.047-8.104z" fill="#89aa3f"/><path d="m69.019 46.233-6.851 3.982-6.898-3.982 6.851-3.981z" fill="#b8ce3f"/><path d="m172.486 70.591v14.662l-1.267.75.047-14.662z" fill="#9a5725"/><path d="m171.266 71.34-.047 14.662-1.267-.75.047-14.66z" fill="#7d4118"/><path d="m179.572 63.471-.047 11.195-8.306 4.872v-11.242z" fill="#527636"/><path d="m171.22 68.296v11.242l-8.4-4.872.047-11.195z" fill="#89aa3f"/><path d="m179.572 63.471-8.353 4.825-8.352-4.825 8.305-4.872z" fill="#b8ce3f"/><path d="m177.038 56.726-.047 6.886-5.772 3.372v-6.886z" fill="#527636"/><path d="m171.22 60.098v6.886l-5.866-3.372.047-6.886z" fill="#89aa3f"/><path d="m177.038 56.726-5.819 3.372-5.818-3.372 5.771-3.326z" fill="#b8ce3f"/><path d="m177.038 56.726-.047 6.886-5.772 3.372v-6.886z" fill="#527636"/><path d="m171.22 60.098v6.886l-5.866-3.372.047-6.886z" fill="#89aa3f"/><path d="m177.038 56.726-5.819 3.372-5.818-3.372 5.771-3.326z" fill="#b8ce3f"/><path d="m175.395 51.667v4.965l-4.176 2.39v-4.92z" fill="#527636"/><path d="m171.22 54.103v4.918l-4.224-2.389v-4.965z" fill="#89aa3f"/><path d="m175.395 51.667-4.176 2.436-4.223-2.436 4.176-2.436z" fill="#b8ce3f"/></g></svg>