<?xml version="1.0" standalone="no"?>
<!DOCTYPE svg PUBLIC "-//W3C//DTD SVG 1.1//EN" "http://www.w3.org/Graphics/SVG/1.1/DTD/svg11.dtd" >
<svg xmlns="http://www.w3.org/2000/svg" xmlns:xlink="http://www.w3.org/1999/xlink" version="1.1">
<metadata>
Created by FontForge 20141014 at Mon Nov 24 15:02:54 2014


</metadata>
<defs>
<font id="NazaninWeb-Regular" horiz-adv-x="0" >
  <font-face 
    font-family="Nazanin"
    font-weight="400"
    font-stretch="normal"
    units-per-em="2048"
    panose-1="2 0 5 3 0 0 0 0 0 0"
    ascent="1638"
    descent="-410"
    bbox="-430 -1153 2580 1831"
    underline-thickness="102"
    underline-position="-102"
    stemh="150"
    stemv="91"
    unicode-range="U+0020-FFFC"
  />
<missing-glyph horiz-adv-x="495" 
 />
    <glyph glyph-name="uniFDF2" unicode="&#xfedf;&#xfee0;&#x651;&#x670;&#xfeea;" horiz-adv-x="1419" arabic-form="isolated" 
d="M811 1528c25 -72 43 -141 43 -223c0 -47 -6 -79 -18 -97s-28 -28 -48 -28c10 14 15 34 15 61c0 45 -11 78 -25 119c-10 37 -20 64 -30 82zM993 1151c-2 -27 -6 -66 -16 -119c-16 -51 -45 -76 -88 -76h-4c-16 0 -36 5 -56 13c-27 -55 -59 -82 -96 -82c-47 0 -69 31 -69 92
c0 47 10 80 28 96c14 14 27 21 37 15c-10 -14 -16 -37 -16 -66c0 -27 10 -39 28 -39c25 0 46 18 60 57l20 86l37 23c0 -63 16 -94 49 -96c27 0 39 10 37 30v29c0 57 2 65 27 90c8 8 18 15 28 17zM428 440c-78 -27 -142 -59 -201 -100c-41 -29 -61 -49 -61 -61
c0 -39 63 -58 192 -58c37 0 76 5 105 15zM1321 983c8 -195 12 -365 12 -551v-205c0 -158 -86 -256 -246 -256c-111 0 -186 39 -225 117c-45 -78 -113 -117 -205 -117c-100 0 -160 66 -178 197l-84 -78h-82c-141 0 -211 39 -211 119c0 82 48 176 99 213c66 43 135 77 209 108
l-11 56l93 100c2 -31 8 -79 16 -145s17 -152 27 -256c8 -57 12 -100 43 -131c27 -27 59 -33 112 -33c66 0 141 64 141 125c0 86 -12 172 -20 252s-15 157 -23 237l113 119c14 -184 25 -365 33 -625c0 -39 20 -59 45 -77c29 -20 57 -31 106 -31c61 0 119 14 148 43
c8 8 12 21 12 31c0 44 -7 98 -10 165l-35 496z" />
    <glyph glyph-name="uniFEF5" unicode="&#xfedf;&#xfe82;" horiz-adv-x="1034" arabic-form="isolated" 
d="M596 121c47 0 147 18 147 47c0 23 -16 55 -49 98c-72 -66 -127 -112 -168 -139v-4l56 -2h14zM905 1245c25 -72 47 -137 82 -223c0 -4 -2 -6 -6 -8c-20 0 -39 6 -55 12c-14 -281 -59 -524 -178 -682c18 -41 33 -75 43 -102s16 -50 16 -66c0 -20 -9 -49 -23 -84
c-18 -47 -40 -78 -67 -88c-10 -4 -33 -8 -68 -12c-55 -6 -182 -13 -248 -17c-31 -2 -55 -4 -69 -4c14 43 27 76 37 103s18 43 24 51c66 27 153 94 262 203c-45 59 -106 131 -180 217s-163 186 -272 301c-2 -31 -7 -45 -17 -45c-6 0 -30 22 -73 69c-45 51 -68 87 -68 107
c0 66 18 107 41 162c164 -164 307 -319 430 -469c80 -92 144 -170 193 -260c76 129 104 313 104 526c0 72 -4 145 -8 215zM4 1278c-13 0 -53 -57 -65 -57c-10 0 -17 8 -19 24c0 20 46 119 64 119c29 0 120 -17 149 -17c74 0 129 5 164 15c18 6 33 8 39 8s8 -2 8 -4
c0 -6 -8 -17 -26 -31c-55 -45 -125 -67 -205 -67c-18 0 -89 10 -109 10z" />
    <glyph glyph-name="uniFEF6" unicode="&#xfee0;&#xfe82;" horiz-adv-x="1200" arabic-form="final" 
d="M1208 0h-49c-170 0 -254 93 -254 279c0 92 -2 161 -4 204h-4c-123 -268 -238 -444 -344 -526c-27 -23 -53 -35 -76 -37c-119 -14 -215 -35 -313 -35c-25 0 -37 3 -37 9c0 2 59 35 178 96c141 72 263 141 361 233c-16 199 -160 397 -430 598c0 -31 -5 -47 -11 -47
c-4 0 -12 7 -26 17s-31 25 -54 43c-49 43 -73 79 -73 112c0 55 4 109 14 158l84 -64c164 -125 287 -238 367 -342c96 -127 156 -265 176 -419c117 135 174 286 174 456v39l-19 369l105 102l22 -903c3 -136 45 -192 179 -192h34c10 0 17 -12 17 -35v-80c0 -23 -7 -35 -17 -35
zM18 1247c-13 0 -53 -57 -65 -57c-10 0 -17 8 -19 24c0 20 46 119 64 119c29 0 120 -17 149 -17c74 0 129 5 164 15c18 6 33 8 39 8s8 -2 8 -4c0 -6 -8 -17 -26 -31c-55 -45 -125 -67 -205 -67c-18 0 -89 10 -109 10z" />
    <glyph glyph-name="uniFEF7" unicode="&#xfedf;&#xfe84;" horiz-adv-x="1034" arabic-form="isolated" 
d="M596 121c47 0 147 18 147 47c0 23 -16 55 -49 98c-72 -66 -127 -112 -168 -139v-4l56 -2h14zM905 1245c25 -72 47 -137 82 -223c0 -4 -2 -6 -6 -8c-20 0 -39 6 -55 12c-14 -281 -59 -524 -178 -682c18 -41 33 -75 43 -102s16 -50 16 -66c0 -20 -9 -49 -23 -84
c-18 -47 -40 -78 -67 -88c-10 -4 -33 -8 -68 -12c-55 -6 -182 -13 -248 -17c-31 -2 -55 -4 -69 -4c14 43 27 76 37 103s18 43 24 51c66 27 153 94 262 203c-45 59 -106 131 -180 217s-163 186 -272 301c-2 -31 -7 -45 -17 -45c-6 0 -30 22 -73 69c-45 51 -68 87 -68 107
c0 66 18 107 41 162c164 -164 307 -319 430 -469c80 -92 144 -170 193 -260c76 129 104 313 104 526c0 72 -4 145 -8 215zM-41 1381c0 74 82 153 160 153c55 0 82 -23 82 -70c0 -10 -7 -20 -13 -24c-23 18 -49 27 -82 27c-61 0 -92 -17 -94 -48c0 -35 31 -57 58 -67
c10 -4 18 -8 26 -8c51 0 101 11 148 34l-29 -81c-106 -20 -213 -43 -266 -111c-6 14 -8 25 -8 37c0 31 20 57 59 80c-27 16 -41 43 -41 78z" />
    <glyph glyph-name="uniFEF8" unicode="&#xfee0;&#xfe84;" horiz-adv-x="1200" arabic-form="final" 
d="M1208 0h-49c-170 0 -254 93 -254 279c0 92 -2 161 -4 204h-4c-123 -268 -238 -444 -344 -526c-27 -23 -53 -35 -76 -37c-119 -14 -215 -35 -313 -35c-25 0 -37 3 -37 9c0 2 59 35 178 96c141 72 263 141 361 233c-16 199 -160 397 -430 598c0 -31 -5 -47 -11 -47
c-4 0 -12 7 -26 17s-31 25 -54 43c-49 43 -73 79 -73 112c0 55 4 109 14 158l84 -64c164 -125 287 -238 367 -342c96 -127 156 -265 176 -419c117 135 174 286 174 456v39l-19 369l105 102l22 -903c3 -136 45 -192 179 -192h34c10 0 17 -12 17 -35v-80c0 -23 -7 -35 -17 -35
zM-6 1350c0 74 82 153 160 153c55 0 82 -23 82 -70c0 -10 -7 -20 -13 -24c-23 18 -49 27 -82 27c-61 0 -92 -17 -94 -48c0 -35 31 -57 58 -67c10 -4 18 -8 26 -8c51 0 101 11 148 34l-29 -81c-106 -20 -213 -43 -266 -111c-6 14 -8 25 -8 37c0 31 20 57 59 80
c-27 16 -41 43 -41 78z" />
    <glyph glyph-name="uniFEF9" unicode="&#xfedf;&#xfe88;" horiz-adv-x="1034" arabic-form="isolated" 
d="M596 121c47 0 147 18 147 47c0 23 -16 55 -49 98c-72 -66 -127 -112 -168 -139v-4l56 -2h14zM905 1245c25 -72 47 -137 82 -223c0 -4 -2 -6 -6 -8c-20 0 -39 6 -55 12c-14 -281 -59 -524 -178 -682c18 -41 33 -75 43 -102s16 -50 16 -66c0 -20 -9 -49 -23 -84
c-18 -47 -40 -78 -67 -88c-10 -4 -33 -8 -68 -12c-55 -6 -182 -13 -248 -17c-31 -2 -55 -4 -69 -4c14 43 27 76 37 103s18 43 24 51c66 27 153 94 262 203c-45 59 -106 131 -180 217s-163 186 -272 301c-2 -31 -7 -45 -17 -45c-6 0 -30 22 -73 69c-45 51 -68 87 -68 107
c0 66 18 107 41 162c164 -164 307 -319 430 -469c80 -92 144 -170 193 -260c76 129 104 313 104 526c0 72 -4 145 -8 215zM233 -278c0 74 82 153 160 153c55 0 82 -23 82 -70c0 -10 -7 -20 -13 -24c-23 18 -49 27 -82 27c-61 0 -92 -17 -94 -48c0 -35 31 -57 58 -67
c10 -4 18 -8 26 -8c51 0 101 11 148 34l-29 -81c-106 -20 -213 -43 -266 -111c-6 14 -8 25 -8 37c0 31 20 57 59 80c-27 16 -41 43 -41 78z" />
    <glyph glyph-name="uniFEFA" unicode="&#xfee0;&#xfe88;" horiz-adv-x="1200" arabic-form="final" 
d="M1208 0h-49c-170 0 -254 93 -254 279c0 92 -2 161 -4 204h-4c-123 -268 -238 -444 -344 -526c-27 -23 -53 -35 -76 -37c-119 -14 -215 -35 -313 -35c-25 0 -37 3 -37 9c0 2 59 35 178 96c141 72 263 141 361 233c-16 199 -160 397 -430 598c0 -31 -5 -47 -11 -47
c-4 0 -12 7 -26 17s-31 25 -54 43c-49 43 -73 79 -73 112c0 55 4 109 14 158l84 -64c164 -125 287 -238 367 -342c96 -127 156 -265 176 -419c117 135 174 286 174 456v39l-19 369l105 102l22 -903c3 -136 45 -192 179 -192h34c10 0 17 -12 17 -35v-80c0 -23 -7 -35 -17 -35
zM184 -352c0 74 82 153 160 153c55 0 82 -23 82 -70c0 -10 -7 -20 -13 -24c-23 18 -49 27 -82 27c-61 0 -92 -17 -94 -48c0 -35 31 -57 58 -67c10 -4 18 -8 26 -8c51 0 101 11 148 34l-29 -81c-106 -20 -213 -43 -266 -111c-6 14 -8 25 -8 37c0 31 20 57 59 80
c-27 16 -41 43 -41 78z" />
    <glyph glyph-name="uniFEFB" unicode="&#xfedf;&#xfe8e;" horiz-adv-x="1034" arabic-form="isolated" 
d="M596 121c47 0 147 18 147 47c0 23 -16 55 -49 98c-72 -66 -127 -112 -168 -139v-4l56 -2h14zM905 1245c25 -72 47 -137 82 -223c0 -4 -2 -6 -6 -8c-20 0 -39 6 -55 12c-14 -281 -59 -524 -178 -682c18 -41 33 -75 43 -102s16 -50 16 -66c0 -20 -9 -49 -23 -84
c-18 -47 -40 -78 -67 -88c-10 -4 -33 -8 -68 -12c-55 -6 -182 -13 -248 -17c-31 -2 -55 -4 -69 -4c14 43 27 76 37 103s18 43 24 51c66 27 153 94 262 203c-45 59 -106 131 -180 217s-163 186 -272 301c-2 -31 -7 -45 -17 -45c-6 0 -30 22 -73 69c-45 51 -68 87 -68 107
c0 66 18 107 41 162c164 -164 307 -319 430 -469c80 -92 144 -170 193 -260c76 129 104 313 104 526c0 72 -4 145 -8 215z" />
    <glyph glyph-name="uniFEFC" unicode="&#xfee0;&#xfe8e;" horiz-adv-x="1200" arabic-form="final" 
d="M1208 0h-49c-170 0 -254 93 -254 279c0 92 -2 161 -4 204h-4c-123 -268 -238 -444 -344 -526c-27 -23 -53 -35 -76 -37c-119 -14 -215 -35 -313 -35c-25 0 -37 3 -37 9c0 2 59 35 178 96c141 72 263 141 361 233c-16 199 -160 397 -430 598c0 -31 -5 -47 -11 -47
c-4 0 -12 7 -26 17s-31 25 -54 43c-49 43 -73 79 -73 112c0 55 4 109 14 158l84 -64c164 -125 287 -238 367 -342c96 -127 156 -265 176 -419c117 135 174 286 174 456v39l-19 369l105 102l22 -903c3 -136 45 -192 179 -192h34c10 0 17 -12 17 -35v-80c0 -23 -7 -35 -17 -35
z" />
    <glyph glyph-name="uni0672.fina" unicode="&#x672;" horiz-adv-x="485" 
d="M274 279c0 -70 78 -129 154 -129h66c10 0 14 -12 16 -35v-80c0 -23 -6 -35 -16 -35h-33c-119 0 -223 49 -258 139c-12 31 -19 66 -21 105c-4 315 -16 612 -43 899l109 102c25 -287 22 -604 26 -966zM170 1368c-33 0 -80 23 -80 64c0 4 2 10 2 14c0 61 50 117 111 117h14
c23 -2 44 -15 64 -33c2 -4 4 -11 4 -15c0 -20 -23 -39 -37 -51c0 2 -7 9 -15 19c-12 14 -24 22 -38 22c-31 0 -60 -22 -66 -49c10 -43 51 -55 96 -55c33 0 67 6 94 14c4 0 7 0 7 -4c0 -11 -11 -28 -19 -45c-31 -23 -81 -37 -151 -41s-109 -20 -121 -49h-2c-4 0 -6 2 -6 8
c0 41 30 64 71 68c35 4 58 10 72 16z" />
    <glyph glyph-name="uni0673.fina" unicode="&#x673;" horiz-adv-x="485" 
d="M274 279c0 -70 78 -129 154 -129h66c10 0 14 -12 16 -35v-80c0 -23 -6 -35 -16 -35h-33c-119 0 -223 49 -258 139c-12 31 -19 66 -21 105c-4 315 -16 612 -43 899l109 102c25 -287 22 -604 26 -966zM309 -363c-33 0 -80 23 -80 64c0 4 2 10 2 14c0 61 50 117 111 117h14
c23 -2 44 -15 64 -33c2 -4 4 -11 4 -15c0 -20 -23 -39 -37 -51c0 2 -7 9 -15 19c-12 14 -24 22 -38 22c-31 0 -60 -22 -66 -49c10 -43 51 -55 96 -55c33 0 67 6 94 14c4 0 7 0 7 -4c0 -11 -11 -28 -19 -45c-31 -23 -81 -37 -151 -41s-109 -20 -121 -49h-2c-4 0 -6 2 -6 8
c0 41 30 64 71 68c35 4 58 10 72 16z" />
    <glyph glyph-name="uni0675.fina" unicode="&#x675;" horiz-adv-x="485" 
d="M274 279c0 -70 78 -129 154 -129h66c10 0 14 -12 16 -35v-80c0 -23 -6 -35 -16 -35h-33c-119 0 -223 49 -258 139c-12 31 -19 66 -21 105c-4 315 -16 612 -43 899l109 102c25 -287 22 -604 26 -966zM55 1463c0 74 82 153 160 153c55 0 82 -23 82 -70
c0 -10 -7 -20 -13 -24c-23 18 -49 27 -82 27c-61 0 -92 -17 -94 -48c0 -35 31 -57 58 -67c10 -4 18 -8 26 -8c51 0 101 11 148 34l-29 -81c-106 -20 -213 -43 -266 -111c-6 14 -8 25 -8 37c0 31 20 57 59 80c-27 16 -41 43 -41 78z" />
    <glyph glyph-name="uni0676.fina" unicode="&#x676;" horiz-adv-x="724" 
d="M348 358c-66 0 -110 -48 -110 -114c0 -63 53 -94 157 -94h107c0 53 -24 100 -49 135c-31 49 -66 73 -105 73zM393 0c-143 0 -235 27 -235 168c0 127 55 248 125 307c25 20 53 33 84 33c63 0 114 -37 153 -111c37 -63 62 -147 72 -247h141c10 0 17 -12 17 -35v-80
c0 -23 -7 -35 -17 -35h-143c0 -94 -37 -203 -113 -328c-23 -39 -43 -69 -63 -94c-43 -51 -68 -84 -156 -84c-45 0 -258 11 -258 31c0 6 11 12 29 18c195 51 368 184 458 346c23 43 33 76 33 101v14c-14 -2 -33 -4 -53 -4h-74zM221 832c0 74 82 153 160 153
c55 0 82 -23 82 -70c0 -10 -7 -20 -13 -24c-23 18 -49 27 -82 27c-61 0 -92 -17 -94 -48c0 -35 31 -57 58 -67c10 -4 18 -8 26 -8c51 0 101 11 148 34l-29 -81c-106 -20 -213 -43 -266 -111c-6 14 -8 25 -8 37c0 31 20 57 59 80c-27 16 -41 43 -41 78z" />
    <glyph glyph-name="uni0677.fina" unicode="&#x677;" horiz-adv-x="817" 
d="M438 358c-66 0 -110 -48 -110 -114c0 -63 53 -94 157 -94h107c0 53 -24 100 -49 135c-31 49 -66 73 -105 73zM483 0c-143 0 -235 27 -235 168c0 127 55 248 125 307c25 20 53 33 84 33c63 0 114 -37 153 -111c37 -63 62 -147 72 -247h141c10 0 17 -12 17 -35v-80
c0 -23 -7 -35 -17 -35h-143c0 -94 -37 -203 -113 -328c-23 -39 -43 -69 -63 -94c-43 -51 -68 -84 -156 -84c-45 0 -258 11 -258 31c0 6 11 12 29 18c195 51 368 184 458 346c23 43 33 76 33 101v14c-14 -2 -33 -4 -53 -4h-74zM535 822c0 74 82 153 160 153
c55 0 82 -23 82 -70c0 -10 -7 -20 -13 -24c-23 18 -49 27 -82 27c-61 0 -92 -17 -94 -48c0 -35 31 -57 58 -67c10 -4 18 -8 26 -8c51 0 101 11 148 34l-29 -81c-106 -20 -213 -43 -266 -111c-6 14 -8 25 -8 37c0 31 20 57 59 80c-27 16 -41 43 -41 78zM340 899
c-27 0 -66 -17 -66 -46c0 -27 30 -53 91 -78c10 15 13 36 13 65c0 40 -13 59 -38 59zM436 878c0 -53 -13 -89 -36 -120c23 -13 42 -21 59 -21c-17 -33 -33 -52 -50 -61l-57 19c-53 -71 -129 -105 -231 -105c-30 0 -50 9 -59 28c45 0 85 18 126 35c57 23 97 44 121 63
c-67 31 -102 67 -102 107c0 62 88 147 162 147c44 0 67 -30 67 -92z" />
    <glyph glyph-name="uni0678.fina" unicode="&#x678;" horiz-adv-x="1347" 
d="M1190 -246c0 -238 -222 -350 -664 -350c-242 0 -420 107 -424 336c0 98 21 174 54 244c31 68 59 102 82 102c14 0 22 -6 22 -18c0 0 -12 -25 -35 -76c-23 -49 -32 -99 -32 -152c0 -236 174 -289 436 -289c137 0 246 15 348 48c88 27 133 55 133 86c0 18 -32 26 -104 36
c-74 8 -144 21 -193 41c-70 20 -104 54 -104 97c0 121 147 250 256 268c98 20 225 23 364 23h25c10 0 16 -12 16 -35v-80c0 -23 -6 -35 -16 -35h-125c-287 0 -430 -27 -430 -82c0 -45 303 -57 360 -96c20 -10 31 -37 31 -68zM432 375c0 74 82 153 160 153
c55 0 82 -23 82 -70c0 -10 -7 -20 -13 -24c-23 18 -49 27 -82 27c-61 0 -92 -17 -94 -48c0 -35 31 -57 58 -67c10 -4 18 -8 26 -8c51 0 101 11 148 34l-29 -81c-106 -20 -213 -43 -266 -111c-6 14 -8 25 -8 37c0 31 20 57 59 80c-27 16 -41 43 -41 78z" />
    <glyph glyph-name="uni067C.init" unicode="&#x67c;" horiz-adv-x="448" 
d="M223 647l-103 104l101 101l102 -101zM-19 647l-102 104l100 101l103 -101zM127 0c-41 0 -74 -41 -74 -82s27 -62 78 -62c43 0 75 14 98 43c0 49 -53 101 -102 101zM34 0h-38c-25 0 -37 12 -37 35v80c0 23 12 35 37 35h22c188 0 283 22 283 67c0 51 -27 108 -84 180
l68 152c63 -90 96 -183 96 -277c0 -136 -44 -208 -133 -243c17 -27 26 -61 26 -97c0 -78 -45 -126 -102 -149c-20 -8 -39 -15 -62 -15c-72 0 -106 35 -106 107c0 48 9 89 30 125z" />
    <glyph glyph-name="uni067C.medi" unicode="&#x67c;" horiz-adv-x="620" 
d="M443 596l-103 104l101 101l102 -101zM201 596l-102 104l100 101l103 -101zM103 2c-41 0 -74 -41 -74 -82s27 -62 78 -62c43 0 75 14 98 43c0 49 -53 101 -102 101zM9 0h-13c-25 0 -37 12 -37 35v80c0 23 12 35 37 35h137c113 0 177 67 191 202c0 18 8 27 24 27
s25 -9 25 -27c14 -135 77 -202 188 -202h66c10 0 16 -12 16 -35v-80c0 -23 -6 -35 -16 -35h-25c-139 0 -207 27 -252 127c-24 -52 -66 -84 -122 -102c14 -26 22 -58 22 -91c0 -78 -45 -126 -102 -149c-20 -8 -39 -15 -62 -15c-72 0 -106 35 -106 107c0 47 9 88 29 123z" />
    <glyph glyph-name="uni067C.fina" unicode="&#x67c;" horiz-adv-x="1497" 
d="M1360 375c0 -33 -23 -90 -23 -117c0 -72 48 -108 144 -108h22c10 0 17 -12 19 -35v-80c0 -23 -7 -35 -19 -35h-30c-121 0 -193 59 -213 180c-107 -104 -275 -165 -505 -185c10 -23 15 -50 15 -77c0 -78 -45 -126 -102 -149c-20 -8 -39 -15 -62 -15
c-72 0 -106 35 -106 107c0 49 10 91 32 127c-280 8 -419 101 -419 280c0 61 11 115 34 158c20 47 40 72 54 72c18 0 26 -9 26 -25c0 -14 -10 -27 -18 -47c-12 -29 -19 -57 -19 -84c0 -137 140 -205 416 -207c170 0 324 23 451 62c90 31 153 69 188 114c45 59 76 88 90 88
c16 0 25 -8 25 -24zM823 528l-103 104l101 101l102 -101zM581 528l-102 104l100 101l103 -101zM623 -14c-41 0 -74 -41 -74 -82s27 -62 78 -62c43 0 75 14 98 43c0 49 -53 101 -102 101z" />
    <glyph glyph-name="uni067D.init" unicode="&#x67d;" horiz-adv-x="448" 
d="M381 272c0 -219 -115 -272 -346 -272h-39c-25 0 -37 12 -37 35v80c0 23 12 35 37 35h22c188 0 283 22 283 67c0 51 -27 108 -84 180l68 152c63 -90 96 -183 96 -277zM-8 985l102 -106l-102 -105l-107 105zM234 985l102 -106l-102 -105l-107 105zM109 770l102 -107
l-102 -106l-105 106z" />
    <glyph glyph-name="uni067D.medi" unicode="&#x67d;" horiz-adv-x="620" 
d="M350 127c-49 -106 -172 -127 -332 -127h-22c-25 0 -37 12 -37 35v80c0 23 12 35 37 35h137c113 0 177 67 191 202c0 18 8 27 24 27s25 -9 25 -27c14 -135 77 -202 188 -202h66c10 0 16 -12 16 -35v-80c0 -23 -6 -35 -16 -35h-25c-139 0 -207 27 -252 127zM219 967
l102 -106l-102 -105l-107 105zM461 967l102 -106l-102 -105l-107 105zM336 752l102 -107l-102 -106l-105 106z" />
    <glyph glyph-name="uni067D.fina" unicode="&#x67d;" horiz-adv-x="1497" 
d="M1360 375c0 -33 -23 -90 -23 -117c0 -72 48 -108 144 -108h22c10 0 17 -12 19 -35v-80c0 -23 -7 -35 -19 -35h-30c-121 0 -193 59 -213 180c-133 -129 -360 -192 -682 -192h-11c-303 0 -454 94 -454 280c0 61 11 115 34 158c20 47 40 72 54 72c18 0 26 -9 26 -25
c0 -14 -10 -27 -18 -47c-12 -29 -19 -57 -19 -84c0 -137 140 -205 416 -207c170 0 324 23 451 62c90 31 153 69 188 114c45 59 76 88 90 88c16 0 25 -8 25 -24zM586 928l102 -106l-102 -105l-107 105zM828 928l102 -106l-102 -105l-107 105zM703 713l102 -107l-102 -106
l-105 106z" />
    <glyph glyph-name="uni0681.init" unicode="&#x681;" horiz-adv-x="1130" 
d="M18 150c258 0 462 100 676 192v10c-205 84 -338 127 -397 127c-61 0 -112 -38 -147 -73c-8 -8 -15 -13 -19 -13c-10 0 -14 7 -14 19c0 39 20 84 59 135c43 55 90 84 143 84c29 0 77 -10 140 -33c102 -37 281 -125 422 -154c61 -12 126 -18 198 -20l-69 -137h-68
c-119 0 -164 -25 -254 -66c-45 -20 -99 -47 -162 -80c-92 -47 -178 -83 -260 -106s-159 -35 -231 -35h-39c-25 0 -37 12 -37 35v80c0 23 12 35 37 35h22zM489 879c0 74 82 153 160 153c55 0 82 -23 82 -70c0 -10 -7 -20 -13 -24c-23 18 -49 27 -82 27c-61 0 -92 -17 -94 -48
c0 -35 31 -57 58 -67c10 -4 18 -8 26 -8c51 0 101 11 148 34l-29 -81c-106 -20 -213 -43 -266 -111c-6 14 -8 25 -8 37c0 31 20 57 59 80c-27 16 -41 43 -41 78z" />
    <glyph glyph-name="uni0681.medi" unicode="&#x681;" horiz-adv-x="1136" 
d="M18 150c262 0 479 125 672 229v8c-117 31 -208 56 -276 70s-111 22 -129 22c-43 0 -78 -14 -109 -43c-16 -14 -29 -22 -37 -30s-16 -13 -18 -13c-10 0 -15 7 -15 19c0 39 19 84 58 135c43 55 90 84 145 84c111 0 232 -57 314 -82c117 -37 222 -57 374 -57h90l-61 -144
c-14 2 -33 4 -51 4c-29 0 -61 -4 -98 -10l-3 -53v-10c0 -84 70 -129 205 -129h64c10 0 16 -12 16 -35v-80c0 -23 -6 -35 -16 -35h-25c-205 0 -307 72 -307 215c0 47 2 84 8 111c-59 -25 -170 -87 -336 -187c-131 -82 -272 -139 -465 -139h-22c-25 0 -37 12 -37 35v80
c0 23 12 35 37 35h22zM514 910c0 74 82 153 160 153c55 0 82 -23 82 -70c0 -10 -7 -20 -13 -24c-23 18 -49 27 -82 27c-61 0 -92 -17 -94 -48c0 -35 31 -57 58 -67c10 -4 18 -8 26 -8c51 0 101 11 148 34l-29 -81c-106 -20 -213 -43 -266 -111c-6 14 -8 25 -8 37
c0 31 20 57 59 80c-27 16 -41 43 -41 78z" />
    <glyph glyph-name="uni0681.fina" unicode="&#x681;" horiz-adv-x="1153" 
d="M1079 0c-190 0 -297 50 -301 238c0 39 6 73 10 112c-250 -61 -577 -213 -577 -475c0 -211 174 -315 530 -315c113 0 246 25 340 43c20 4 31 4 29 6c4 0 6 -2 6 -8c0 -27 -36 -60 -112 -103c-96 -55 -205 -84 -330 -84c-369 0 -553 136 -553 406c0 260 168 448 504 573v8
c-109 16 -207 31 -316 31c-43 0 -79 -14 -110 -45s-50 -45 -54 -45c-10 0 -16 6 -16 18c0 43 20 89 59 138c43 55 93 84 146 84c90 0 174 -17 268 -33c127 -23 217 -35 270 -37l195 -2l-61 -143l-162 -9v-28c0 -10 -2 -19 -2 -27c0 -143 107 -153 254 -153h63
c10 0 17 -12 17 -35v-80c0 -23 -7 -35 -17 -35h-80zM455 869c0 74 82 153 160 153c55 0 82 -23 82 -70c0 -10 -7 -20 -13 -24c-23 18 -49 27 -82 27c-61 0 -92 -17 -94 -48c0 -35 31 -57 58 -67c10 -4 18 -8 26 -8c51 0 101 11 148 34l-29 -81c-106 -20 -213 -43 -266 -111
c-6 14 -8 25 -8 37c0 31 20 57 59 80c-27 16 -41 43 -41 78z" />
    <glyph glyph-name="uni0682.init" unicode="&#x682;" horiz-adv-x="1130" 
d="M18 150c258 0 462 100 676 192v10c-205 84 -338 127 -397 127c-61 0 -112 -38 -147 -73c-8 -8 -15 -13 -19 -13c-10 0 -14 7 -14 19c0 39 20 84 59 135c43 55 90 84 143 84c29 0 77 -10 140 -33c102 -37 281 -125 422 -154c61 -12 126 -18 198 -20l-69 -137h-68
c-119 0 -164 -25 -254 -66c-45 -20 -99 -47 -162 -80c-92 -47 -178 -83 -260 -106s-159 -35 -231 -35h-39c-25 0 -37 12 -37 35v80c0 23 12 35 37 35h22zM551 932l-102 107l100 98l103 -98zM553 707l-102 104l100 101l103 -101z" />
    <glyph glyph-name="uni0682.medi" unicode="&#x682;" horiz-adv-x="1136" 
d="M18 150c262 0 479 125 672 229v8c-117 31 -208 56 -276 70s-111 22 -129 22c-43 0 -78 -14 -109 -43c-16 -14 -29 -22 -37 -30s-16 -13 -18 -13c-10 0 -15 7 -15 19c0 39 19 84 58 135c43 55 90 84 145 84c111 0 232 -57 314 -82c117 -37 222 -57 374 -57h90l-61 -144
c-14 2 -33 4 -51 4c-29 0 -61 -4 -98 -10l-3 -53v-10c0 -84 70 -129 205 -129h64c10 0 16 -12 16 -35v-80c0 -23 -6 -35 -16 -35h-25c-205 0 -307 72 -307 215c0 47 2 84 8 111c-59 -25 -170 -87 -336 -187c-131 -82 -272 -139 -465 -139h-22c-25 0 -37 12 -37 35v80
c0 23 12 35 37 35h22zM583 938l-102 107l100 98l103 -98zM585 713l-102 104l100 101l103 -101z" />
    <glyph glyph-name="uni0682.fina" unicode="&#x682;" horiz-adv-x="1153" 
d="M1079 0c-190 0 -297 50 -301 238c0 39 6 73 10 112c-250 -61 -577 -213 -577 -475c0 -211 174 -315 530 -315c113 0 246 25 340 43c20 4 31 4 29 6c4 0 6 -2 6 -8c0 -27 -36 -60 -112 -103c-96 -55 -205 -84 -330 -84c-369 0 -553 136 -553 406c0 260 168 448 504 573v8
c-109 16 -207 31 -316 31c-43 0 -79 -14 -110 -45s-50 -45 -54 -45c-10 0 -16 6 -16 18c0 43 20 89 59 138c43 55 93 84 146 84c90 0 174 -17 268 -33c127 -23 217 -35 270 -37l195 -2l-61 -143l-162 -9v-28c0 -10 -2 -19 -2 -27c0 -143 107 -153 254 -153h63
c10 0 17 -12 17 -35v-80c0 -23 -7 -35 -17 -35h-80zM592 897l-102 107l100 98l103 -98zM594 672l-102 104l100 101l103 -101z" />
    <glyph glyph-name="uni0685.init" unicode="&#x685;" horiz-adv-x="1130" 
d="M18 150c258 0 462 100 676 192v10c-205 84 -338 127 -397 127c-61 0 -112 -38 -147 -73c-8 -8 -15 -13 -19 -13c-10 0 -14 7 -14 19c0 39 20 84 59 135c43 55 90 84 143 84c29 0 77 -10 140 -33c102 -37 281 -125 422 -154c61 -12 126 -18 198 -20l-69 -137h-68
c-119 0 -164 -25 -254 -66c-45 -20 -99 -47 -162 -80c-92 -47 -178 -83 -260 -106s-159 -35 -231 -35h-39c-25 0 -37 12 -37 35v80c0 23 12 35 37 35h22zM495 737l-104 107l104 104l105 -104zM739 737l-107 107l107 104l102 -104zM616 952l-104 107l106 106l102 -106z" />
    <glyph glyph-name="uni0685.medi" unicode="&#x685;" horiz-adv-x="1136" 
d="M18 150c262 0 479 125 672 229v8c-117 31 -208 56 -276 70s-111 22 -129 22c-43 0 -78 -14 -109 -43c-16 -14 -29 -22 -37 -30s-16 -13 -18 -13c-10 0 -15 7 -15 19c0 39 19 84 58 135c43 55 90 84 145 84c111 0 232 -57 314 -82c117 -37 222 -57 374 -57h90l-61 -144
c-14 2 -33 4 -51 4c-29 0 -61 -4 -98 -10l-3 -53v-10c0 -84 70 -129 205 -129h64c10 0 16 -12 16 -35v-80c0 -23 -6 -35 -16 -35h-25c-205 0 -307 72 -307 215c0 47 2 84 8 111c-59 -25 -170 -87 -336 -187c-131 -82 -272 -139 -465 -139h-22c-25 0 -37 12 -37 35v80
c0 23 12 35 37 35h22zM500 770l-104 107l104 104l105 -104zM744 770l-107 107l107 104l102 -104zM621 985l-104 107l106 106l102 -106z" />
    <glyph glyph-name="uni0685.fina" unicode="&#x685;" horiz-adv-x="1153" 
d="M1079 0c-190 0 -297 50 -301 238c0 39 6 73 10 112c-250 -61 -577 -213 -577 -475c0 -211 174 -315 530 -315c113 0 246 25 340 43c20 4 31 4 29 6c4 0 6 -2 6 -8c0 -27 -36 -60 -112 -103c-96 -55 -205 -84 -330 -84c-369 0 -553 136 -553 406c0 260 168 448 504 573v8
c-109 16 -207 31 -316 31c-43 0 -79 -14 -110 -45s-50 -45 -54 -45c-10 0 -16 6 -16 18c0 43 20 89 59 138c43 55 93 84 146 84c90 0 174 -17 268 -33c127 -23 217 -35 270 -37l195 -2l-61 -143l-162 -9v-28c0 -10 -2 -19 -2 -27c0 -143 107 -153 254 -153h63
c10 0 17 -12 17 -35v-80c0 -23 -7 -35 -17 -35h-80zM500 729l-104 107l104 104l105 -104zM744 729l-107 107l107 104l102 -104zM621 944l-104 107l106 106l102 -106z" />
    <glyph glyph-name="uni0689.fina" unicode="&#x689;" horiz-adv-x="954" 
d="M184 315c0 -14 -4 -25 -4 -41c0 -8 -2 -12 -2 -16c0 -72 64 -108 193 -108h8c197 0 295 36 295 112c0 10 -7 33 -19 70s-32 89 -61 155c-53 129 -80 199 -80 209l76 133c18 -59 45 -133 78 -223s71 -200 118 -327c27 -61 57 -119 123 -129h54c10 0 16 -12 16 -35v-80
c0 -23 -6 -35 -16 -35h-25c-49 0 -90 12 -123 35c-29 20 -63 63 -104 129c-20 -61 -66 -109 -127 -129c-36 -17 -87 -28 -151 -32c7 -21 11 -44 11 -67c0 -78 -45 -126 -102 -149c-20 -8 -39 -15 -62 -15c-72 0 -106 35 -106 107c0 57 13 104 43 144
c-69 29 -104 86 -104 170c0 47 6 87 18 120c12 27 25 39 37 39c14 0 20 -8 18 -24c0 -2 -2 -7 -2 -13zM316 2c-8 0 -15 1 -23 2c-39 -3 -70 -42 -70 -82c0 -41 27 -62 78 -62c43 0 75 14 98 43c0 43 -40 88 -83 99z" />
    <glyph glyph-name="uni068A.fina" unicode="&#x68a;" horiz-adv-x="954" 
d="M184 315c0 -14 -4 -25 -4 -41c0 -8 -2 -12 -2 -16c0 -72 64 -108 193 -108h8c197 0 295 36 295 112c0 10 -7 33 -19 70s-32 89 -61 155c-53 129 -80 199 -80 209l76 133c18 -59 45 -133 78 -223s71 -200 118 -327c27 -61 57 -119 123 -129h54c10 0 16 -12 16 -35v-80
c0 -23 -6 -35 -16 -35h-25c-49 0 -90 12 -123 35c-29 20 -63 63 -104 129c-20 -61 -66 -109 -127 -129c-49 -23 -126 -35 -226 -35c-164 0 -245 64 -245 193c0 47 6 87 18 120c12 27 25 39 37 39c14 0 20 -8 18 -24c0 -2 -2 -7 -2 -13zM340 -371l-107 107l107 106l100 -106z
" />
    <glyph glyph-name="uni068B.fina" unicode="&#x68b;" horiz-adv-x="954" 
d="M184 315c0 -14 -4 -25 -4 -41c0 -8 -2 -12 -2 -16c0 -72 64 -108 193 -108h8c197 0 295 36 295 112c0 10 -7 33 -19 70s-32 89 -61 155c-53 129 -80 199 -80 209l76 133c18 -59 45 -133 78 -223s71 -200 118 -327c27 -61 57 -119 123 -129h54c10 0 16 -12 16 -35v-80
c0 -23 -6 -35 -16 -35h-25c-49 0 -90 12 -123 35c-29 20 -63 63 -104 129c-20 -61 -66 -109 -127 -129c-49 -23 -126 -35 -226 -35c-164 0 -245 64 -245 193c0 47 6 87 18 120c12 27 25 39 37 39c14 0 20 -8 18 -24c0 -2 -2 -7 -2 -13zM696 1029c0 29 -40 47 -69 47
c-45 0 -78 -27 -111 -43c-12 -6 -61 -46 -61 -50c0 -6 6 -8 20 -8c147 0 221 19 221 54zM653 1125c45 0 76 -29 76 -74c0 -109 -174 -129 -309 -131c-55 0 -129 23 -129 72c0 4 0 10 4 10c2 0 6 -2 12 -8c14 -10 39 -15 74 -15c20 0 35 5 45 11v75c0 35 -2 90 -8 162l-8 105
c2 4 4 8 8 12l33 33l20 -64c4 -12 6 -18 6 -20c0 -4 -8 -4 -22 2v-21c0 -12 2 -30 2 -55c2 -18 2 -37 2 -49v-27c0 -51 0 -96 -10 -135v-2c45 43 81 74 112 92c29 18 59 27 92 27zM373 -350l-107 107l107 106l100 -106z" />
    <glyph glyph-name="uni068F.fina" unicode="&#x68f;" horiz-adv-x="954" 
d="M184 315c0 -14 -4 -25 -4 -41c0 -8 -2 -12 -2 -16c0 -72 64 -108 193 -108h8c197 0 295 36 295 112c0 10 -7 33 -19 70s-32 89 -61 155c-53 129 -80 199 -80 209l76 133c18 -59 45 -133 78 -223s71 -200 118 -327c27 -61 57 -119 123 -129h54c10 0 16 -12 16 -35v-80
c0 -23 -6 -35 -16 -35h-25c-49 0 -90 12 -123 35c-29 20 -63 63 -104 129c-20 -61 -66 -109 -127 -129c-49 -23 -126 -35 -226 -35c-164 0 -245 64 -245 193c0 47 6 87 18 120c12 27 25 39 37 39c14 0 20 -8 18 -24c0 -2 -2 -7 -2 -13zM424 1395l102 -106l-102 -105
l-107 105zM666 1395l102 -106l-102 -105l-107 105zM541 1180l102 -107l-102 -106l-105 106z" />
    <glyph glyph-name="uni0690.fina" unicode="&#x690;" horiz-adv-x="954" 
d="M184 315c0 -14 -4 -25 -4 -41c0 -8 -2 -12 -2 -16c0 -72 64 -108 193 -108h8c197 0 295 36 295 112c0 10 -7 33 -19 70s-32 89 -61 155c-53 129 -80 199 -80 209l76 133c18 -59 45 -133 78 -223s71 -200 118 -327c27 -61 57 -119 123 -129h54c10 0 16 -12 16 -35v-80
c0 -23 -6 -35 -16 -35h-25c-49 0 -90 12 -123 35c-29 20 -63 63 -104 129c-20 -61 -66 -109 -127 -129c-49 -23 -126 -35 -226 -35c-164 0 -245 64 -245 193c0 47 6 87 18 120c12 27 25 39 37 39c14 0 20 -8 18 -24c0 -2 -2 -7 -2 -13zM560 1306l-103 107l105 106l102 -106z
M441 1132l-105 107l105 104l102 -104zM682 1132l-102 107l102 104l105 -104zM564 956l-103 106l105 107l102 -107z" />
    <glyph glyph-name="uni0692.fina" unicode="&#x692;" horiz-adv-x="729" 
d="M735 0h-22c-49 0 -94 15 -131 31c4 -20 6 -43 6 -68v-18c-2 -98 -39 -203 -115 -312c-68 -102 -127 -153 -174 -153c-199 0 -299 8 -299 24c0 8 20 17 61 27c115 27 199 88 283 162c113 100 170 190 172 270c0 63 -43 135 -129 213l70 141c47 -59 90 -120 168 -149
c31 -12 53 -18 69 -18h41c10 0 17 -12 19 -35v-80c0 -23 -7 -35 -19 -35zM617 721c-72 -72 -115 -172 -148 -293l-24 -2c-20 92 -60 172 -109 233c-16 20 -33 40 -51 54l94 -7c43 -43 64 -116 78 -190c12 70 33 146 68 195z" />
    <glyph glyph-name="uni0693.fina" unicode="&#x693;" horiz-adv-x="729" 
d="M735 0h-22c-49 0 -94 15 -131 31c4 -20 6 -43 6 -68v-18c-2 -98 -39 -203 -115 -312c-63 -95 -119 -146 -164 -152c8 -21 12 -45 12 -69c0 -78 -45 -126 -102 -149c-20 -8 -39 -15 -62 -15c-72 0 -106 35 -106 107c0 50 10 93 34 130c-57 4 -85 10 -85 19
c0 8 20 17 61 27c115 27 199 88 283 162c113 100 170 190 172 270c0 63 -43 135 -129 213l70 141c47 -59 90 -120 168 -149c31 -12 53 -18 69 -18h41c10 0 17 -12 19 -35v-80c0 -23 -7 -35 -19 -35zM174 -520c-41 0 -74 -41 -74 -82s27 -62 78 -62c43 0 75 14 98 43
c0 49 -53 101 -102 101z" />
    <glyph glyph-name="uni0694.fina" unicode="&#x694;" horiz-adv-x="729" 
d="M735 0h-22c-49 0 -94 15 -131 31c4 -20 6 -43 6 -68v-18c-2 -98 -39 -203 -115 -312c-68 -102 -127 -153 -174 -153c-199 0 -299 8 -299 24c0 8 20 17 61 27c115 27 199 88 283 162c113 100 170 190 172 270c0 63 -43 135 -129 213l70 141c47 -59 90 -120 168 -149
c31 -12 53 -18 69 -18h41c10 0 17 -12 19 -35v-80c0 -23 -7 -35 -19 -35zM187 -813l-107 107l107 106l100 -106z" />
    <glyph glyph-name="uni0695.fina" unicode="&#x695;" horiz-adv-x="729" 
d="M735 0h-22c-49 0 -94 15 -131 31c4 -20 6 -43 6 -68v-18c-2 -98 -39 -203 -115 -312c-68 -102 -127 -153 -174 -153c-199 0 -299 8 -299 24c0 8 20 17 61 27c115 27 199 88 283 162c113 100 170 190 172 270c0 63 -43 135 -129 213l70 141c47 -59 90 -120 168 -149
c31 -12 53 -18 69 -18h41c10 0 17 -12 19 -35v-80c0 -23 -7 -35 -19 -35zM414 -645c-72 -72 -115 -172 -148 -293l-24 -2c-20 92 -60 172 -109 233c-16 20 -33 40 -51 54l94 -7c43 -43 64 -116 78 -190c12 70 33 146 68 195z" />
    <glyph glyph-name="uni0696.fina" unicode="&#x696;" horiz-adv-x="729" 
d="M735 0h-22c-49 0 -94 15 -131 31c4 -20 6 -43 6 -68v-18c-2 -98 -39 -203 -115 -312c-68 -102 -127 -153 -174 -153c-199 0 -299 8 -299 24c0 8 20 17 61 27c115 27 199 88 283 162c113 100 170 190 172 270c0 63 -43 135 -129 213l70 141c47 -59 90 -120 168 -149
c31 -12 53 -18 69 -18h41c10 0 17 -12 19 -35v-80c0 -23 -7 -35 -19 -35zM265 -817l-107 107l107 106l100 -106zM187 -322l-107 107l107 106l100 -106z" />
    <glyph glyph-name="uni0697.fina" unicode="&#x697;" horiz-adv-x="729" 
d="M735 0h-22c-49 0 -94 15 -131 31c4 -20 6 -43 6 -68v-18c-2 -98 -39 -203 -115 -312c-68 -102 -127 -153 -174 -153c-199 0 -299 8 -299 24c0 8 20 17 61 27c115 27 199 88 283 162c113 100 170 190 172 270c0 63 -43 135 -129 213l70 141c47 -59 90 -120 168 -149
c31 -12 53 -18 69 -18h41c10 0 17 -12 19 -35v-80c0 -23 -7 -35 -19 -35zM282 485l-102 104l100 101l103 -101zM524 485l-103 104l101 101l102 -101z" />
    <glyph glyph-name="uni0699.fina" unicode="&#x699;" horiz-adv-x="729" 
d="M735 0h-22c-49 0 -94 15 -131 31c4 -20 6 -43 6 -68v-18c-2 -98 -39 -203 -115 -312c-68 -102 -127 -153 -174 -153c-199 0 -299 8 -299 24c0 8 20 17 61 27c115 27 199 88 283 162c113 100 170 190 172 270c0 63 -43 135 -129 213l70 141c47 -59 90 -120 168 -149
c31 -12 53 -18 69 -18h41c10 0 17 -12 19 -35v-80c0 -23 -7 -35 -19 -35zM361 786l-103 107l105 106l102 -106zM242 612l-105 107l105 104l102 -104zM483 612l-102 107l102 104l105 -104zM365 436l-103 106l105 107l102 -107z" />
    <glyph glyph-name="uni069A.init" unicode="&#x69a;" horiz-adv-x="1173" 
d="M694 328c0 -100 48 -178 142 -178c51 0 90 8 129 20c31 16 47 33 47 47c0 55 -29 117 -86 180l69 152c63 -92 95 -185 95 -277c0 -166 -86 -272 -248 -272c-76 0 -133 39 -172 119c-47 -80 -115 -119 -205 -119c-82 0 -127 60 -166 119c-59 -80 -152 -119 -281 -119h-22
c-25 0 -37 12 -37 35v80c0 23 12 35 37 35h49c152 0 227 59 227 178c0 18 9 26 25 26c14 0 22 -8 22 -26c0 -119 55 -178 164 -178s164 59 164 178c0 18 9 26 25 26s24 -8 22 -26zM652 551l-107 107l107 106l100 -106zM650 -416l-107 107l107 106l100 -106z" />
    <glyph glyph-name="uni069A.medi" unicode="&#x69a;" horiz-adv-x="1236" 
d="M694 328c0 -100 48 -178 142 -178c104 0 157 57 157 172v6c0 18 9 26 25 26s24 -8 24 -26c0 -119 60 -178 179 -178h22c10 0 17 -12 17 -35v-80c0 -23 -7 -35 -17 -35h-24c-90 0 -158 39 -205 115c-41 -59 -90 -115 -172 -115c-76 0 -133 39 -172 119
c-47 -80 -115 -119 -205 -119c-82 0 -127 60 -166 119c-59 -80 -154 -119 -283 -119h-20c-25 0 -37 12 -37 35v80c0 23 12 35 37 35h49c152 0 227 59 227 178c0 18 9 26 25 26c14 0 22 -8 22 -26c0 -119 55 -178 164 -178s164 59 164 178c0 18 9 26 25 26c14 0 22 -6 22 -20
v-6zM662 534l-107 107l107 106l100 -106zM660 -420l-107 107l107 106l100 -106z" />
    <glyph glyph-name="uni069A.fina" unicode="&#x69a;" horiz-adv-x="1923" 
d="M1380 328c0 -100 48 -178 142 -178c104 0 157 59 157 178c0 18 9 26 25 26c14 0 22 -8 22 -26c0 -119 60 -178 179 -178h24c10 0 17 -12 17 -35v-80c0 -23 -7 -35 -17 -35h-24c-92 0 -160 39 -205 115c-47 -76 -106 -115 -174 -115c-76 0 -131 39 -170 119
c-45 -80 -113 -119 -205 -119c-31 0 -58 4 -78 12c2 -23 2 -55 4 -100c0 -168 -75 -291 -229 -367c-104 -51 -228 -77 -371 -77c-166 0 -289 71 -342 184c-20 43 -33 94 -33 151c0 96 21 174 54 242c31 70 59 105 82 107c14 0 22 -9 22 -23c0 0 -12 -25 -35 -76
c-23 -49 -32 -98 -32 -151c0 -184 110 -275 350 -275c109 0 202 23 288 54c121 47 183 108 183 188c0 47 -11 90 -29 131c-20 47 -60 108 -119 188l76 144c47 -90 98 -182 227 -182c109 0 162 59 162 178c0 18 9 26 27 26c16 0 24 -8 22 -26zM1340 547l-107 107l107 106
l100 -106zM1364 -436l-107 107l107 106l100 -106z" />
    <glyph glyph-name="uni069B.init" unicode="&#x69b;" horiz-adv-x="1173" 
d="M694 328c0 -100 48 -178 142 -178c51 0 90 8 129 20c31 16 47 33 47 47c0 55 -29 117 -86 180l69 152c63 -92 95 -185 95 -277c0 -166 -86 -272 -248 -272c-76 0 -133 39 -172 119c-47 -80 -115 -119 -205 -119c-82 0 -127 60 -166 119c-59 -80 -152 -119 -281 -119h-22
c-25 0 -37 12 -37 35v80c0 23 12 35 37 35h49c152 0 227 59 227 178c0 18 9 26 25 26c14 0 22 -8 22 -26c0 -119 55 -178 164 -178s164 59 164 178c0 18 9 26 25 26s24 -8 22 -26zM535 -219l102 -106l-102 -105l-107 105zM777 -219l102 -106l-102 -105l-107 105zM652 -434
l102 -107l-102 -106l-105 106z" />
    <glyph glyph-name="uni069B.medi" unicode="&#x69b;" horiz-adv-x="1236" 
d="M694 328c0 -100 48 -178 142 -178c104 0 157 57 157 172v6c0 18 9 26 25 26s24 -8 24 -26c0 -119 60 -178 179 -178h22c10 0 17 -12 17 -35v-80c0 -23 -7 -35 -17 -35h-24c-90 0 -158 39 -205 115c-41 -59 -90 -115 -172 -115c-76 0 -133 39 -172 119
c-47 -80 -115 -119 -205 -119c-82 0 -127 60 -166 119c-59 -80 -154 -119 -283 -119h-20c-25 0 -37 12 -37 35v80c0 23 12 35 37 35h49c152 0 227 59 227 178c0 18 9 26 25 26c14 0 22 -8 22 -26c0 -119 55 -178 164 -178s164 59 164 178c0 18 9 26 25 26c14 0 22 -6 22 -20
v-6zM498 -207l102 -106l-102 -105l-107 105zM740 -207l102 -106l-102 -105l-107 105zM615 -422l102 -107l-102 -106l-105 106z" />
    <glyph glyph-name="uni069B.fina" unicode="&#x69b;" horiz-adv-x="1923" 
d="M1380 328c0 -100 48 -178 142 -178c104 0 157 59 157 178c0 18 9 26 25 26c14 0 22 -8 22 -26c0 -119 60 -178 179 -178h24c10 0 17 -12 17 -35v-80c0 -23 -7 -35 -17 -35h-24c-92 0 -160 39 -205 115c-47 -76 -106 -115 -174 -115c-76 0 -131 39 -170 119
c-45 -80 -113 -119 -205 -119c-31 0 -58 4 -78 12c2 -23 2 -55 4 -100c0 -168 -75 -291 -229 -367c-104 -51 -228 -77 -371 -77c-166 0 -289 71 -342 184c-20 43 -33 94 -33 151c0 96 21 174 54 242c31 70 59 105 82 107c14 0 22 -9 22 -23c0 0 -12 -25 -35 -76
c-23 -49 -32 -98 -32 -151c0 -184 110 -275 350 -275c109 0 202 23 288 54c121 47 183 108 183 188c0 47 -11 90 -29 131c-20 47 -60 108 -119 188l76 144c47 -90 98 -182 227 -182c109 0 162 59 162 178c0 18 9 26 27 26c16 0 24 -8 22 -26zM1280 -219l102 -106l-102 -105
l-107 105zM1522 -219l102 -106l-102 -105l-107 105zM1397 -434l102 -107l-102 -106l-105 106z" />
    <glyph glyph-name="uni069C.init" unicode="&#x69c;" horiz-adv-x="1173" 
d="M694 328c0 -100 48 -178 142 -178c51 0 90 8 129 20c31 16 47 33 47 47c0 55 -29 117 -86 180l69 152c63 -92 95 -185 95 -277c0 -166 -86 -272 -248 -272c-76 0 -133 39 -172 119c-47 -80 -115 -119 -205 -119c-82 0 -127 60 -166 119c-59 -80 -152 -119 -281 -119h-22
c-25 0 -37 12 -37 35v80c0 23 12 35 37 35h49c152 0 227 59 227 178c0 18 9 26 25 26c14 0 22 -8 22 -26c0 -119 55 -178 164 -178s164 59 164 178c0 18 9 26 25 26s24 -8 22 -26zM535 -197l102 -106l-102 -105l-107 105zM777 -197l102 -106l-102 -105l-107 105zM652 -412
l102 -107l-102 -106l-105 106zM524 553l-104 107l104 104l105 -104zM768 553l-107 107l107 104l102 -104zM645 768l-104 107l106 106l102 -106z" />
    <glyph glyph-name="uni069C.medi" unicode="&#x69c;" horiz-adv-x="1236" 
d="M694 328c0 -100 48 -178 142 -178c104 0 157 57 157 172v6c0 18 9 26 25 26s24 -8 24 -26c0 -119 60 -178 179 -178h22c10 0 17 -12 17 -35v-80c0 -23 -7 -35 -17 -35h-24c-90 0 -158 39 -205 115c-41 -59 -90 -115 -172 -115c-76 0 -133 39 -172 119
c-47 -80 -115 -119 -205 -119c-82 0 -127 60 -166 119c-59 -80 -154 -119 -283 -119h-20c-25 0 -37 12 -37 35v80c0 23 12 35 37 35h49c152 0 227 59 227 178c0 18 9 26 25 26c14 0 22 -8 22 -26c0 -119 55 -178 164 -178s164 59 164 178c0 18 9 26 25 26c14 0 22 -6 22 -20
v-6zM545 -197l102 -106l-102 -105l-107 105zM787 -197l102 -106l-102 -105l-107 105zM662 -412l102 -107l-102 -106l-105 106zM541 542l-104 107l104 104l105 -104zM785 542l-107 107l107 104l102 -104zM662 757l-104 107l106 106l102 -106z" />
    <glyph glyph-name="uni069C.fina" unicode="&#x69c;" horiz-adv-x="1923" 
d="M1380 328c0 -100 48 -178 142 -178c104 0 157 59 157 178c0 18 9 26 25 26c14 0 22 -8 22 -26c0 -119 60 -178 179 -178h24c10 0 17 -12 17 -35v-80c0 -23 -7 -35 -17 -35h-24c-92 0 -160 39 -205 115c-47 -76 -106 -115 -174 -115c-76 0 -131 39 -170 119
c-45 -80 -113 -119 -205 -119c-31 0 -58 4 -78 12c2 -23 2 -55 4 -100c0 -168 -75 -291 -229 -367c-104 -51 -228 -77 -371 -77c-166 0 -289 71 -342 184c-20 43 -33 94 -33 151c0 96 21 174 54 242c31 70 59 105 82 107c14 0 22 -9 22 -23c0 0 -12 -25 -35 -76
c-23 -49 -32 -98 -32 -151c0 -184 110 -275 350 -275c109 0 202 23 288 54c121 47 183 108 183 188c0 47 -11 90 -29 131c-20 47 -60 108 -119 188l76 144c47 -90 98 -182 227 -182c109 0 162 59 162 178c0 18 9 26 27 26c16 0 24 -8 22 -26zM1258 -203l102 -106l-102 -105
l-107 105zM1500 -203l102 -106l-102 -105l-107 105zM1375 -418l102 -107l-102 -106l-105 106zM1255 565l-104 107l104 104l105 -104zM1499 565l-107 107l107 104l102 -104zM1376 780l-104 107l106 106l102 -106z" />
    <glyph glyph-name="uni069D.init" unicode="&#x69d;" horiz-adv-x="1335" 
d="M1163 285c0 76 -110 129 -192 129c-76 0 -176 -50 -301 -148c-82 -66 -123 -100 -123 -106s22 -10 65 -10c367 0 551 45 551 135zM635 0c-172 0 -281 4 -336 119c-59 -80 -152 -119 -281 -119h-22c-25 0 -37 12 -37 35v80c0 23 12 35 37 35h49c152 0 227 59 227 178
c0 18 9 26 25 26c23 0 22 -12 22 -35c0 -82 45 -153 121 -161c80 78 146 141 203 190c115 98 240 203 404 203c125 0 204 -80 204 -205c0 -260 -321 -346 -616 -346zM389 -418l-102 104l100 101l103 -101zM631 -418l-103 104l101 101l102 -101z" />
    <glyph glyph-name="uni069D.medi" unicode="&#x69d;" horiz-adv-x="1345" 
d="M1163 285c0 76 -110 129 -192 129c-76 0 -176 -50 -301 -148c-82 -66 -123 -100 -123 -106s22 -10 65 -10c367 0 551 45 551 135zM635 0c-172 0 -281 4 -336 119c-59 -80 -152 -119 -281 -119h-22c-25 0 -37 12 -37 35v80c0 23 12 35 37 35h49c152 0 227 59 227 178
c0 18 9 26 25 26c23 0 22 -12 22 -35c0 -82 45 -153 121 -161c80 78 146 141 203 190c115 98 240 203 404 203c125 0 204 -80 204 -205c0 -57 -31 -125 -90 -205c23 4 51 7 82 9h109c10 0 16 -12 16 -35v-80c0 -23 -6 -35 -16 -35h-25c-82 0 -159 6 -231 20
c-45 10 -88 17 -133 17c-37 0 -68 -11 -117 -19c-66 -12 -135 -18 -211 -18zM422 -432l-102 104l100 101l103 -101zM664 -432l-103 104l101 101l102 -101z" />
    <glyph glyph-name="uni069D.fina" unicode="&#x69d;" horiz-adv-x="1976" 
d="M1794 285c0 78 -108 129 -190 129c-76 0 -179 -50 -304 -148c-82 -66 -122 -100 -122 -106s22 -10 67 -10c367 0 549 45 549 135zM1792 141c25 4 53 9 84 9h106c10 0 17 -12 19 -35v-80c0 -23 -7 -35 -19 -35h-24c-82 0 -160 6 -232 20c-45 10 -88 17 -133 17
c-35 0 -65 -11 -114 -19c-66 -12 -135 -18 -211 -18s-142 10 -195 35c2 -29 2 -70 4 -123c0 -168 -75 -291 -229 -367c-104 -51 -228 -77 -371 -77c-166 0 -289 71 -342 184c-20 43 -33 94 -33 151c0 96 21 174 54 242c31 70 59 105 82 107c14 0 22 -9 22 -23
c0 0 -12 -25 -35 -76c-23 -49 -32 -98 -32 -151c0 -184 110 -275 350 -275c109 0 202 23 288 54c121 47 183 108 183 188c0 39 -12 86 -37 139s-62 112 -111 180l76 144c35 -57 85 -105 148 -142c133 131 243 224 331 279c74 43 154 82 256 82c100 0 162 -49 191 -121
c10 -25 16 -53 16 -84c0 -57 -31 -125 -92 -205zM1302 -416l-102 104l100 101l103 -101zM1544 -416l-103 104l101 101l102 -101z" />
    <glyph glyph-name="uni069E.init" unicode="&#x69e;" horiz-adv-x="1335" 
d="M1163 285c0 76 -110 129 -192 129c-76 0 -176 -50 -301 -148c-82 -66 -123 -100 -123 -106s22 -10 65 -10c367 0 551 45 551 135zM635 0c-172 0 -281 4 -336 119c-59 -80 -152 -119 -281 -119h-22c-25 0 -37 12 -37 35v80c0 23 12 35 37 35h49c152 0 227 59 227 178
c0 18 9 26 25 26c23 0 22 -12 22 -35c0 -82 45 -153 121 -161c80 78 146 141 203 190c115 98 240 203 404 203c125 0 204 -80 204 -205c0 -260 -321 -346 -616 -346zM387 649l-104 107l104 104l105 -104zM631 649l-107 107l107 104l102 -104zM508 864l-104 107l106 106
l102 -106z" />
    <glyph glyph-name="uni069E.medi" unicode="&#x69e;" horiz-adv-x="1345" 
d="M1163 285c0 76 -110 129 -192 129c-76 0 -176 -50 -301 -148c-82 -66 -123 -100 -123 -106s22 -10 65 -10c367 0 551 45 551 135zM635 0c-172 0 -281 4 -336 119c-59 -80 -152 -119 -281 -119h-22c-25 0 -37 12 -37 35v80c0 23 12 35 37 35h49c152 0 227 59 227 178
c0 18 9 26 25 26c23 0 22 -12 22 -35c0 -82 45 -153 121 -161c80 78 146 141 203 190c115 98 240 203 404 203c125 0 204 -80 204 -205c0 -57 -31 -125 -90 -205c23 4 51 7 82 9h109c10 0 16 -12 16 -35v-80c0 -23 -6 -35 -16 -35h-25c-82 0 -159 6 -231 20
c-45 10 -88 17 -133 17c-37 0 -68 -11 -117 -19c-66 -12 -135 -18 -211 -18zM389 657l-104 107l104 104l105 -104zM633 657l-107 107l107 104l102 -104zM510 872l-104 107l106 106l102 -106z" />
    <glyph glyph-name="uni069E.fina" unicode="&#x69e;" horiz-adv-x="1976" 
d="M1794 285c0 78 -108 129 -190 129c-76 0 -179 -50 -304 -148c-82 -66 -122 -100 -122 -106s22 -10 67 -10c367 0 549 45 549 135zM1792 141c25 4 53 9 84 9h106c10 0 17 -12 19 -35v-80c0 -23 -7 -35 -19 -35h-24c-82 0 -160 6 -232 20c-45 10 -88 17 -133 17
c-35 0 -65 -11 -114 -19c-66 -12 -135 -18 -211 -18s-142 10 -195 35c2 -29 2 -70 4 -123c0 -168 -75 -291 -229 -367c-104 -51 -228 -77 -371 -77c-166 0 -289 71 -342 184c-20 43 -33 94 -33 151c0 96 21 174 54 242c31 70 59 105 82 107c14 0 22 -9 22 -23
c0 0 -12 -25 -35 -76c-23 -49 -32 -98 -32 -151c0 -184 110 -275 350 -275c109 0 202 23 288 54c121 47 183 108 183 188c0 39 -12 86 -37 139s-62 112 -111 180l76 144c35 -57 85 -105 148 -142c133 131 243 224 331 279c74 43 154 82 256 82c100 0 162 -49 191 -121
c10 -25 16 -53 16 -84c0 -57 -31 -125 -92 -205zM1071 635l-104 107l104 104l105 -104zM1315 635l-107 107l107 104l102 -104zM1192 850l-104 107l106 106l102 -106z" />
    <glyph glyph-name="uni069F.medi" unicode="&#x69f;" horiz-adv-x="1398" 
d="M1217 285c0 78 -109 129 -193 129c-137 0 -305 -113 -397 -185c-53 -41 -80 -65 -80 -71c0 -14 20 -23 59 -23c408 0 611 50 611 150zM1214 141c25 4 53 9 82 9h109c10 0 16 -12 16 -35v-80c0 -23 -6 -35 -16 -35h-25c-82 0 -157 6 -229 20c-53 10 -94 17 -125 17h-10
l-215 -27c-133 -14 -242 -22 -328 -22h-20c-119 0 -213 27 -283 78c-51 37 -78 79 -78 124c0 12 0 19 10 21c6 0 21 -9 41 -23c35 -27 103 -39 199 -41c53 0 96 11 127 29c2 23 2 49 2 84s2 76 2 125c0 193 -27 482 -43 668c-4 47 -4 71 -6 73c2 8 8 19 20 31l93 88l59 -174
c8 -20 16 -41 16 -57c0 -4 -4 -6 -10 -6c-10 0 -26 4 -51 14c0 -4 2 -24 2 -59c0 -57 8 -220 8 -283v-78c0 -139 -6 -265 -31 -371l5 -4c63 61 121 113 172 154c106 86 233 170 393 170c100 0 161 -49 190 -121c10 -25 17 -53 17 -84c0 -57 -32 -125 -93 -205zM817 782
l-104 107l104 104l105 -104zM1061 782l-107 107l107 104l102 -104zM938 997l-104 107l106 106l102 -106z" />
    <glyph glyph-name="uni06A0.init" unicode="&#x6a0;" horiz-adv-x="825" 
d="M451 549c-90 0 -228 -51 -228 -131c0 -41 31 -86 90 -133c55 -45 105 -68 144 -68c59 0 163 27 317 80l-51 -139c-309 -104 -545 -158 -705 -158h-22c-25 0 -37 12 -37 35v80c0 23 12 35 37 35h22c68 0 131 6 209 16v10c-72 43 -108 102 -108 180c0 72 32 143 98 215
c70 80 150 121 240 121c86 0 215 -96 215 -182c0 -2 -2 -4 -4 -4l-76 20c-49 14 -96 23 -141 23zM272 821l-104 107l104 104l105 -104zM516 821l-107 107l107 104l102 -104zM393 1036l-104 107l106 106l102 -106z" />
    <glyph glyph-name="uni06A0.medi" unicode="&#x6a0;" horiz-adv-x="718" 
d="M473 217c0 -29 140 -67 189 -67h63c10 0 16 -12 16 -35v-80c0 -23 -6 -35 -16 -35h-25c-125 0 -229 41 -313 123c-92 -82 -215 -123 -369 -123h-22c-25 0 -37 12 -37 35v80c0 23 12 35 37 35h22c61 0 295 24 295 71c0 27 -38 68 -116 123c-12 6 -23 12 -39 16
c0 115 102 170 221 170c141 -2 213 -45 213 -133c0 -25 -21 -59 -60 -104s-59 -70 -59 -76zM233 684l-104 107l104 104l105 -104zM477 684l-107 107l107 104l102 -104zM354 899l-104 107l106 106l102 -106z" />
    <glyph glyph-name="uni06A0.fina" unicode="&#x6a0;" horiz-adv-x="1083" 
d="M600 -586c-297 0 -498 123 -498 408c0 158 83 321 349 471c0 18 -60 70 -136 121c-6 4 -12 6 -20 8v8c0 104 104 152 219 152c164 0 246 -43 246 -131c0 -47 -47 -104 -139 -172c100 -86 241 -129 423 -129h46c10 0 16 -12 18 -35v-80c0 -23 -6 -35 -18 -35h-23
c-197 0 -330 39 -436 127c-35 29 -72 63 -111 104c-219 -102 -327 -223 -327 -358c0 -233 217 -313 475 -313c94 0 178 6 258 22c74 16 108 25 108 25c4 0 6 -2 8 -6c0 -27 -38 -62 -114 -107c-94 -53 -203 -80 -328 -80zM391 735l-104 107l104 104l105 -104zM635 735
l-107 107l107 104l102 -104zM512 950l-104 107l106 106l102 -106z" />
    <glyph glyph-name="afii57459" unicode="&#x6a1;" horiz-adv-x="587" 
d="M293 655c-57 0 -103 -43 -103 -100c0 -59 46 -88 134 -88c57 0 100 6 129 20c-4 37 -23 74 -54 111c-31 39 -65 57 -106 57zM311 805c186 0 242 -258 242 -471c0 -121 -41 -207 -123 -258s-219 -76 -412 -76h-22c-25 0 -37 12 -37 35v80c0 23 12 35 37 35h110
c256 0 383 45 383 139c0 25 -4 43 -10 53c-27 -16 -82 -25 -162 -25h-18c-125 0 -186 48 -186 144c0 84 16 144 45 207c39 92 90 137 153 137z" />
    <glyph glyph-name="afii57374" unicode="&#x6a1;" horiz-adv-x="722" 
d="M393 502c-63 0 -155 -76 -155 -154c0 -31 20 -59 63 -90c39 -31 71 -45 98 -45s52 21 70 37c39 29 59 57 59 86c0 63 -74 162 -135 166zM514 178c39 -27 117 -28 191 -28h24c10 0 16 -12 16 -35v-80c0 -23 -6 -35 -16 -35h-24c-133 0 -232 33 -318 86
c-111 -55 -207 -86 -369 -86h-22c-25 0 -37 12 -37 35v80c0 23 12 35 37 35h22c121 0 199 8 234 22c-51 51 -76 98 -76 145c0 100 27 171 74 232c51 68 105 102 164 102c111 0 178 -155 178 -280c0 -68 -27 -132 -78 -193z" />
    <glyph glyph-name="afii52258" unicode="&#x6a1;" horiz-adv-x="1511" 
d="M1182 502c-66 0 -156 -86 -156 -154c0 -31 21 -59 64 -90c39 -31 71 -45 98 -45c25 0 49 21 69 37c39 29 60 57 60 86c0 70 -72 162 -135 166zM1303 178c35 -25 86 -28 149 -28h66c10 0 16 -12 16 -35v-80c0 -23 -6 -35 -16 -35h-25c-135 0 -231 33 -317 88
c-145 -68 -344 -100 -594 -100h-15c-303 0 -454 94 -454 280c0 61 11 115 34 158c20 47 40 72 54 72c18 0 26 -9 26 -25c0 -14 -10 -27 -18 -47c-12 -29 -19 -57 -19 -84c0 -137 140 -205 416 -207c190 0 334 14 434 41c-51 47 -75 94 -75 141c0 94 28 173 73 232
c51 68 105 102 164 102c109 0 178 -153 178 -280c0 -82 -34 -142 -77 -193z" />
    <glyph glyph-name="uni06A2.init" unicode="&#x6a2;" horiz-adv-x="587" 
d="M293 655c-57 0 -103 -43 -103 -100c0 -59 46 -88 134 -88c57 0 100 6 129 20c-4 37 -23 74 -54 111c-31 39 -65 57 -106 57zM311 805c186 0 242 -258 242 -471c0 -121 -41 -207 -123 -258s-219 -76 -412 -76h-22c-25 0 -37 12 -37 35v80c0 23 12 35 37 35h110
c256 0 383 45 383 139c0 25 -4 43 -10 53c-27 -16 -82 -25 -162 -25h-18c-125 0 -186 48 -186 144c0 84 16 144 45 207c39 92 90 137 153 137zM334 -383l-107 107l107 106l100 -106z" />
    <glyph glyph-name="uni06A2.medi" unicode="&#x6a2;" horiz-adv-x="722" 
d="M393 502c-63 0 -155 -76 -155 -154c0 -31 20 -59 63 -90c39 -31 71 -45 98 -45s52 21 70 37c39 29 59 57 59 86c0 63 -74 162 -135 166zM514 178c39 -27 117 -28 191 -28h24c10 0 16 -12 16 -35v-80c0 -23 -6 -35 -16 -35h-24c-133 0 -232 33 -318 86
c-111 -55 -207 -86 -369 -86h-22c-25 0 -37 12 -37 35v80c0 23 12 35 37 35h22c121 0 199 8 234 22c-51 51 -76 98 -76 145c0 100 27 171 74 232c51 68 105 102 164 102c111 0 178 -155 178 -280c0 -68 -27 -132 -78 -193zM381 -385l-107 107l107 106l100 -106z" />
    <glyph glyph-name="uni06A2.fina" unicode="&#x6a2;" horiz-adv-x="1511" 
d="M1182 502c-66 0 -156 -86 -156 -154c0 -31 21 -59 64 -90c39 -31 71 -45 98 -45c25 0 49 21 69 37c39 29 60 57 60 86c0 70 -72 162 -135 166zM1303 178c35 -25 86 -28 149 -28h66c10 0 16 -12 16 -35v-80c0 -23 -6 -35 -16 -35h-25c-135 0 -231 33 -317 88
c-145 -68 -344 -100 -594 -100h-15c-303 0 -454 94 -454 280c0 61 11 115 34 158c20 47 40 72 54 72c18 0 26 -9 26 -25c0 -14 -10 -27 -18 -47c-12 -29 -19 -57 -19 -84c0 -137 140 -205 416 -207c190 0 334 14 434 41c-51 47 -75 94 -75 141c0 94 28 173 73 232
c51 68 105 102 164 102c109 0 178 -153 178 -280c0 -82 -34 -142 -77 -193zM1117 -346l-107 107l107 106l100 -106z" />
    <glyph glyph-name="uni06A3.init" unicode="&#x6a3;" horiz-adv-x="587" 
d="M293 655c-57 0 -103 -43 -103 -100c0 -59 46 -88 134 -88c57 0 100 6 129 20c-4 37 -23 74 -54 111c-31 39 -65 57 -106 57zM311 805c186 0 242 -258 242 -471c0 -121 -41 -207 -123 -258s-219 -76 -412 -76h-22c-25 0 -37 12 -37 35v80c0 23 12 35 37 35h110
c256 0 383 45 383 139c0 25 -4 43 -10 53c-27 -16 -82 -25 -162 -25h-18c-125 0 -186 48 -186 144c0 84 16 144 45 207c39 92 90 137 153 137zM291 944l-107 107l107 106l100 -106zM254 -391l-107 107l107 106l100 -106z" />
    <glyph glyph-name="uni06A3.medi" unicode="&#x6a3;" horiz-adv-x="722" 
d="M393 502c-63 0 -155 -76 -155 -154c0 -31 20 -59 63 -90c39 -31 71 -45 98 -45s52 21 70 37c39 29 59 57 59 86c0 63 -74 162 -135 166zM514 178c39 -27 117 -28 191 -28h24c10 0 16 -12 16 -35v-80c0 -23 -6 -35 -16 -35h-24c-133 0 -232 33 -318 86
c-111 -55 -207 -86 -369 -86h-22c-25 0 -37 12 -37 35v80c0 23 12 35 37 35h22c121 0 199 8 234 22c-51 51 -76 98 -76 145c0 100 27 171 74 232c51 68 105 102 164 102c111 0 178 -155 178 -280c0 -68 -27 -132 -78 -193zM396 799l-107 107l107 106l100 -106zM351 -371
l-107 107l107 106l100 -106z" />
    <glyph glyph-name="uni06A3.fina" unicode="&#x6a3;" horiz-adv-x="1511" 
d="M1182 502c-66 0 -156 -86 -156 -154c0 -31 21 -59 64 -90c39 -31 71 -45 98 -45c25 0 49 21 69 37c39 29 60 57 60 86c0 70 -72 162 -135 166zM1303 178c35 -25 86 -28 149 -28h66c10 0 16 -12 16 -35v-80c0 -23 -6 -35 -16 -35h-25c-135 0 -231 33 -317 88
c-145 -68 -344 -100 -594 -100h-15c-303 0 -454 94 -454 280c0 61 11 115 34 158c20 47 40 72 54 72c18 0 26 -9 26 -25c0 -14 -10 -27 -18 -47c-12 -29 -19 -57 -19 -84c0 -137 140 -205 416 -207c190 0 334 14 434 41c-51 47 -75 94 -75 141c0 94 28 173 73 232
c51 68 105 102 164 102c109 0 178 -153 178 -280c0 -82 -34 -142 -77 -193zM1168 782l-107 107l107 106l100 -106zM1182 -395l-107 107l107 106l100 -106z" />
    <glyph glyph-name="uni06A5.init" unicode="&#x6a5;" horiz-adv-x="587" 
d="M293 655c-57 0 -103 -43 -103 -100c0 -59 46 -88 134 -88c57 0 100 6 129 20c-4 37 -23 74 -54 111c-31 39 -65 57 -106 57zM311 805c186 0 242 -258 242 -471c0 -121 -41 -207 -123 -258s-219 -76 -412 -76h-22c-25 0 -37 12 -37 35v80c0 23 12 35 37 35h110
c256 0 383 45 383 139c0 25 -4 43 -10 53c-27 -16 -82 -25 -162 -25h-18c-125 0 -186 48 -186 144c0 84 16 144 45 207c39 92 90 137 153 137zM111 -209l102 -106l-102 -105l-107 105zM353 -209l102 -106l-102 -105l-107 105zM228 -424l102 -107l-102 -106l-105 106z" />
    <glyph glyph-name="uni06A5.medi" unicode="&#x6a5;" horiz-adv-x="722" 
d="M393 502c-63 0 -155 -76 -155 -154c0 -31 20 -59 63 -90c39 -31 71 -45 98 -45s52 21 70 37c39 29 59 57 59 86c0 63 -74 162 -135 166zM514 178c39 -27 117 -28 191 -28h24c10 0 16 -12 16 -35v-80c0 -23 -6 -35 -16 -35h-24c-133 0 -232 33 -318 86
c-111 -55 -207 -86 -369 -86h-22c-25 0 -37 12 -37 35v80c0 23 12 35 37 35h22c121 0 199 8 234 22c-51 51 -76 98 -76 145c0 100 27 171 74 232c51 68 105 102 164 102c111 0 178 -155 178 -280c0 -68 -27 -132 -78 -193zM229 -207l102 -106l-102 -105l-107 105zM471 -207
l102 -106l-102 -105l-107 105zM346 -422l102 -107l-102 -106l-105 106z" />
    <glyph glyph-name="uni06A5.fina" unicode="&#x6a5;" horiz-adv-x="1511" 
d="M1182 502c-66 0 -156 -86 -156 -154c0 -31 21 -59 64 -90c39 -31 71 -45 98 -45c25 0 49 21 69 37c39 29 60 57 60 86c0 70 -72 162 -135 166zM1303 178c35 -25 86 -28 149 -28h66c10 0 16 -12 16 -35v-80c0 -23 -6 -35 -16 -35h-25c-135 0 -231 33 -317 88
c-145 -68 -344 -100 -594 -100h-15c-303 0 -454 94 -454 280c0 61 11 115 34 158c20 47 40 72 54 72c18 0 26 -9 26 -25c0 -14 -10 -27 -18 -47c-12 -29 -19 -57 -19 -84c0 -137 140 -205 416 -207c190 0 334 14 434 41c-51 47 -75 94 -75 141c0 94 28 173 73 232
c51 68 105 102 164 102c109 0 178 -153 178 -280c0 -82 -34 -142 -77 -193zM995 -170l102 -106l-102 -105l-107 105zM1237 -170l102 -106l-102 -105l-107 105zM1112 -385l102 -107l-102 -106l-105 106z" />
    <glyph glyph-name="uni06A7.fina" unicode="&#x6a7;" horiz-adv-x="1288" 
d="M762 240c0 -78 63 -90 153 -90c55 0 94 4 117 10c-12 72 -86 186 -158 186h-4c-57 0 -108 -49 -108 -106zM885 496c145 0 219 -196 239 -346h170c10 0 17 -12 19 -35v-80c0 -23 -7 -35 -19 -35h-22l-146 2c2 -12 4 -27 4 -45v-61c0 -121 -47 -219 -143 -295
c-119 -94 -293 -133 -510 -133c-166 0 -289 71 -342 184c-20 43 -33 94 -33 151c0 96 21 174 54 242c31 70 59 105 82 107c14 0 22 -9 22 -23c0 0 -12 -25 -35 -76c-23 -49 -32 -98 -32 -151c0 -184 110 -275 350 -275c145 0 264 29 366 74c104 49 158 101 158 156
c0 61 -6 112 -18 153c-53 -6 -107 -10 -177 -10c-127 0 -190 47 -190 141c0 135 51 267 125 326c23 18 49 29 78 29zM858 649l-107 107l107 106l100 -106z" />
    <glyph glyph-name="uni06A8.fina" unicode="&#x6a8;" horiz-adv-x="1288" 
d="M762 240c0 -78 63 -90 153 -90c55 0 94 4 117 10c-12 72 -86 186 -158 186h-4c-57 0 -108 -49 -108 -106zM885 496c145 0 219 -196 239 -346h170c10 0 17 -12 19 -35v-80c0 -23 -7 -35 -19 -35h-22l-146 2c2 -12 4 -27 4 -45v-61c0 -121 -47 -219 -143 -295
c-119 -94 -293 -133 -510 -133c-166 0 -289 71 -342 184c-20 43 -33 94 -33 151c0 96 21 174 54 242c31 70 59 105 82 107c14 0 22 -9 22 -23c0 0 -12 -25 -35 -76c-23 -49 -32 -98 -32 -151c0 -184 110 -275 350 -275c145 0 264 29 366 74c104 49 158 101 158 156
c0 61 -6 112 -18 153c-53 -6 -107 -10 -177 -10c-127 0 -190 47 -190 141c0 135 51 267 125 326c23 18 49 29 78 29zM751 626l-104 107l104 104l105 -104zM995 626l-107 107l107 104l102 -104zM872 841l-104 107l106 106l102 -106z" />
    <glyph glyph-name="uni06AA.init" unicode="&#x6aa;" horiz-adv-x="1783" 
d="M-41 80c0 31 13 50 31 70h6c674 10 1220 38 1642 81c-8 115 -67 195 -188 195c-154 0 -327 -17 -487 -25c-132 -7 -282 -16 -418 -16c-102 0 -184 4 -262 16c-51 6 -109 25 -109 78c0 33 11 66 31 99c98 158 293 256 463 342c74 37 151 69 225 96c39 14 45 22 72 22h6
c2 0 2 -2 2 -6c0 -14 -13 -49 -17 -61c-6 -20 -14 -49 -20 -84c-182 -61 -370 -144 -526 -232c-41 -25 -105 -49 -113 -90c10 -41 105 -53 166 -55c39 -2 80 -4 127 -4c12 0 25 2 37 2c297 0 585 41 874 41c55 -4 100 -17 135 -37c59 -35 103 -80 103 -168
c0 -45 -11 -84 -31 -127l-70 -131c-455 -39 -1003 -68 -1648 -86l-21 41c-6 12 -10 25 -10 39z" />
    <glyph glyph-name="uni06AA.medi" unicode="&#x6aa;" horiz-adv-x="1994" 
d="M297 565c12 -53 133 -57 227 -57c334 0 658 41 977 41c55 -4 100 -17 135 -37c59 -35 103 -80 103 -168c0 -45 -11 -84 -31 -127v-10c0 -49 69 -60 137 -60c16 0 33 3 51 3h115c10 -27 21 -45 21 -76c0 -33 -11 -45 -21 -74h-242c-74 0 -125 23 -131 86
c-455 -39 -1003 -68 -1648 -86l-21 41c-6 12 -10 25 -10 39c0 31 13 50 31 70h6c674 10 1220 38 1642 81c-8 115 -67 195 -188 195c-274 0 -581 -45 -870 -45c-102 0 -201 6 -297 20c-51 6 -109 25 -109 78c0 33 11 66 31 99c98 158 293 256 463 342c74 37 151 69 225 96
c39 14 45 22 72 22h6c2 0 2 -2 2 -6c0 -14 -13 -49 -17 -61c-6 -20 -14 -49 -20 -84c-182 -61 -370 -144 -526 -232c-41 -25 -105 -49 -113 -90z" />
    <glyph glyph-name="uni06AA.fina" unicode="&#x6aa;" horiz-adv-x="2545" 
d="M184 510c14 0 27 -9 27 -25c0 -12 -12 -33 -18 -45c-10 -25 -21 -51 -21 -88c0 -113 92 -155 188 -180c47 -12 111 -22 183 -22c674 10 1220 38 1644 81c-8 115 -67 195 -188 195c-276 0 -582 -45 -871 -45c-100 0 -201 6 -297 20c-51 6 -108 25 -108 78
c0 33 11 66 31 99c98 158 293 256 463 342c74 37 151 69 225 96c39 14 44 22 71 22h7c2 0 2 -2 2 -6c0 -14 -13 -49 -17 -61c-6 -20 -14 -49 -20 -84c-182 -61 -375 -144 -531 -232c-33 -18 -57 -33 -77 -49s-31 -31 -31 -41c10 -41 105 -53 166 -55c49 -2 100 -4 149 -4
c299 0 596 43 889 43c55 -4 100 -17 135 -37c59 -35 103 -80 103 -168c0 -45 -11 -84 -31 -127v-10c0 -49 69 -60 137 -60c51 0 111 3 166 3c10 -27 20 -45 20 -76c0 -33 -10 -45 -20 -74h-242c-74 0 -125 23 -131 86c-449 -39 -1005 -86 -1636 -86c-256 0 -457 52 -457 281
c0 57 17 118 37 157c12 23 29 72 53 72z" />
    <glyph glyph-name="uni06AC12.init" unicode="&#x6ab;" horiz-adv-x="786" 
d="M483 299c0 -256 -198 -299 -454 -299h-33c-12 0 -19 12 -19 35v80c0 23 7 35 19 35h22c133 0 233 11 301 34s103 62 103 115c0 25 -9 51 -25 82c-52 98 -127 188 -209 252l-10 -29l-39 39c-27 27 -55 59 -73 92c-8 14 -13 29 -13 41c0 72 14 152 49 187
c10 10 19 18 29 20l703 262l-48 -149l-645 -236c2 -8 15 -21 33 -37c80 -72 164 -156 225 -254c45 -70 84 -161 84 -270zM306 1153l-107 107l107 106l100 -106z" />
    <glyph glyph-name="uni06AC1.medi" unicode="&#x6ab;" horiz-adv-x="927" 
d="M489 299c-8 -258 -201 -299 -471 -299h-22c-12 0 -19 12 -19 35v80c0 23 7 35 19 35h22c143 0 293 5 371 71c25 20 37 45 37 78c0 27 -11 57 -29 90c-41 72 -96 138 -155 197c-33 33 -63 59 -90 86l-70 69c-18 18 -27 33 -27 43c0 76 13 174 66 197l717 264l-47 -149
l-65 -24c31 -29 48 -75 48 -124c0 -78 -45 -126 -102 -149c-20 -8 -39 -15 -62 -15c-72 0 -106 35 -106 107c0 40 7 76 21 108l-380 -139c10 -10 17 -21 35 -41c12 -14 30 -32 53 -57s52 -62 91 -105c115 -127 223 -249 358 -399c29 -29 55 -58 92 -78s89 -30 146 -30h14
c10 0 16 -12 16 -35v-80c0 -23 -6 -35 -16 -35h-25c-92 0 -143 22 -200 63c-84 61 -144 142 -220 236zM627 1016c-41 0 -74 -41 -74 -82s27 -62 78 -62c43 0 75 14 98 43c0 49 -53 101 -102 101z" />
    <glyph glyph-name="uni06AC1.fina" unicode="&#x6ab;" horiz-adv-x="1468" 
d="M692 901c43 0 72 -45 72 -88c0 -6 -4 -8 -10 -6c-16 6 -34 10 -52 10c-43 0 -74 -18 -92 -43c-6 -8 -8 -14 -8 -20c0 -14 18 -23 57 -23h76c57 0 90 -29 90 -84c0 -80 -51 -132 -108 -155c-20 -8 -40 -11 -58 -11c-63 0 -100 23 -147 54c-2 2 -4 4 -4 6s4 4 8 4
c86 6 181 14 238 47c14 8 20 16 20 24c0 14 -14 21 -43 21h-80c-59 0 -98 17 -98 76c0 82 69 188 137 188h2zM1202 133c-123 -128 -360 -145 -635 -145c-303 0 -454 94 -454 280c0 61 11 115 34 158c20 47 40 72 54 72c18 0 26 -9 26 -25c0 -14 -10 -27 -18 -47
c-12 -31 -19 -57 -19 -84c0 -137 140 -205 416 -207c162 0 303 14 432 51c63 20 131 41 131 125v8l-20 824l96 102l21 -956c0 -88 80 -139 176 -139h33c10 0 16 -12 16 -35v-80c0 -23 -6 -35 -16 -35h-25c-125 0 -205 47 -248 133zM678 1024l-107 107l107 106l100 -106z" />
    <glyph glyph-name="uni06AE.init" unicode="&#x6ae;" horiz-adv-x="786" 
d="M483 299c0 -256 -198 -299 -454 -299h-33c-12 0 -19 12 -19 35v80c0 23 7 35 19 35h22c133 0 233 11 301 34s103 62 103 115c0 25 -9 51 -25 82c-52 98 -127 188 -209 252l-10 -29l-39 39c-27 27 -55 59 -73 92c-8 14 -13 29 -13 41c0 72 14 152 49 187
c10 10 19 18 29 20l703 262l-48 -149l-645 -236c2 -8 15 -21 33 -37c80 -72 164 -156 225 -254c45 -70 84 -161 84 -270zM193 -190l102 -106l-102 -105l-107 105zM435 -190l102 -106l-102 -105l-107 105zM310 -405l102 -107l-102 -106l-105 106z" />
    <glyph glyph-name="uni06AE.medi" unicode="&#x6ae;" horiz-adv-x="927" 
d="M489 299c-8 -258 -201 -299 -471 -299h-22c-12 0 -19 12 -19 35v80c0 23 7 35 19 35h22c143 0 293 5 371 71c25 20 37 45 37 78c0 27 -11 57 -29 90c-41 72 -96 138 -155 197c-33 33 -63 59 -90 86l-70 69c-18 18 -27 33 -27 43c0 76 13 174 66 197l717 264l-47 -149
l-646 -236c10 -10 17 -21 35 -41c12 -14 30 -32 53 -57s52 -62 91 -105c115 -127 223 -249 358 -399c29 -29 55 -58 92 -78s89 -30 146 -30h14c10 0 16 -12 16 -35v-80c0 -23 -6 -35 -16 -35h-25c-92 0 -143 22 -200 63c-84 61 -144 142 -220 236zM350 -143l102 -106
l-102 -105l-107 105zM592 -143l102 -106l-102 -105l-107 105zM467 -358l102 -107l-102 -106l-105 106z" />
    <glyph glyph-name="uni06AE.fina" unicode="&#x6ae;" horiz-adv-x="1468" 
d="M692 901c43 0 72 -45 72 -88c0 -6 -4 -8 -10 -6c-16 6 -34 10 -52 10c-43 0 -74 -18 -92 -43c-6 -8 -8 -14 -8 -20c0 -14 18 -23 57 -23h76c57 0 90 -29 90 -84c0 -80 -51 -132 -108 -155c-20 -8 -40 -11 -58 -11c-63 0 -100 23 -147 54c-2 2 -4 4 -4 6s4 4 8 4
c86 6 181 14 238 47c14 8 20 16 20 24c0 14 -14 21 -43 21h-80c-59 0 -98 17 -98 76c0 82 69 188 137 188h2zM1202 133c-123 -128 -360 -145 -635 -145c-303 0 -454 94 -454 280c0 61 11 115 34 158c20 47 40 72 54 72c18 0 26 -9 26 -25c0 -14 -10 -27 -18 -47
c-12 -31 -19 -57 -19 -84c0 -137 140 -205 416 -207c162 0 303 14 432 51c63 20 131 41 131 125v8l-20 824l96 102l21 -956c0 -88 80 -139 176 -139h33c10 0 16 -12 16 -35v-80c0 -23 -6 -35 -16 -35h-25c-125 0 -205 47 -248 133zM522 -180l102 -106l-102 -105l-107 105z
M764 -180l102 -106l-102 -105l-107 105zM639 -395l102 -107l-102 -106l-105 106z" />
    <glyph glyph-name="uni06B0.init" unicode="&#x6b0;" horiz-adv-x="806" 
d="M489 299c0 -260 -207 -299 -471 -299h-22c-12 0 -19 12 -19 35v80c0 23 7 35 19 35h22c143 0 293 5 371 71c25 20 37 45 37 78c0 68 -55 121 -90 160c-16 18 -37 37 -53 53c-29 29 -57 55 -86 78l-7 -31l-43 43c-23 23 -59 68 -73 86c-6 8 -11 17 -11 25
c0 20 15 53 23 71c10 23 21 54 37 64c4 2 8 2 16 4c28 7 53 19 88 31l125 41c158 49 304 98 492 153l-49 -139c-36 -10 -74 -20 -111 -31c32 -29 49 -75 49 -125c0 -78 -45 -126 -102 -149c-20 -8 -39 -15 -62 -15c-72 0 -106 35 -106 107c0 45 8 85 27 119l-13 -4
c-66 -23 -137 -43 -198 -66c-29 -10 -54 -20 -74 -26c98 -86 207 -185 260 -310c16 -39 24 -86 24 -139zM782 1178c-217 -61 -444 -139 -649 -217l37 106l645 215zM586 850c-41 0 -74 -41 -74 -82s27 -62 78 -62c43 0 75 14 98 43c0 49 -53 101 -102 101z" />
    <glyph glyph-name="uni06B0.medi" unicode="&#x6b0;" horiz-adv-x="927" 
d="M489 299c-8 -256 -203 -299 -471 -299h-22c-12 0 -19 12 -19 35v80c0 23 7 35 19 35h22c143 0 293 5 371 71c25 20 37 45 37 78c0 37 -23 77 -43 104c-72 92 -160 176 -244 252c-20 18 -35 33 -47 47s-18 25 -18 33c0 17 11 44 16 60c6 18 21 45 33 53c4 2 8 2 16 4
c28 7 53 19 88 31l125 41c158 49 304 98 492 153l-49 -139c-26 -7 -53 -14 -80 -22c18 -28 28 -64 28 -101c0 -78 -45 -126 -102 -149c-20 -8 -39 -15 -62 -15c-72 0 -106 35 -106 107c0 31 4 59 12 85l-8 -3c-66 -23 -137 -43 -198 -66c-29 -10 -54 -20 -74 -26
c43 -39 86 -76 127 -121c53 -57 105 -107 160 -170l190 -203c55 -63 127 -104 242 -104h10c10 0 16 -12 16 -35v-80c0 -23 -6 -35 -16 -35h-25c-147 0 -210 63 -288 145c-37 39 -81 91 -132 154zM782 1178c-217 -61 -444 -139 -649 -217l37 106l645 215zM604 882
c-5 -1 -11 -3 -16 -5l-37 -12c-18 -16 -29 -40 -29 -64c0 -41 27 -62 78 -62c43 0 75 14 98 43c0 46 -47 95 -94 100z" />
    <glyph glyph-name="uni06B0.fina" unicode="&#x6b0;" horiz-adv-x="1746" 
d="M567 -12c-254 0 -454 51 -454 280c0 82 25 166 63 211c10 12 19 19 25 19c18 0 26 -9 26 -25c0 -12 -12 -33 -18 -45c-8 -23 -19 -53 -19 -86c0 -121 107 -165 213 -190c53 -12 121 -17 203 -17c129 0 234 4 318 10s147 17 194 31c70 20 127 49 127 123
c0 39 -25 77 -45 104c-72 92 -158 176 -242 252c-20 18 -37 33 -49 47s-18 25 -18 33c0 27 21 69 29 92c4 10 6 15 8 17c2 0 4 2 6 4s8 2 16 4c28 7 53 19 88 31l125 41c156 47 304 98 490 153l-47 -139c-29 -8 -59 -16 -89 -25c22 -29 33 -68 33 -108
c0 -78 -45 -126 -102 -149c-20 -8 -39 -15 -62 -15c-72 0 -106 35 -106 107c0 35 5 66 16 95c-97 -33 -192 -66 -280 -95c74 -61 139 -131 209 -201c27 -27 55 -57 86 -90l188 -203c57 -63 125 -104 244 -104h10c10 0 17 -12 19 -35v-80c0 -23 -7 -35 -19 -35h-22
c-147 0 -213 61 -293 145c-37 39 -78 91 -129 154c-4 -90 -17 -148 -64 -195c-86 -86 -223 -102 -395 -112c-76 -4 -170 -4 -283 -4zM1593 1178c-217 -61 -444 -139 -649 -217l37 106l645 215zM1403 873c-41 0 -74 -41 -74 -82s27 -62 78 -62c43 0 75 14 98 43
c0 49 -53 101 -102 101z" />
    <glyph glyph-name="uni06B2.init" unicode="&#x6b2;" horiz-adv-x="806" 
d="M782 1178c-217 -61 -444 -139 -649 -217l37 106l645 215zM489 299c0 -260 -207 -299 -471 -299h-22c-12 0 -19 12 -19 35v80c0 23 7 35 19 35h22c143 0 293 5 371 71c25 20 37 45 37 78c0 68 -55 121 -90 160c-16 18 -37 37 -53 53c-29 29 -57 55 -86 78l-7 -31l-43 43
c-23 23 -59 68 -73 86c-6 8 -11 17 -11 25c0 20 15 53 23 71c10 23 21 54 37 64c4 2 8 2 16 4c28 7 53 19 88 31l125 41c158 49 304 98 492 153l-49 -139c-68 -18 -139 -38 -207 -61l-111 -37c-66 -23 -137 -43 -198 -66c-29 -10 -54 -20 -74 -26c98 -86 207 -185 260 -310
c16 -39 24 -86 24 -139zM287 -365l-102 104l100 101l103 -101zM529 -365l-103 104l101 101l102 -101z" />
    <glyph glyph-name="uni06B2.medi" unicode="&#x6b2;" horiz-adv-x="927" 
d="M782 1178c-217 -61 -444 -139 -649 -217l37 106l645 215zM489 299c-8 -256 -203 -299 -471 -299h-22c-12 0 -19 12 -19 35v80c0 23 7 35 19 35h22c143 0 293 5 371 71c25 20 37 45 37 78c0 37 -23 77 -43 104c-72 92 -160 176 -244 252c-20 18 -35 33 -47 47
s-18 25 -18 33c0 17 11 44 16 60c6 18 21 45 33 53c4 2 8 2 16 4c28 7 53 19 88 31l125 41c158 49 304 98 492 153l-49 -139c-68 -18 -139 -38 -207 -61l-111 -37c-66 -23 -137 -43 -198 -66c-29 -10 -54 -20 -74 -26c43 -39 86 -76 127 -121c53 -57 105 -107 160 -170
l190 -203c55 -63 127 -104 242 -104h10c10 0 16 -12 16 -35v-80c0 -23 -6 -35 -16 -35h-25c-147 0 -210 63 -288 145c-37 39 -81 91 -132 154zM338 -365l-102 104l100 101l103 -101zM580 -365l-103 104l101 101l102 -101z" />
    <glyph glyph-name="uni06B2.fina" unicode="&#x6b2;" horiz-adv-x="1746" 
d="M1593 1178c-217 -61 -444 -139 -649 -217l37 106l645 215zM567 -12c-254 0 -454 51 -454 280c0 82 25 166 63 211c10 12 19 19 25 19c18 0 26 -9 26 -25c0 -12 -12 -33 -18 -45c-8 -23 -19 -53 -19 -86c0 -121 107 -165 213 -190c53 -12 121 -17 203 -17
c129 0 234 4 318 10s147 17 194 31c70 20 127 49 127 123c0 39 -25 77 -45 104c-72 92 -158 176 -242 252c-20 18 -37 33 -49 47s-18 25 -18 33c0 27 21 69 29 92c4 10 6 15 8 17c2 0 4 2 6 4s8 2 16 4c28 7 53 19 88 31l125 41c156 47 304 98 490 153l-47 -139
c-195 -53 -408 -129 -590 -190c74 -61 139 -131 209 -201c27 -27 55 -57 86 -90l188 -203c57 -63 125 -104 244 -104h10c10 0 17 -12 19 -35v-80c0 -23 -7 -35 -19 -35h-22c-147 0 -213 61 -293 145c-37 39 -78 91 -129 154c-4 -90 -17 -148 -64 -195
c-86 -86 -223 -102 -395 -112c-76 -4 -170 -4 -283 -4zM514 -414l-102 104l100 101l103 -101zM756 -414l-103 104l101 101l102 -101z" />
    <glyph glyph-name="uni06B4.init" unicode="&#x6b4;" horiz-adv-x="806" 
d="M782 1178c-217 -61 -444 -139 -649 -217l37 106l645 215zM489 299c0 -260 -207 -299 -471 -299h-22c-12 0 -19 12 -19 35v80c0 23 7 35 19 35h22c143 0 293 5 371 71c25 20 37 45 37 78c0 68 -55 121 -90 160c-16 18 -37 37 -53 53c-29 29 -57 55 -86 78l-7 -31l-43 43
c-23 23 -59 68 -73 86c-6 8 -11 17 -11 25c0 20 15 53 23 71c10 23 21 54 37 64c4 2 8 2 16 4c28 7 53 19 88 31l125 41c158 49 304 98 492 153l-49 -139c-68 -18 -139 -38 -207 -61l-111 -37c-66 -23 -137 -43 -198 -66c-29 -10 -54 -20 -74 -26c98 -86 207 -185 260 -310
c16 -39 24 -86 24 -139zM272 1253l-104 107l104 104l105 -104zM516 1253l-107 107l107 104l102 -104zM393 1468l-104 107l106 106l102 -106z" />
    <glyph glyph-name="uni06B4.medi" unicode="&#x6b4;" horiz-adv-x="927" 
d="M782 1178c-217 -61 -444 -139 -649 -217l37 106l645 215zM489 299c-8 -256 -203 -299 -471 -299h-22c-12 0 -19 12 -19 35v80c0 23 7 35 19 35h22c143 0 293 5 371 71c25 20 37 45 37 78c0 37 -23 77 -43 104c-72 92 -160 176 -244 252c-20 18 -35 33 -47 47
s-18 25 -18 33c0 17 11 44 16 60c6 18 21 45 33 53c4 2 8 2 16 4c28 7 53 19 88 31l125 41c158 49 304 98 492 153l-49 -139c-68 -18 -139 -38 -207 -61l-111 -37c-66 -23 -137 -43 -198 -66c-29 -10 -54 -20 -74 -26c43 -39 86 -76 127 -121c53 -57 105 -107 160 -170
l190 -203c55 -63 127 -104 242 -104h10c10 0 16 -12 16 -35v-80c0 -23 -6 -35 -16 -35h-25c-147 0 -210 63 -288 145c-37 39 -81 91 -132 154zM274 1272l-104 107l104 104l105 -104zM518 1272l-107 107l107 104l102 -104zM395 1487l-104 107l106 106l102 -106z" />
    <glyph glyph-name="uni06B4.fina" unicode="&#x6b4;" horiz-adv-x="1746" 
d="M1593 1178c-217 -61 -444 -139 -649 -217l37 106l645 215zM567 -12c-254 0 -454 51 -454 280c0 82 25 166 63 211c10 12 19 19 25 19c18 0 26 -9 26 -25c0 -12 -12 -33 -18 -45c-8 -23 -19 -53 -19 -86c0 -121 107 -165 213 -190c53 -12 121 -17 203 -17
c129 0 234 4 318 10s147 17 194 31c70 20 127 49 127 123c0 39 -25 77 -45 104c-72 92 -158 176 -242 252c-20 18 -37 33 -49 47s-18 25 -18 33c0 27 21 69 29 92c4 10 6 15 8 17c2 0 4 2 6 4s8 2 16 4c28 7 53 19 88 31l125 41c156 47 304 98 490 153l-47 -139
c-195 -53 -408 -129 -590 -190c74 -61 139 -131 209 -201c27 -27 55 -57 86 -90l188 -203c57 -63 125 -104 244 -104h10c10 0 17 -12 19 -35v-80c0 -23 -7 -35 -19 -35h-22c-147 0 -213 61 -293 145c-37 39 -78 91 -129 154c-4 -90 -17 -148 -64 -195
c-86 -86 -223 -102 -395 -112c-76 -4 -170 -4 -283 -4zM1096 1267l-104 107l104 104l105 -104zM1340 1267l-107 107l107 104l102 -104zM1217 1482l-104 107l106 106l102 -106z" />
    <glyph glyph-name="uni06B5.init" unicode="&#x6b5;" horiz-adv-x="419" 
d="M313 346c0 -238 -67 -346 -295 -346h-22c-25 0 -37 12 -37 35v80c0 23 12 35 37 35h22c82 0 139 8 170 22c29 14 43 41 43 80c0 72 -6 137 -12 221l-43 651c0 6 7 19 21 33l92 88l59 -174c8 -20 17 -41 17 -59c0 -2 -3 -4 -9 -4c-10 0 -28 4 -55 14l12 -350v-326z
M377 1632c-72 -72 -115 -172 -148 -293l-24 -2c-20 92 -60 172 -109 233c-16 20 -33 40 -51 54l94 -7c43 -43 64 -116 78 -190c12 70 33 146 68 195z" />
    <glyph glyph-name="uni06B5.medi" unicode="&#x6b5;" horiz-adv-x="512" 
d="M18 150c125 0 197 30 197 159v10l-22 824l98 102l18 -956c8 -92 74 -139 176 -139h33c10 0 17 -12 17 -35v-80c0 -23 -7 -35 -17 -35h-24c-119 0 -201 39 -248 117c-47 -78 -124 -117 -228 -117h-22c-25 0 -37 12 -37 35v80c0 23 12 35 37 35h22zM404 1610
c-72 -72 -115 -172 -148 -293l-24 -2c-20 92 -60 172 -109 233c-16 20 -33 40 -51 54l94 -7c43 -43 64 -116 78 -190c12 70 33 146 68 195z" />
    <glyph glyph-name="uni06B5.fina" unicode="&#x6b5;" horiz-adv-x="1226" 
d="M1069 1632c-72 -72 -115 -172 -148 -293l-24 -2c-20 92 -60 172 -109 233c-16 20 -33 40 -51 54l94 -7c43 -43 64 -116 78 -190c12 70 33 146 68 195zM948 -141c0 412 -30 813 -61 1284l108 102l35 -973c0 -88 90 -122 178 -122h27c9 0 14 -9 14 -27v-88
c0 -23 -4 -35 -14 -35h-27c-76 0 -137 18 -186 55v-127c0 -295 -236 -448 -543 -448h-8c-227 0 -365 102 -369 321c0 80 15 142 35 203c25 66 51 98 78 98c10 0 19 -8 21 -22c-2 2 -9 -16 -23 -55c-14 -43 -20 -93 -20 -148c0 -158 102 -237 309 -237c119 0 217 22 303 63
c96 47 143 101 143 156z" />
    <glyph glyph-name="uni06B6.init" unicode="&#x6b6;" horiz-adv-x="419" 
d="M313 346c0 -238 -67 -346 -295 -346h-22c-25 0 -37 12 -37 35v80c0 23 12 35 37 35h22c82 0 139 8 170 22c29 14 43 41 43 80c0 72 -6 137 -12 221l-43 651c0 6 7 19 21 33l92 88l59 -174c8 -20 17 -41 17 -59c0 -2 -3 -4 -9 -4c-10 0 -28 4 -55 14l12 -350v-326z
M205 1352l-107 107l107 106l100 -106z" />
    <glyph glyph-name="uni06B6.medi" unicode="&#x6b6;" horiz-adv-x="512" 
d="M18 150c125 0 197 30 197 159v10l-22 824l98 102l18 -956c8 -92 74 -139 176 -139h33c10 0 17 -12 17 -35v-80c0 -23 -7 -35 -17 -35h-24c-119 0 -201 39 -248 117c-47 -78 -124 -117 -228 -117h-22c-25 0 -37 12 -37 35v80c0 23 12 35 37 35h22zM217 1352l-107 107
l107 106l100 -106z" />
    <glyph glyph-name="uni06B6.fina" unicode="&#x6b6;" horiz-adv-x="1226" 
d="M930 1333l-107 107l107 106l100 -106zM948 -141c0 412 -30 813 -61 1284l108 102l35 -973c0 -88 90 -122 178 -122h27c9 0 14 -9 14 -27v-88c0 -23 -4 -35 -14 -35h-27c-76 0 -137 18 -186 55v-127c0 -295 -236 -448 -543 -448h-8c-227 0 -365 102 -369 321
c0 80 15 142 35 203c25 66 51 98 78 98c10 0 19 -8 21 -22c-2 2 -9 -16 -23 -55c-14 -43 -20 -93 -20 -148c0 -158 102 -237 309 -237c119 0 217 22 303 63c96 47 143 101 143 156z" />
    <glyph glyph-name="uni06B7.init" unicode="&#x6b7;" horiz-adv-x="419" 
d="M313 346c0 -238 -67 -346 -295 -346h-22c-25 0 -37 12 -37 35v80c0 23 12 35 37 35h22c82 0 139 8 170 22c29 14 43 41 43 80c0 72 -6 137 -12 221l-43 651c0 6 7 19 21 33l92 88l59 -174c8 -20 17 -41 17 -59c0 -2 -3 -4 -9 -4c-10 0 -28 4 -55 14l12 -350v-326z
M96 1327l-104 107l104 104l105 -104zM340 1327l-107 107l107 104l102 -104zM217 1542l-104 107l106 106l102 -106z" />
    <glyph glyph-name="uni06B7.medi" unicode="&#x6b7;" horiz-adv-x="512" 
d="M18 150c125 0 197 30 197 159v10l-22 824l98 102l18 -956c8 -92 74 -139 176 -139h33c10 0 17 -12 17 -35v-80c0 -23 -7 -35 -17 -35h-24c-119 0 -201 39 -248 117c-47 -78 -124 -117 -228 -117h-22c-25 0 -37 12 -37 35v80c0 23 12 35 37 35h22zM98 1335l-104 107
l104 104l105 -104zM342 1335l-107 107l107 104l102 -104zM219 1550l-104 107l106 106l102 -106z" />
    <glyph glyph-name="uni06B7.fina" unicode="&#x6b7;" horiz-adv-x="1226" 
d="M784 1333l-104 107l104 104l105 -104zM1028 1333l-107 107l107 104l102 -104zM905 1548l-104 107l106 106l102 -106zM948 -141c0 412 -30 813 -61 1284l108 102l35 -973c0 -88 90 -122 178 -122h27c9 0 14 -9 14 -27v-88c0 -23 -4 -35 -14 -35h-27c-76 0 -137 18 -186 55
v-127c0 -295 -236 -448 -543 -448h-8c-227 0 -365 102 -369 321c0 80 15 142 35 203c25 66 51 98 78 98c10 0 19 -8 21 -22c-2 2 -9 -16 -23 -55c-14 -43 -20 -93 -20 -148c0 -158 102 -237 309 -237c119 0 217 22 303 63c96 47 143 101 143 156z" />
    <glyph glyph-name="uni06B8.init" unicode="&#x6b8;" horiz-adv-x="419" 
d="M313 346c0 -238 -67 -346 -295 -346h-22c-25 0 -37 12 -37 35v80c0 23 12 35 37 35h22c82 0 139 8 170 22c29 14 43 41 43 80c0 72 -6 137 -12 221l-43 651c0 6 7 19 21 33l92 88l59 -174c8 -20 17 -41 17 -59c0 -2 -3 -4 -9 -4c-10 0 -28 4 -55 14l12 -350v-326z
M64 -176l102 -106l-102 -105l-107 105zM306 -176l102 -106l-102 -105l-107 105zM181 -391l102 -107l-102 -106l-105 106z" />
    <glyph glyph-name="uni06B8.medi" unicode="&#x6b8;" horiz-adv-x="512" 
d="M18 150c125 0 197 30 197 159v10l-22 824l98 102l18 -956c8 -92 74 -139 176 -139h33c10 0 17 -12 17 -35v-80c0 -23 -7 -35 -17 -35h-24c-119 0 -201 39 -248 117c-47 -78 -124 -117 -228 -117h-22c-25 0 -37 12 -37 35v80c0 23 12 35 37 35h22zM119 -168l102 -106
l-102 -105l-107 105zM361 -168l102 -106l-102 -105l-107 105zM236 -383l102 -107l-102 -106l-105 106z" />
    <glyph glyph-name="uni06B8.fina" unicode="&#x6b8;" horiz-adv-x="1226" 
d="M369 -659l102 -106l-102 -105l-107 105zM611 -659l102 -106l-102 -105l-107 105zM486 -874l102 -107l-102 -106l-105 106zM948 -141c0 412 -30 813 -61 1284l108 102l35 -973c0 -88 90 -122 178 -122h27c9 0 14 -9 14 -27v-88c0 -23 -4 -35 -14 -35h-27
c-76 0 -137 18 -186 55v-127c0 -295 -236 -448 -543 -448h-8c-227 0 -365 102 -369 321c0 80 15 142 35 203c25 66 51 98 78 98c10 0 19 -8 21 -22c-2 2 -9 -16 -23 -55c-14 -43 -20 -93 -20 -148c0 -158 102 -237 309 -237c119 0 217 22 303 63c96 47 143 101 143 156z" />
    <glyph glyph-name="uni06B9.init" unicode="&#x6b9;" horiz-adv-x="411" 
d="M381 272c0 -219 -115 -272 -346 -272h-39c-25 0 -37 12 -37 35v80c0 23 12 35 37 35h22c188 0 283 22 283 67c0 51 -27 108 -84 180l68 152c63 -90 96 -183 96 -277zM195 664l-107 107l107 106l100 -106zM179 -391l-107 107l107 106l100 -106z" />
    <glyph glyph-name="uni06B9.medi" unicode="&#x6b9;" horiz-adv-x="620" 
d="M350 127c-49 -106 -172 -127 -332 -127h-22c-25 0 -37 12 -37 35v80c0 23 12 35 37 35h137c113 0 177 67 191 202c0 18 8 27 24 27s25 -9 25 -27c14 -135 77 -202 188 -202h66c10 0 16 -12 16 -35v-80c0 -23 -6 -35 -16 -35h-25c-139 0 -207 27 -252 127zM346 571
l-107 107l107 106l100 -106zM334 -385l-107 107l107 106l100 -106z" />
    <glyph glyph-name="uni06B9.fina" unicode="&#x6b9;" horiz-adv-x="1255" 
d="M566 342l-107 107l107 106l100 -106zM576 -893l-107 107l107 106l100 -106zM1092 -117c0 -293 -293 -415 -615 -415c-166 0 -289 71 -342 184c-20 43 -33 94 -33 151c0 96 21 174 54 242c31 70 59 105 82 107c14 0 22 -9 22 -23c0 0 -12 -25 -35 -76
c-23 -49 -32 -98 -32 -151c0 -184 110 -275 350 -275c117 0 209 18 299 49c125 45 186 109 186 193c0 39 -12 84 -37 137s-59 114 -108 182l75 144c47 -90 99 -182 228 -182h76c12 0 18 -12 18 -35v-80c0 -23 -6 -35 -18 -35h-25c-59 0 -113 6 -160 20
c10 -35 15 -82 15 -137z" />
    <glyph glyph-name="uni06BC.init" unicode="&#x6bc;" horiz-adv-x="411" 
d="M168 672l-107 107l107 106l100 -106zM150 -6c-41 0 -74 -41 -74 -82s27 -62 78 -62c43 0 75 14 98 43c0 49 -53 101 -102 101zM61 0h-26h-39c-25 0 -37 12 -37 35v80c0 23 12 35 37 35h22c188 0 283 22 283 67c0 51 -27 108 -84 180l68 152c63 -90 96 -183 96 -277
c0 -128 -39 -199 -118 -237c22 -28 34 -68 34 -109c0 -78 -45 -126 -102 -149c-20 -8 -39 -15 -62 -15c-72 0 -106 35 -106 107c0 51 10 94 34 131z" />
    <glyph glyph-name="uni06BC.medi" unicode="&#x6bc;" horiz-adv-x="620" 
d="M330 584l-107 107l107 106l100 -106zM141 2c-41 0 -74 -41 -74 -82s27 -62 78 -62c43 0 75 14 98 43c0 49 -53 101 -102 101zM47 0h-29h-22c-25 0 -37 12 -37 35v80c0 23 12 35 37 35h137c113 0 177 67 191 202c0 18 8 27 24 27s25 -9 25 -27c14 -135 77 -202 188 -202
h66c10 0 16 -12 16 -35v-80c0 -23 -6 -35 -16 -35h-25c-139 0 -207 27 -252 127c-20 -42 -51 -71 -91 -90c19 -28 29 -65 29 -103c0 -78 -45 -126 -102 -149c-20 -8 -39 -15 -62 -15c-72 0 -106 35 -106 107c0 47 9 88 29 123z" />
    <glyph glyph-name="uni06BC.fina" unicode="&#x6bc;" horiz-adv-x="1255" 
d="M584 326l-107 107l107 106l100 -106zM551 -534c-41 0 -74 -41 -74 -82s27 -62 78 -62c43 0 75 14 98 43c0 49 -53 101 -102 101zM460 -532c-158 5 -274 75 -325 184c-20 43 -33 94 -33 151c0 96 21 174 54 242c31 70 59 105 82 107c14 0 22 -9 22 -23
c0 0 -12 -25 -35 -76c-23 -49 -32 -98 -32 -151c0 -184 110 -275 350 -275c117 0 209 18 299 49c125 45 186 109 186 193c0 39 -12 84 -37 137s-59 114 -108 182l75 144c47 -90 99 -182 228 -182h76c12 0 18 -12 18 -35v-80c0 -23 -6 -35 -18 -35h-25c-59 0 -113 6 -160 20
c10 -35 15 -82 15 -137c0 -230 -181 -355 -414 -398c13 -25 20 -55 20 -87c0 -78 -45 -126 -102 -149c-20 -8 -39 -15 -62 -15c-72 0 -106 35 -106 107c0 49 10 91 32 127z" />
    <glyph glyph-name="uni06BD.fina" unicode="&#x6bd;" horiz-adv-x="1255" 
d="M1092 -117c0 -293 -293 -415 -615 -415c-166 0 -289 71 -342 184c-20 43 -33 94 -33 151c0 96 21 174 54 242c31 70 59 105 82 107c14 0 22 -9 22 -23c0 0 -12 -25 -35 -76c-23 -49 -32 -98 -32 -151c0 -184 110 -275 350 -275c117 0 209 18 299 49
c125 45 186 109 186 193c0 39 -12 84 -37 137s-59 114 -108 182l75 144c47 -90 99 -182 228 -182h76c12 0 18 -12 18 -35v-80c0 -23 -6 -35 -18 -35h-25c-59 0 -113 6 -160 20c10 -35 15 -82 15 -137zM479 426l-104 107l104 104l105 -104zM723 426l-107 107l107 104
l102 -104zM600 641l-104 107l106 106l102 -106z" />
    <glyph glyph-name="uni06BF.init" unicode="&#x6bf;" horiz-adv-x="1130" 
d="M18 150c258 0 462 100 676 192v10c-205 84 -338 127 -397 127c-61 0 -112 -38 -147 -73c-8 -8 -15 -13 -19 -13c-10 0 -14 7 -14 19c0 39 20 84 59 135c43 55 90 84 143 84c29 0 77 -10 140 -33c102 -37 281 -125 422 -154c61 -12 126 -18 198 -20l-69 -137h-68
c-119 0 -164 -25 -254 -66c-45 -20 -99 -47 -162 -80c-92 -47 -178 -83 -260 -106s-159 -35 -231 -35h-39c-25 0 -37 12 -37 35v80c0 23 12 35 37 35h22zM424 -123l102 -106l-102 -105l-107 105zM666 -123l102 -106l-102 -105l-107 105zM541 -338l102 -107l-102 -106
l-105 106zM547 768l-107 107l107 106l100 -106z" />
    <glyph glyph-name="uni06BF.medi" unicode="&#x6bf;" horiz-adv-x="1136" 
d="M18 150c262 0 479 125 672 229v8c-117 31 -208 56 -276 70s-111 22 -129 22c-43 0 -78 -14 -109 -43c-16 -14 -29 -22 -37 -30s-16 -13 -18 -13c-10 0 -15 7 -15 19c0 39 19 84 58 135c43 55 90 84 145 84c111 0 232 -57 314 -82c117 -37 222 -57 374 -57h90l-61 -144
c-14 2 -33 4 -51 4c-29 0 -61 -4 -98 -10l-3 -53v-10c0 -84 70 -129 205 -129h64c10 0 16 -12 16 -35v-80c0 -23 -6 -35 -16 -35h-25c-205 0 -307 72 -307 215c0 47 2 84 8 111c-59 -25 -170 -87 -336 -187c-131 -82 -272 -139 -465 -139h-22c-25 0 -37 12 -37 35v80
c0 23 12 35 37 35h22zM434 -133l102 -106l-102 -105l-107 105zM676 -133l102 -106l-102 -105l-107 105zM551 -348l102 -107l-102 -106l-105 106zM617 760l-107 107l107 106l100 -106z" />
    <glyph glyph-name="uni06BF.fina" unicode="&#x6bf;" horiz-adv-x="1153" 
d="M1079 0c-190 0 -297 50 -301 238c0 39 6 73 10 112c-250 -61 -577 -213 -577 -475c0 -211 174 -315 530 -315c113 0 246 25 340 43c20 4 31 4 29 6c4 0 6 -2 6 -8c0 -27 -36 -60 -112 -103c-96 -55 -205 -84 -330 -84c-369 0 -553 136 -553 406c0 260 168 448 504 573v8
c-109 16 -207 31 -316 31c-43 0 -79 -14 -110 -45s-50 -45 -54 -45c-10 0 -16 6 -16 18c0 43 20 89 59 138c43 55 93 84 146 84c90 0 174 -17 268 -33c127 -23 217 -35 270 -37l195 -2l-61 -143l-162 -9v-28c0 -10 -2 -19 -2 -27c0 -143 107 -153 254 -153h63
c10 0 17 -12 17 -35v-80c0 -23 -7 -35 -17 -35h-80zM449 61l102 -106l-102 -105l-107 105zM691 61l102 -106l-102 -105l-107 105zM566 -154l102 -107l-102 -106l-105 106zM586 739l-107 107l107 106l100 -106z" />
    <glyph glyph-name="uni06C4.fina" unicode="&#x6c4;" horiz-adv-x="724" 
d="M393 0c-143 0 -235 27 -235 168c0 127 55 248 125 307c25 20 53 33 84 33c63 0 114 -37 153 -111c37 -63 62 -147 72 -247h141c10 0 17 -12 17 -35v-80c0 -23 -7 -35 -17 -35h-143c0 -94 -37 -203 -113 -328c-23 -39 -43 -69 -63 -94c-20 -23 -36 -43 -56 -57
c18 -28 27 -63 27 -99c0 -78 -45 -126 -102 -149c-20 -8 -39 -15 -62 -15c-72 0 -106 35 -106 107c0 52 11 96 36 134c-72 5 -151 14 -151 26c0 6 11 12 29 18c195 51 368 184 458 346c23 43 33 76 33 101v14c-14 -2 -33 -4 -53 -4h-74zM348 358c-66 0 -110 -48 -110 -114
c0 -63 53 -94 157 -94h107c0 53 -24 100 -49 135c-31 49 -66 73 -105 73zM238 -510c-41 0 -74 -41 -74 -82s27 -62 78 -62c43 0 75 14 98 43c0 49 -53 101 -102 101z" />
    <glyph glyph-name="uni06CA.fina" unicode="&#x6ca;" horiz-adv-x="724" 
d="M348 325c-66 0 -110 -48 -110 -114c0 -63 53 -94 157 -94h107c0 53 -24 100 -49 135c-31 49 -66 73 -105 73zM393 -33c-143 0 -235 27 -235 168c0 127 55 248 125 307c25 20 53 33 84 33c63 0 114 -37 153 -111c37 -63 62 -147 72 -247h141c10 0 17 -12 17 -35v-80
c0 -23 -7 -35 -17 -35h-143c0 -94 -37 -203 -113 -328c-23 -39 -43 -69 -63 -94c-43 -51 -68 -84 -156 -84c-45 0 -258 11 -258 31c0 6 11 12 29 18c195 51 368 184 458 346c23 43 33 76 33 101v14c-14 -2 -33 -4 -53 -4h-74zM244 635l-102 104l100 101l103 -101zM486 635
l-103 104l101 101l102 -101z" />
    <glyph glyph-name="uni06CD.fina" unicode="&#x6cd;" horiz-adv-x="1320" 
d="M1190 -246c0 -238 -222 -350 -664 -350c-242 0 -420 107 -424 336c0 98 21 174 54 244l16 36h-2l-211 -69l14 57l246 74c6 4 13 6 19 4c14 0 22 -6 22 -18c0 0 -12 -25 -35 -76c-23 -49 -32 -99 -32 -152c0 -236 174 -289 436 -289c137 0 246 15 348 48
c88 27 133 55 133 86c0 18 -32 26 -104 36c-74 8 -144 21 -193 41c-70 20 -104 54 -104 97c0 121 147 250 256 268c98 20 225 23 364 23h25c10 0 16 -12 16 -35v-80c0 -23 -6 -35 -16 -35h-125c-287 0 -430 -27 -430 -82c0 -45 303 -57 360 -96c20 -10 31 -37 31 -68z" />
    <glyph glyph-name="uni06CE.init" unicode="&#x6ce;" horiz-adv-x="448" 
d="M381 272c0 -219 -115 -272 -346 -272h-39c-25 0 -37 12 -37 35v80c0 23 12 35 37 35h22c188 0 283 22 283 67c0 51 -27 108 -84 180l68 152c63 -90 96 -183 96 -277zM355 940c-72 -72 -115 -172 -148 -293l-24 -2c-20 92 -60 172 -109 233c-16 20 -33 40 -51 54l94 -7
c43 -43 64 -116 78 -190c12 70 33 146 68 195zM90 -397l-102 104l100 101l103 -101zM332 -397l-103 104l101 101l102 -101z" />
    <glyph glyph-name="uni06CE.medi" unicode="&#x6ce;" horiz-adv-x="620" 
d="M350 127c-49 -106 -172 -127 -332 -127h-22c-25 0 -37 12 -37 35v80c0 23 12 35 37 35h137c113 0 177 67 191 202c0 18 8 27 24 27s25 -9 25 -27c14 -135 77 -202 188 -202h66c10 0 16 -12 16 -35v-80c0 -23 -6 -35 -16 -35h-25c-139 0 -207 27 -252 127zM514 856
c-72 -72 -115 -172 -148 -293l-24 -2c-20 92 -60 172 -109 233c-16 20 -33 40 -51 54l94 -7c43 -43 64 -116 78 -190c12 70 33 146 68 195zM201 -383l-102 104l100 101l103 -101zM443 -383l-103 104l101 101l102 -101z" />
    <glyph glyph-name="uni06CE.fina" unicode="&#x6ce;" horiz-adv-x="1347" 
d="M1190 -246c0 -238 -222 -350 -664 -350c-242 0 -420 107 -424 336c0 98 21 174 54 244c31 68 59 102 82 102c14 0 22 -6 22 -18c0 0 -12 -25 -35 -76c-23 -49 -32 -99 -32 -152c0 -236 174 -289 436 -289c137 0 246 15 348 48c88 27 133 55 133 86c0 18 -32 26 -104 36
c-74 8 -144 21 -193 41c-70 20 -104 54 -104 97c0 121 147 250 256 268c98 20 225 23 364 23h25c10 0 16 -12 16 -35v-80c0 -23 -6 -35 -16 -35h-125c-287 0 -430 -27 -430 -82c0 -45 303 -57 360 -96c20 -10 31 -37 31 -68zM678 582c-72 -72 -115 -172 -148 -293l-24 -2
c-20 92 -60 172 -109 233c-16 20 -33 40 -51 54l94 -7c43 -43 64 -116 78 -190c12 70 33 146 68 195z" />
    <glyph glyph-name="uni06CF.fina" unicode="&#x6cf;" horiz-adv-x="724" 
d="M348 358c-66 0 -110 -48 -110 -114c0 -63 53 -94 157 -94h107c0 53 -24 100 -49 135c-31 49 -66 73 -105 73zM393 0c-143 0 -235 27 -235 168c0 127 55 248 125 307c25 20 53 33 84 33c63 0 114 -37 153 -111c37 -63 62 -147 72 -247h141c10 0 17 -12 17 -35v-80
c0 -23 -7 -35 -17 -35h-143c0 -94 -37 -203 -113 -328c-23 -39 -43 -69 -63 -94c-43 -51 -68 -84 -156 -84c-45 0 -258 11 -258 31c0 6 11 12 29 18c195 51 368 184 458 346c23 43 33 76 33 101v14c-14 -2 -33 -4 -53 -4h-74zM359 661l-107 107l107 106l100 -106z" />
    <glyph glyph-name="uni06D1.fina" unicode="&#x6d1;" horiz-adv-x="1347" 
d="M447 -700l102 -106l-102 -105l-107 105zM689 -700l102 -106l-102 -105l-107 105zM564 -915l102 -107l-102 -106l-105 106zM1190 -246c0 -238 -222 -350 -664 -350c-242 0 -420 107 -424 336c0 98 21 174 54 244c31 68 59 102 82 102c14 0 22 -6 22 -18
c0 0 -12 -25 -35 -76c-23 -49 -32 -99 -32 -152c0 -236 174 -289 436 -289c137 0 246 15 348 48c88 27 133 55 133 86c0 18 -32 26 -104 36c-74 8 -144 21 -193 41c-70 20 -104 54 -104 97c0 121 147 250 256 268c98 20 225 23 364 23h25c10 0 16 -12 16 -35v-80
c0 -23 -6 -35 -16 -35h-125c-287 0 -430 -27 -430 -82c0 -45 303 -57 360 -96c20 -10 31 -37 31 -68z" />
    <glyph glyph-name="uni06FA.init" unicode="&#x6fa;" horiz-adv-x="1173" 
d="M694 328c0 -100 48 -178 142 -178c51 0 90 8 129 20c31 16 47 33 47 47c0 55 -29 117 -86 180l69 152c63 -92 95 -185 95 -277c0 -166 -86 -272 -248 -272c-76 0 -133 39 -172 119c-47 -80 -115 -119 -205 -119c-82 0 -127 60 -166 119c-59 -80 -152 -119 -281 -119h-22
c-25 0 -37 12 -37 35v80c0 23 12 35 37 35h49c152 0 227 59 227 178c0 18 9 26 25 26c14 0 22 -8 22 -26c0 -119 55 -178 164 -178s164 59 164 178c0 18 9 26 25 26s24 -8 22 -26zM500 588l-104 107l104 104l105 -104zM744 588l-107 107l107 104l102 -104zM621 803l-104 107
l106 106l102 -106zM631 -428l-107 107l107 106l100 -106z" />
    <glyph glyph-name="uni06FA.medi" unicode="&#x6fa;" horiz-adv-x="1236" 
d="M694 328c0 -100 48 -178 142 -178c104 0 157 57 157 172v6c0 18 9 26 25 26s24 -8 24 -26c0 -119 60 -178 179 -178h22c10 0 17 -12 17 -35v-80c0 -23 -7 -35 -17 -35h-24c-90 0 -158 39 -205 115c-41 -59 -90 -115 -172 -115c-76 0 -133 39 -172 119
c-47 -80 -115 -119 -205 -119c-82 0 -127 60 -166 119c-59 -80 -154 -119 -283 -119h-20c-25 0 -37 12 -37 35v80c0 23 12 35 37 35h49c152 0 227 59 227 178c0 18 9 26 25 26c14 0 22 -8 22 -26c0 -119 55 -178 164 -178s164 59 164 178c0 18 9 26 25 26c14 0 22 -6 22 -20
v-6zM524 555l-104 107l104 104l105 -104zM768 555l-107 107l107 104l102 -104zM645 770l-104 107l106 106l102 -106zM654 -420l-107 107l107 106l100 -106z" />
    <glyph glyph-name="uni06FA.fina" unicode="&#x6fa;" horiz-adv-x="1923" 
d="M1380 328c0 -100 48 -178 142 -178c104 0 157 59 157 178c0 18 9 26 25 26c14 0 22 -8 22 -26c0 -119 60 -178 179 -178h24c10 0 17 -12 17 -35v-80c0 -23 -7 -35 -17 -35h-24c-92 0 -160 39 -205 115c-47 -76 -106 -115 -174 -115c-76 0 -131 39 -170 119
c-45 -80 -113 -119 -205 -119c-31 0 -58 4 -78 12c2 -23 2 -55 4 -100c0 -168 -75 -291 -229 -367c-104 -51 -228 -77 -371 -77c-166 0 -289 71 -342 184c-20 43 -33 94 -33 151c0 96 21 174 54 242c31 70 59 105 82 107c14 0 22 -9 22 -23c0 0 -12 -25 -35 -76
c-23 -49 -32 -98 -32 -151c0 -184 110 -275 350 -275c109 0 202 23 288 54c121 47 183 108 183 188c0 47 -11 90 -29 131c-20 47 -60 108 -119 188l76 144c47 -90 98 -182 227 -182c109 0 162 59 162 178c0 18 9 26 27 26c16 0 24 -8 22 -26zM1202 524l-104 107l104 104
l105 -104zM1446 524l-107 107l107 104l102 -104zM1323 739l-104 107l106 106l102 -106zM1327 -426l-107 107l107 106l100 -106z" />
    <glyph glyph-name="uni06FB.init" unicode="&#x6fb;" horiz-adv-x="1335" 
d="M1163 285c0 76 -110 129 -192 129c-76 0 -176 -50 -301 -148c-82 -66 -123 -100 -123 -106s22 -10 65 -10c367 0 551 45 551 135zM635 0c-172 0 -281 4 -336 119c-59 -80 -152 -119 -281 -119h-22c-25 0 -37 12 -37 35v80c0 23 12 35 37 35h49c152 0 227 59 227 178
c0 18 9 26 25 26c23 0 22 -12 22 -35c0 -82 45 -153 121 -161c80 78 146 141 203 190c115 98 240 203 404 203c125 0 204 -80 204 -205c0 -260 -321 -346 -616 -346zM555 649l-107 107l107 106l100 -106zM555 -424l-107 107l107 106l100 -106z" />
    <glyph glyph-name="uni06FB.medi" unicode="&#x6fb;" horiz-adv-x="1345" 
d="M1163 285c0 76 -110 129 -192 129c-76 0 -176 -50 -301 -148c-82 -66 -123 -100 -123 -106s22 -10 65 -10c367 0 551 45 551 135zM635 0c-172 0 -281 4 -336 119c-59 -80 -152 -119 -281 -119h-22c-25 0 -37 12 -37 35v80c0 23 12 35 37 35h49c152 0 227 59 227 178
c0 18 9 26 25 26c23 0 22 -12 22 -35c0 -82 45 -153 121 -161c80 78 146 141 203 190c115 98 240 203 404 203c125 0 204 -80 204 -205c0 -57 -31 -125 -90 -205c23 4 51 7 82 9h109c10 0 16 -12 16 -35v-80c0 -23 -6 -35 -16 -35h-25c-82 0 -159 6 -231 20
c-45 10 -88 17 -133 17c-37 0 -68 -11 -117 -19c-66 -12 -135 -18 -211 -18zM574 616l-107 107l107 106l100 -106zM553 -399l-107 107l107 106l100 -106z" />
    <glyph glyph-name="uni06FB.fina" unicode="&#x6fb;" horiz-adv-x="1976" 
d="M1794 285c0 78 -108 129 -190 129c-76 0 -179 -50 -304 -148c-82 -66 -122 -100 -122 -106s22 -10 67 -10c367 0 549 45 549 135zM1792 141c25 4 53 9 84 9h106c10 0 17 -12 19 -35v-80c0 -23 -7 -35 -19 -35h-24c-82 0 -160 6 -232 20c-45 10 -88 17 -133 17
c-35 0 -65 -11 -114 -19c-66 -12 -135 -18 -211 -18s-142 10 -195 35c2 -29 2 -70 4 -123c0 -168 -75 -291 -229 -367c-104 -51 -228 -77 -371 -77c-166 0 -289 71 -342 184c-20 43 -33 94 -33 151c0 96 21 174 54 242c31 70 59 105 82 107c14 0 22 -9 22 -23
c0 0 -12 -25 -35 -76c-23 -49 -32 -98 -32 -151c0 -184 110 -275 350 -275c109 0 202 23 288 54c121 47 183 108 183 188c0 39 -12 86 -37 139s-62 112 -111 180l76 144c35 -57 85 -105 148 -142c133 131 243 224 331 279c74 43 154 82 256 82c100 0 162 -49 191 -121
c10 -25 16 -53 16 -84c0 -57 -31 -125 -92 -205zM1311 645l-107 107l107 106l100 -106zM1323 -451l-107 107l107 106l100 -106z" />
    <glyph glyph-name="uni06FC.init" unicode="&#x6fc;" horiz-adv-x="825" 
d="M451 549c-90 0 -228 -51 -228 -131c0 -41 31 -86 90 -133c55 -45 105 -68 144 -68c59 0 163 27 317 80l-51 -139c-309 -104 -545 -158 -705 -158h-22c-25 0 -37 12 -37 35v80c0 23 12 35 37 35h22c68 0 131 6 209 16v10c-72 43 -108 102 -108 180c0 72 32 143 98 215
c70 80 150 121 240 121c86 0 215 -96 215 -182c0 -2 -2 -4 -4 -4l-76 20c-49 14 -96 23 -141 23zM394 846l-107 107l107 106l100 -106zM398 -385l-107 107l107 106l100 -106z" />
    <glyph glyph-name="uni06FC.medi" unicode="&#x6fc;" horiz-adv-x="718" 
d="M473 217c0 -29 140 -67 189 -67h63c10 0 16 -12 16 -35v-80c0 -23 -6 -35 -16 -35h-25c-125 0 -229 41 -313 123c-92 -82 -215 -123 -369 -123h-22c-25 0 -37 12 -37 35v80c0 23 12 35 37 35h22c61 0 295 24 295 71c0 27 -38 68 -116 123c-12 6 -23 12 -39 16
c0 115 102 170 221 170c141 -2 213 -45 213 -133c0 -25 -21 -59 -60 -104s-59 -70 -59 -76zM373 682l-107 107l107 106l100 -106zM371 -381l-107 107l107 106l100 -106z" />
    <glyph glyph-name="uni06FC.fina" unicode="&#x6fc;" horiz-adv-x="1083" 
d="M600 -586c-297 0 -498 123 -498 408c0 158 83 321 349 471c0 18 -60 70 -136 121c-6 4 -12 6 -20 8v8c0 104 104 152 219 152c164 0 246 -43 246 -131c0 -47 -47 -104 -139 -172c100 -86 241 -129 423 -129h46c10 0 16 -12 18 -35v-80c0 -23 -6 -35 -18 -35h-23
c-197 0 -330 39 -436 127c-35 29 -72 63 -111 104c-219 -102 -327 -223 -327 -358c0 -233 217 -313 475 -313c94 0 178 6 258 22c74 16 108 25 108 25c4 0 6 -2 8 -6c0 -27 -38 -62 -114 -107c-94 -53 -203 -80 -328 -80zM535 745l-107 107l107 106l100 -106zM541 -250
l-107 107l107 106l100 -106z" />
    <glyph glyph-name="uniFB51" unicode="&#x671;" horiz-adv-x="485" arabic-form="final" 
d="M274 279c0 -70 78 -129 154 -129h66c10 0 14 -12 16 -35v-80c0 -23 -6 -35 -16 -35h-33c-119 0 -223 49 -258 139c-12 31 -19 66 -21 105c-4 315 -16 612 -43 899l109 102c25 -287 22 -604 26 -966zM335 1472c0 23 -32 41 -55 41c-47 0 -87 -46 -108 -74
c20 -8 44 -12 71 -12s50 4 66 14s26 21 26 31zM110 1370c-25 0 -59 -30 -63 -50c-10 4 -15 13 -15 23c0 41 23 80 50 96c10 6 18 8 26 6l31 -2c72 88 127 133 170 133h4c43 0 63 -22 63 -67c0 -80 -63 -158 -149 -158c-31 0 -94 15 -117 19z" />
    <glyph glyph-name="uniFB53" unicode="&#x67b;" horiz-adv-x="1497" arabic-form="final" 
d="M1360 375c0 -33 -23 -90 -23 -117c0 -72 48 -108 144 -108h22c10 0 17 -12 19 -35v-80c0 -23 -7 -35 -19 -35h-30c-121 0 -193 59 -213 180c-133 -129 -360 -192 -682 -192h-11c-303 0 -454 94 -454 280c0 61 11 115 34 158c20 47 40 72 54 72c18 0 26 -9 26 -25
c0 -14 -10 -27 -18 -47c-12 -29 -19 -57 -19 -84c0 -137 140 -205 416 -207c170 0 324 23 451 62c90 31 153 69 188 114c45 59 76 88 90 88c16 0 25 -8 25 -24zM618 -396l-102 107l100 98l103 -98zM620 -621l-102 104l100 101l103 -101z" />
    <glyph glyph-name="uniFB54" unicode="&#x67b;" horiz-adv-x="374" arabic-form="initial" 
d="M381 272c0 -219 -115 -272 -346 -272h-39c-25 0 -37 12 -37 35v80c0 23 12 35 37 35h22c188 0 283 22 283 67c0 51 -27 108 -84 180l68 152c63 -90 96 -183 96 -277zM217 -305l-102 107l100 98l103 -98zM219 -530l-102 104l100 101l103 -101z" />
    <glyph glyph-name="uniFB55" unicode="&#x67b;" horiz-adv-x="563" arabic-form="medial" 
d="M350 127c-49 -106 -172 -127 -332 -127h-22c-25 0 -37 12 -37 35v80c0 23 12 35 37 35h137c113 0 177 67 191 202c0 18 8 27 24 27s25 -9 25 -27c14 -135 77 -202 188 -202h66c10 0 16 -12 16 -35v-80c0 -23 -6 -35 -16 -35h-25c-139 0 -207 27 -252 127zM290 -316
l-102 107l100 98l103 -98zM292 -541l-102 104l100 101l103 -101z" />
    <glyph glyph-name="uniFB57" unicode="&#x67e;" horiz-adv-x="1497" arabic-form="final" 
d="M1360 375c0 -33 -23 -90 -23 -117c0 -72 48 -108 144 -108h22c10 0 17 -12 19 -35v-80c0 -23 -7 -35 -19 -35h-30c-121 0 -193 59 -213 180c-133 -129 -360 -192 -682 -192h-11c-303 0 -454 94 -454 280c0 61 11 115 34 158c20 47 40 72 54 72c18 0 26 -9 26 -25
c0 -14 -10 -27 -18 -47c-12 -29 -19 -57 -19 -84c0 -137 140 -205 416 -207c170 0 324 23 451 62c90 31 153 69 188 114c45 59 76 88 90 88c16 0 25 -8 25 -24zM582 -201l102 -106l-102 -105l-107 105zM824 -201l102 -106l-102 -105l-107 105zM699 -416l102 -107l-102 -106
l-105 106z" />
    <glyph glyph-name="uniFB58" unicode="&#x67e;" horiz-adv-x="448" arabic-form="initial" 
d="M381 272c0 -219 -115 -272 -346 -272h-39c-25 0 -37 12 -37 35v80c0 23 12 35 37 35h22c188 0 283 22 283 67c0 51 -27 108 -84 180l68 152c63 -90 96 -183 96 -277zM92 -160l102 -106l-102 -105l-107 105zM334 -160l102 -106l-102 -105l-107 105zM209 -375l102 -107
l-102 -106l-105 106z" />
    <glyph glyph-name="uniFB59" unicode="&#x67e;" horiz-adv-x="620" arabic-form="medial" 
d="M350 127c-49 -106 -172 -127 -332 -127h-22c-25 0 -37 12 -37 35v80c0 23 12 35 37 35h137c113 0 177 67 191 202c0 18 8 27 24 27s25 -9 25 -27c14 -135 77 -202 188 -202h66c10 0 16 -12 16 -35v-80c0 -23 -6 -35 -16 -35h-25c-139 0 -207 27 -252 127zM186 -174
l102 -106l-102 -105l-107 105zM428 -174l102 -106l-102 -105l-107 105zM303 -389l102 -107l-102 -106l-105 106z" />
    <glyph glyph-name="uniFB5B" unicode="&#x680;" horiz-adv-x="1497" arabic-form="final" 
d="M1360 375c0 -33 -23 -90 -23 -117c0 -72 48 -108 144 -108h22c10 0 17 -12 19 -35v-80c0 -23 -7 -35 -19 -35h-30c-121 0 -193 59 -213 180c-133 -129 -360 -192 -682 -192h-11c-303 0 -454 94 -454 280c0 61 11 115 34 158c20 47 40 72 54 72c18 0 26 -9 26 -25
c0 -14 -10 -27 -18 -47c-12 -29 -19 -57 -19 -84c0 -137 140 -205 416 -207c170 0 324 23 451 62c90 31 153 69 188 114c45 59 76 88 90 88c16 0 25 -8 25 -24zM652 -369l-103 107l105 106l102 -106zM533 -543l-105 107l105 104l102 -104zM774 -543l-102 107l102 104
l105 -104zM656 -719l-103 106l105 107l102 -107z" />
    <glyph glyph-name="uniFB5C" unicode="&#x680;" horiz-adv-x="448" arabic-form="initial" 
d="M381 272c0 -219 -115 -272 -346 -272h-39c-25 0 -37 12 -37 35v80c0 23 12 35 37 35h22c188 0 283 22 283 67c0 51 -27 108 -84 180l68 152c63 -90 96 -183 96 -277zM207 -356l-96 100l98 99l96 -99zM96 -519l-99 100l99 98l95 -98zM322 -519l-96 100l96 98l98 -98z
M211 -684l-97 99l99 101l96 -101z" />
    <glyph glyph-name="uniFB5D" unicode="&#x680;" horiz-adv-x="620" arabic-form="medial" 
d="M350 127c-49 -106 -172 -127 -332 -127h-22c-25 0 -37 12 -37 35v80c0 23 12 35 37 35h137c113 0 177 67 191 202c0 18 8 27 24 27s25 -9 25 -27c14 -135 77 -202 188 -202h66c10 0 16 -12 16 -35v-80c0 -23 -6 -35 -16 -35h-25c-139 0 -207 27 -252 127zM308 -337
l-98 102l99 100l97 -100zM195 -501l-100 101l100 98l96 -98zM423 -501l-96 101l96 98l100 -98zM311 -668l-97 100l99 102l97 -102z" />
    <glyph glyph-name="uniFB5F" unicode="&#x67a;" horiz-adv-x="1497" arabic-form="final" 
d="M1360 375c0 -33 -23 -90 -23 -117c0 -72 48 -108 144 -108h22c10 0 17 -12 19 -35v-80c0 -23 -7 -35 -19 -35h-30c-121 0 -193 59 -213 180c-133 -129 -360 -192 -682 -192h-11c-303 0 -454 94 -454 280c0 61 11 115 34 158c20 47 40 72 54 72c18 0 26 -9 26 -25
c0 -14 -10 -27 -18 -47c-12 -29 -19 -57 -19 -84c0 -137 140 -205 416 -207c170 0 324 23 451 62c90 31 153 69 188 114c45 59 76 88 90 88c16 0 25 -8 25 -24zM735 805l-102 107l100 98l103 -98zM737 580l-102 104l100 101l103 -101z" />
    <glyph glyph-name="uniFB60" unicode="&#x67a;" horiz-adv-x="411" arabic-form="initial" 
d="M381 272c0 -219 -115 -272 -346 -272h-39c-25 0 -37 12 -37 35v80c0 23 12 35 37 35h22c188 0 283 22 283 67c0 51 -27 108 -84 180l68 152c63 -90 96 -183 96 -277zM153 809l-102 107l100 98l103 -98zM155 584l-102 104l100 101l103 -101z" />
    <glyph glyph-name="uniFB61" unicode="&#x67a;" horiz-adv-x="620" arabic-form="medial" 
d="M350 127c-49 -106 -172 -127 -332 -127h-22c-25 0 -37 12 -37 35v80c0 23 12 35 37 35h137c113 0 177 67 191 202c0 18 8 27 24 27s25 -9 25 -27c14 -135 77 -202 188 -202h66c10 0 16 -12 16 -35v-80c0 -23 -6 -35 -16 -35h-25c-139 0 -207 27 -252 127zM325 794
l-102 107l100 98l103 -98zM327 569l-102 104l100 101l103 -101z" />
    <glyph glyph-name="uniFB63" unicode="&#x67f;" horiz-adv-x="1497" arabic-form="final" 
d="M1360 375c0 -33 -23 -90 -23 -117c0 -72 48 -108 144 -108h22c10 0 17 -12 19 -35v-80c0 -23 -7 -35 -19 -35h-30c-121 0 -193 59 -213 180c-133 -129 -360 -192 -682 -192h-11c-303 0 -454 94 -454 280c0 61 11 115 34 158c20 47 40 72 54 72c18 0 26 -9 26 -25
c0 -14 -10 -27 -18 -47c-12 -29 -19 -57 -19 -84c0 -137 140 -205 416 -207c170 0 324 23 451 62c90 31 153 69 188 114c45 59 76 88 90 88c16 0 25 -8 25 -24zM725 921l-103 107l105 106l102 -106zM606 747l-105 107l105 104l102 -104zM847 747l-102 107l102 104l105 -104z
M729 571l-103 106l105 107l102 -107z" />
    <glyph glyph-name="uniFB64" unicode="&#x67f;" horiz-adv-x="448" arabic-form="initial" 
d="M381 272c0 -219 -115 -272 -346 -272h-39c-25 0 -37 12 -37 35v80c0 23 12 35 37 35h22c188 0 283 22 283 67c0 51 -27 108 -84 180l68 152c63 -90 96 -183 96 -277zM175 942l-103 107l105 106l102 -106zM56 768l-105 107l105 104l102 -104zM297 768l-102 107l102 104
l105 -104zM179 592l-103 106l105 107l102 -107z" />
    <glyph glyph-name="uniFB65" unicode="&#x67f;" horiz-adv-x="620" arabic-form="medial" 
d="M350 127c-49 -106 -172 -127 -332 -127h-22c-25 0 -37 12 -37 35v80c0 23 12 35 37 35h137c113 0 177 67 191 202c0 18 8 27 24 27s25 -9 25 -27c14 -135 77 -202 188 -202h66c10 0 16 -12 16 -35v-80c0 -23 -6 -35 -16 -35h-25c-139 0 -207 27 -252 127zM342 864
l-103 107l105 106l102 -106zM223 690l-105 107l105 104l102 -104zM464 690l-102 107l102 104l105 -104zM346 514l-103 106l105 107l102 -107z" />
    <glyph glyph-name="uniFB67" unicode="&#x679;" horiz-adv-x="1497" arabic-form="final" 
d="M1360 375c0 -33 -23 -90 -23 -117c0 -72 48 -108 144 -108h22c10 0 17 -12 19 -35v-80c0 -23 -7 -35 -19 -35h-30c-121 0 -193 59 -213 180c-133 -129 -360 -192 -682 -192h-11c-303 0 -454 94 -454 280c0 61 11 115 34 158c20 47 40 72 54 72c18 0 26 -9 26 -25
c0 -14 -10 -27 -18 -47c-12 -29 -19 -57 -19 -84c0 -137 140 -205 416 -207c170 0 324 23 451 62c90 31 153 69 188 114c45 59 76 88 90 88c16 0 25 -8 25 -24zM923 740c0 29 -40 47 -69 47c-45 0 -78 -27 -111 -43c-12 -6 -61 -46 -61 -50c0 -6 6 -8 20 -8
c147 0 221 19 221 54zM880 836c45 0 76 -29 76 -74c0 -109 -174 -129 -309 -131c-55 0 -129 23 -129 72c0 4 0 10 4 10c2 0 6 -2 12 -8c14 -10 39 -15 74 -15c20 0 35 5 45 11v75c0 35 -2 90 -8 162l-8 105c2 4 4 8 8 12l33 33l20 -64c4 -12 6 -18 6 -20c0 -4 -8 -4 -22 2
v-21c0 -12 2 -30 2 -55c2 -18 2 -37 2 -49v-27c0 -51 0 -96 -10 -135v-2c45 43 81 74 112 92c29 18 59 27 92 27z" />
    <glyph glyph-name="uniFB68" unicode="&#x679;" horiz-adv-x="407" arabic-form="initial" 
d="M381 272c0 -219 -115 -272 -346 -272h-39c-25 0 -37 12 -37 35v80c0 23 12 35 37 35h22c188 0 283 22 283 67c0 51 -27 108 -84 180l68 152c63 -90 96 -183 96 -277zM387 738c0 29 -40 47 -69 47c-45 0 -78 -27 -111 -43c-12 -6 -61 -46 -61 -50c0 -6 6 -8 20 -8
c147 0 221 19 221 54zM344 834c45 0 76 -29 76 -74c0 -109 -174 -129 -309 -131c-55 0 -129 23 -129 72c0 4 0 10 4 10c2 0 6 -2 12 -8c14 -10 39 -15 74 -15c20 0 35 5 45 11v75c0 35 -2 90 -8 162l-8 105c2 4 4 8 8 12l33 33l20 -64c4 -12 6 -18 6 -20c0 -4 -8 -4 -22 2
v-21c0 -12 2 -30 2 -55c2 -18 2 -37 2 -49v-27c0 -51 0 -96 -10 -135v-2c45 43 81 74 112 92c29 18 59 27 92 27z" />
    <glyph glyph-name="uniFB69" unicode="&#x679;" horiz-adv-x="563" arabic-form="medial" 
d="M350 127c-49 -106 -172 -127 -332 -127h-22c-25 0 -37 12 -37 35v80c0 23 12 35 37 35h137c113 0 177 67 191 202c0 18 8 27 24 27s25 -9 25 -27c14 -135 77 -202 188 -202h66c10 0 16 -12 16 -35v-80c0 -23 -6 -35 -16 -35h-25c-139 0 -207 27 -252 127zM499 652
c0 29 -40 47 -69 47c-45 0 -78 -27 -111 -43c-12 -6 -61 -46 -61 -50c0 -6 6 -8 20 -8c147 0 221 19 221 54zM456 748c45 0 76 -29 76 -74c0 -109 -174 -129 -309 -131c-55 0 -129 23 -129 72c0 4 0 10 4 10c2 0 6 -2 12 -8c14 -10 39 -15 74 -15c20 0 35 5 45 11v75
c0 35 -2 90 -8 162l-8 105c2 4 4 8 8 12l33 33l20 -64c4 -12 6 -18 6 -20c0 -4 -8 -4 -22 2v-21c0 -12 2 -30 2 -55c2 -18 2 -37 2 -49v-27c0 -51 0 -96 -10 -135v-2c45 43 81 74 112 92c29 18 59 27 92 27z" />
    <glyph glyph-name="uniFB6B" unicode="&#x6a4;" horiz-adv-x="1511" arabic-form="final" 
d="M1182 502c-66 0 -156 -86 -156 -154c0 -31 21 -59 64 -90c39 -31 71 -45 98 -45c25 0 49 21 69 37c39 29 60 57 60 86c0 70 -72 162 -135 166zM1303 178c35 -25 86 -28 149 -28h66c10 0 16 -12 16 -35v-80c0 -23 -6 -35 -16 -35h-25c-135 0 -231 33 -317 88
c-145 -68 -344 -100 -594 -100h-15c-303 0 -454 94 -454 280c0 61 11 115 34 158c20 47 40 72 54 72c18 0 26 -9 26 -25c0 -14 -10 -27 -18 -47c-12 -29 -19 -57 -19 -84c0 -137 140 -205 416 -207c190 0 334 14 434 41c-51 47 -75 94 -75 141c0 94 28 173 73 232
c51 68 105 102 164 102c109 0 178 -153 178 -280c0 -82 -34 -142 -77 -193zM1053 803l-104 107l104 104l105 -104zM1297 803l-107 107l107 104l102 -104zM1174 1018l-104 107l106 106l102 -106z" />
    </font>
</defs>
</svg>
