<?xml version="1.0" standalone="no"?>
<!DOCTYPE svg PUBLIC "-//W3C//DTD SVG 1.1//EN" "http://www.w3.org/Graphics/SVG/1.1/DTD/svg11.dtd" >
<svg xmlns="http://www.w3.org/2000/svg" xmlns:xlink="http://www.w3.org/1999/xlink" version="1.1">
<metadata>
Created by FontForge 20141014 at Mon Nov 24 15:05:28 2014


</metadata>
<defs>
<font id="NazaninWeb-Bold" horiz-adv-x="0" >
  <font-face 
    font-family="NazaninWeb"
    font-weight="700"
    font-stretch="normal"
    units-per-em="2048"
    panose-1="2 0 8 3 0 0 0 0 0 0"
    ascent="1638"
    descent="-410"
    bbox="-431 -1166 2445 1872"
    underline-thickness="50"
    underline-position="-50"
    stemh="249"
    stemv="126"
    unicode-range="U+0020-FEFC"
  />
<missing-glyph horiz-adv-x="496" 
 />
    <glyph glyph-name="uniFDF2" unicode="&#xfedf;&#xfee0;&#x651;&#x670;&#xfeea;" horiz-adv-x="1628" arabic-form="isolated" 
d="M1504 1077c1 -9 5 -47 10 -113c5 -67 16 -177 30 -330c16 -153 23 -272 23 -357s-25 -152 -75 -202c-51 -50 -120 -75 -208 -75c-125 0 -215 42 -268 125c-47 -83 -127 -125 -242 -125s-191 75 -230 226h-3l-62 -84c-17 -26 -39 -39 -66 -39c-49 0 -115 9 -196 28
s-122 42 -122 70c0 115 42 204 127 267c51 37 127 82 226 134l-14 91l144 140l69 -479c11 -83 63 -125 158 -125c115 0 173 37 173 110v11c0 4 -1 8 -2 13l-74 466l126 137l94 -632c9 -70 62 -105 157 -105c52 0 89 3 110 9c35 13 53 38 53 76c0 36 -2 70 -7 100l-78 539z
M479 490c-58 -20 -113 -44 -165 -74c-51 -28 -77 -51 -77 -66c0 -16 29 -30 87 -42c57 -12 124 -18 199 -18zM1097 1198c-1 -31 -13 -61 -34 -90c-21 -28 -43 -42 -66 -42s-41 3 -56 10c-31 -47 -67 -71 -106 -71c-49 0 -74 28 -74 83c0 36 8 69 25 100c12 17 27 26 45 26
c3 0 7 0 10 -1c-11 -25 -16 -49 -16 -72s9 -34 27 -34c27 0 52 48 76 143l39 25c-1 -11 -2 -22 -2 -32c0 -43 13 -64 41 -64c26 0 40 10 40 30c0 44 2 72 6 85c3 12 20 27 51 44zM919 1647c30 -94 45 -166 45 -216c0 -86 -24 -130 -71 -132c3 19 5 37 5 56
c0 63 -16 130 -48 201z" />
    <glyph glyph-name="uniFEF5" unicode="&#xfedf;&#xfe82;" horiz-adv-x="1134" arabic-form="isolated" 
d="M743 479c59 71 88 163 88 275c0 114 -10 237 -31 370c115 107 175 160 180 160s24 -44 56 -130c33 -88 49 -142 49 -165c0 -3 -4 -5 -13 -5c-8 0 -27 6 -56 17c-10 -273 -79 -483 -207 -630c47 -88 71 -157 71 -205c0 -50 -17 -97 -52 -142c-34 -46 -88 -70 -161 -72
l-350 -8l71 239c101 72 189 132 263 180l-383 405l-33 -78l-50 80c-75 119 -112 183 -112 194c0 49 20 122 61 217c262 -274 465 -508 609 -702zM708 276c-45 -41 -102 -83 -171 -127v-5l105 -2h18c77 0 115 12 115 37c0 18 -22 50 -67 97zM227 1456c83 0 143 34 178 103
l18 -41c-11 -61 -45 -108 -104 -141c-35 -20 -98 -30 -190 -30c-67 0 -110 -26 -130 -79c-25 9 -37 30 -37 64c0 33 11 63 32 89c22 26 52 39 91 39h8l100 -3c9 -1 20 -1 34 -1z" />
    <glyph glyph-name="uniFEF6" unicode="&#xfee0;&#xfe82;" horiz-adv-x="1259" arabic-form="final" 
d="M914 1142c97 95 151 142 160 142c5 0 7 -5 7 -15l22 -911c2 -73 53 -109 153 -109h10c27 0 41 -11 41 -34v-180c0 -23 -14 -35 -41 -35h-23c-183 0 -279 90 -288 270l-14 235h-6c-65 -176 -136 -323 -215 -442c-23 -34 -42 -55 -56 -64c-16 -9 -31 -15 -46 -20
c-16 -5 -82 -11 -198 -19c-115 -8 -188 -12 -218 -12s-45 5 -45 16s36 31 107 60c143 59 284 154 424 285c-31 127 -162 284 -393 472l-21 -75c-85 80 -139 135 -162 165s-34 59 -34 87c0 61 11 132 34 212l277 -227c110 -87 193 -171 247 -252c56 -81 97 -179 125 -294
c103 128 154 283 154 465v14zM250 1479c83 0 143 34 178 103l18 -41c-11 -61 -45 -108 -104 -141c-35 -20 -98 -30 -190 -30c-67 0 -110 -26 -130 -79c-25 9 -37 30 -37 63c0 34 11 64 33 90c21 26 51 39 90 39h8l100 -3c9 -1 20 -1 34 -1z" />
    <glyph glyph-name="uniFEF7" unicode="&#xfedf;&#xfe84;" horiz-adv-x="1134" arabic-form="isolated" 
d="M743 479c59 71 88 163 88 275c0 114 -10 237 -31 370c115 107 175 160 180 160s24 -44 56 -130c33 -88 49 -142 49 -165c0 -3 -4 -5 -13 -5c-8 0 -27 6 -56 17c-10 -273 -79 -483 -207 -630c47 -88 71 -157 71 -205c0 -50 -17 -97 -52 -142c-34 -46 -88 -70 -161 -72
l-350 -8l71 239c101 72 189 132 263 180l-383 405l-33 -78l-50 80c-75 119 -112 183 -112 194c0 49 20 122 61 217c262 -274 465 -508 609 -702zM708 276c-45 -41 -102 -83 -171 -127v-5l105 -2h18c77 0 115 12 115 37c0 18 -22 50 -67 97zM66 1258c-6 15 -9 29 -9 43
c0 38 23 70 69 95c-39 24 -58 56 -58 96c0 39 21 79 62 118c42 40 84 60 126 60c61 0 91 -24 91 -72c0 -22 -6 -39 -18 -51c-19 20 -48 30 -87 30c-70 0 -105 -18 -105 -54c0 -26 21 -47 63 -63c11 -4 34 -6 68 -6c35 0 77 14 128 41l-31 -107c-29 -3 -66 -10 -111 -23
c-94 -27 -157 -62 -188 -107z" />
    <glyph glyph-name="uniFEF8" unicode="&#xfee0;&#xfe84;" horiz-adv-x="1259" arabic-form="final" 
d="M914 1142c97 95 151 142 160 142c5 0 7 -5 7 -15l22 -911c2 -73 53 -109 153 -109h10c27 0 41 -11 41 -34v-180c0 -23 -14 -35 -41 -35h-23c-183 0 -279 90 -288 270l-14 235h-6c-65 -176 -136 -323 -215 -442c-23 -34 -42 -55 -56 -64c-16 -9 -31 -15 -46 -20
c-16 -5 -82 -11 -198 -19c-115 -8 -188 -12 -218 -12s-45 5 -45 16s36 31 107 60c143 59 284 154 424 285c-31 127 -162 284 -393 472l-21 -75c-85 80 -139 135 -162 165s-34 59 -34 87c0 61 11 132 34 212l277 -227c110 -87 193 -171 247 -252c56 -81 97 -179 125 -294
c103 128 154 283 154 465v14zM0 1213c-6 15 -9 29 -9 43c0 38 23 70 69 95c-39 24 -58 56 -58 95c0 40 21 80 62 120c42 39 84 59 126 59c61 0 91 -24 91 -72c0 -22 -6 -39 -18 -51c-19 20 -48 30 -87 30c-70 0 -105 -18 -105 -54c0 -26 21 -47 63 -63c11 -4 34 -6 68 -6
c35 0 77 14 128 41l-31 -107c-29 -3 -66 -10 -111 -23c-94 -27 -157 -62 -188 -107z" />
    <glyph glyph-name="uniFEF9" unicode="&#xfedf;&#xfe88;" horiz-adv-x="1134" arabic-form="isolated" 
d="M743 479c59 71 88 163 88 275c0 114 -10 237 -31 370c115 107 175 160 180 160s24 -44 56 -130c33 -88 49 -142 49 -165c0 -3 -4 -5 -13 -5c-8 0 -27 6 -56 17c-10 -273 -79 -483 -207 -630c47 -88 71 -157 71 -205c0 -50 -17 -97 -52 -142c-34 -46 -88 -70 -161 -72
l-350 -8l71 239c101 72 189 132 263 180l-383 405l-33 -78l-50 80c-75 119 -112 183 -112 194c0 49 20 122 61 217c262 -274 465 -508 609 -702zM708 276c-45 -41 -102 -83 -171 -127v-5l105 -2h18c77 0 115 12 115 37c0 18 -22 50 -67 97zM278 -573c-6 15 -9 29 -9 43
c0 38 23 70 69 95c-39 24 -58 56 -58 95c0 40 21 80 62 120c42 39 84 59 126 59c61 0 91 -24 91 -72c0 -22 -6 -39 -18 -51c-19 20 -48 30 -87 30c-70 0 -105 -18 -105 -54c0 -26 21 -47 63 -63c11 -4 34 -6 68 -6c35 0 77 14 128 41l-31 -107c-29 -3 -66 -10 -111 -23
c-94 -27 -157 -62 -188 -107z" />
    <glyph glyph-name="uniFEFA" unicode="&#xfee0;&#xfe88;" horiz-adv-x="1259" arabic-form="final" 
d="M914 1142c97 95 151 142 160 142c5 0 7 -5 7 -15l22 -911c2 -73 53 -109 153 -109h10c27 0 41 -11 41 -34v-180c0 -23 -14 -35 -41 -35h-23c-183 0 -279 90 -288 270l-14 235h-6c-65 -176 -136 -323 -215 -442c-23 -34 -42 -55 -56 -64c-16 -9 -31 -15 -46 -20
c-16 -5 -82 -11 -198 -19c-115 -8 -188 -12 -218 -12s-45 5 -45 16s36 31 107 60c143 59 284 154 424 285c-31 127 -162 284 -393 472l-21 -75c-85 80 -139 135 -162 165s-34 59 -34 87c0 61 11 132 34 212l277 -227c110 -87 193 -171 247 -252c56 -81 97 -179 125 -294
c103 128 154 283 154 465v14zM237 -566c-6 15 -9 29 -9 43c0 38 23 70 69 95c-39 24 -58 56 -58 96c0 39 21 79 63 118c41 40 83 60 125 60c61 0 91 -24 91 -72c0 -22 -6 -39 -18 -51c-19 20 -48 30 -87 30c-70 0 -105 -18 -105 -54c0 -26 21 -47 63 -63c11 -4 34 -6 69 -6
c34 0 76 14 127 41l-31 -107c-29 -3 -66 -10 -111 -23c-94 -27 -157 -62 -188 -107z" />
    <glyph glyph-name="uniFEFB" unicode="&#xfedf;&#xfe8e;" horiz-adv-x="1134" arabic-form="isolated" 
d="M743 479c59 71 88 163 88 275c0 114 -10 237 -31 370c115 107 175 160 180 160s24 -44 56 -130c33 -88 49 -142 49 -165c0 -3 -4 -5 -13 -5c-8 0 -27 6 -56 17c-10 -273 -79 -483 -207 -630c47 -88 71 -157 71 -205c0 -50 -17 -97 -52 -142c-34 -46 -88 -70 -161 -72
l-350 -8l71 239c101 72 189 132 263 180l-383 405l-33 -78l-50 80c-75 119 -112 183 -112 194c0 49 20 122 61 217c262 -274 465 -508 609 -702zM708 276c-45 -41 -102 -83 -171 -127v-5l105 -2h18c77 0 115 12 115 37c0 18 -22 50 -67 97z" />
    <glyph glyph-name="uniFEFC" unicode="&#xfee0;&#xfe8e;" horiz-adv-x="1259" arabic-form="final" 
d="M914 1142c97 95 151 142 160 142c5 0 7 -5 7 -15l22 -911c2 -73 53 -109 153 -109h10c27 0 41 -11 41 -34v-180c0 -23 -14 -35 -41 -35h-23c-183 0 -279 90 -288 270l-14 235h-6c-65 -176 -136 -323 -215 -442c-23 -34 -42 -55 -56 -64c-16 -9 -31 -15 -46 -20
c-16 -5 -82 -11 -198 -19c-115 -8 -188 -12 -218 -12s-45 5 -45 16s36 31 107 60c143 59 284 154 424 285c-31 127 -162 284 -393 472l-21 -75c-85 80 -139 135 -162 165s-34 59 -34 87c0 61 11 132 34 212l277 -227c110 -87 193 -171 247 -252c56 -81 97 -179 125 -294
c103 128 154 283 154 465v14z" />
    <glyph glyph-name="uniFB6D" unicode="&#x6a4;" horiz-adv-x="827" arabic-form="medial" 
d="M600 268c59 -13 105 -19 138 -19h95c28 0 42 -11 42 -34v-180c0 -23 -14 -35 -42 -35h-39c-105 0 -223 37 -354 112c-62 -41 -122 -70 -180 -87s-137 -25 -237 -25h-28c-27 0 -41 12 -41 35v180c0 23 14 34 41 34h87c61 0 121 5 179 16c-46 48 -69 106 -69 173
c0 68 25 140 75 216c59 93 130 140 213 140c57 0 105 -29 144 -87s58 -124 58 -199c0 -74 -18 -142 -54 -205c-8 -15 -17 -26 -28 -35zM349 544c-43 -24 -64 -50 -64 -77s20 -59 60 -97c40 -36 71 -55 92 -55s52 16 92 47s60 60 60 84c0 26 -15 54 -47 86
c-30 32 -61 48 -92 48s-64 -12 -101 -36zM445 1171l-119 120l119 121l119 -121zM581 934l-120 119l120 122l119 -122zM309 934l-120 119l120 122l119 -122z" />
    <glyph glyph-name="uniFB6B" unicode="&#x6a4;" horiz-adv-x="1613" arabic-form="final" 
d="M1387 268c53 -13 99 -19 137 -19h94c27 0 41 -11 41 -34v-180c0 -23 -14 -35 -41 -35h-23c-142 0 -268 39 -377 116c-40 -30 -117 -61 -230 -92s-221 -47 -322 -47c-191 0 -332 28 -424 85c-91 56 -137 150 -137 281c0 70 15 135 44 196s54 91 75 91c27 0 41 -13 41 -38
v-4c0 -1 -5 -14 -17 -40c-10 -24 -16 -60 -17 -106c0 -71 39 -124 119 -160c78 -37 192 -55 342 -55c148 0 267 13 355 38c-46 44 -69 101 -69 171c0 69 25 142 75 218c60 93 132 140 215 140c55 0 103 -29 142 -86c39 -58 59 -125 59 -200c0 -76 -18 -144 -54 -205
c-9 -15 -18 -26 -28 -35zM1131 369c40 -36 71 -54 92 -54s52 15 92 47c40 30 60 59 60 84c0 26 -15 55 -45 86c-31 32 -62 48 -93 48s-62 -9 -91 -27c-49 -31 -74 -60 -74 -87s20 -60 59 -97zM1221 1159l-119 120l119 121l119 -121zM1357 922l-120 119l120 122l119 -122z
M1085 922l-120 119l120 122l119 -122z" />
    <glyph glyph-name="uniFB6C" unicode="&#x6a4;" horiz-adv-x="692" arabic-form="initial" 
d="M480 581c-4 25 -20 53 -49 85c-29 33 -59 49 -91 49c-33 0 -59 -7 -80 -22s-31 -35 -31 -60c0 -44 46 -66 138 -66c49 0 87 5 113 14zM531 393c-71 -12 -138 -18 -201 -18s-109 6 -138 18c-50 21 -75 56 -75 105c0 88 20 177 60 266c49 103 111 155 184 155
c185 0 278 -178 278 -535c0 -145 -42 -247 -125 -306c-71 -52 -182 -78 -331 -78h-188c-27 0 -41 12 -41 35v180c0 23 14 34 41 34h236c61 0 128 8 203 25s112 41 112 73c0 17 -5 33 -15 46zM330 1280l-119 120l119 121l119 -121zM466 1043l-120 119l120 122l119 -122z
M194 1043l-120 119l120 122l119 -122z" />
    <glyph glyph-name="uniFB57" unicode="&#x67e;" horiz-adv-x="1653" arabic-form="final" 
d="M1446 509c30 0 45 -17 45 -53c0 -34 -13 -77 -38 -128c27 -53 96 -79 206 -79c27 0 41 -11 41 -34v-180c0 -23 -14 -35 -41 -35c-83 0 -146 12 -187 37c-39 25 -76 73 -110 144c-165 -136 -401 -204 -708 -204c-183 0 -320 28 -412 85c-91 56 -137 150 -137 281
c0 70 15 135 44 196s54 91 75 91c27 0 41 -13 41 -38c1 -3 -5 -17 -16 -42s-17 -61 -18 -108c0 -71 39 -124 119 -160c78 -37 179 -55 302 -55c361 0 602 70 723 209c45 49 68 73 71 73zM612 -459l-119 121l119 119l119 -119zM748 -695l-120 121l120 119l119 -119zM884 -459
l-119 121l119 119l119 -119z" />
    <glyph glyph-name="uniFB58" unicode="&#x67e;" horiz-adv-x="465" arabic-form="initial" 
d="M430 386c0 -257 -116 -386 -348 -386h-87c-27 0 -41 12 -41 35v180c0 23 14 34 41 34c206 0 309 22 309 66c0 25 -39 85 -117 181l131 203c75 -83 112 -188 112 -313zM70 -425l-119 121l119 119l119 -119zM206 -661l-120 121l120 119l119 -119zM342 -425l-119 121
l119 119l119 -119z" />
    <glyph glyph-name="uniFB59" unicode="&#x67e;" horiz-adv-x="725" arabic-form="medial" 
d="M731 0h-62c-84 0 -162 52 -233 155c-23 -44 -61 -81 -114 -111c-54 -29 -106 -44 -155 -44h-172c-27 0 -41 12 -41 35v180c0 23 16 34 49 34h107c147 0 235 40 265 119c11 28 16 59 16 94s16 52 47 52c11 0 21 -5 30 -14c8 -10 12 -21 12 -32c0 -146 75 -219 226 -219h25
c27 0 41 -11 41 -34v-180c0 -23 -14 -35 -41 -35zM230 -419l-119 121l119 119l119 -119zM366 -655l-120 121l120 119l119 -119zM502 -419l-119 121l119 119l119 -119z" />
    <glyph glyph-name="afii57459" unicode="&#x6a1;" horiz-adv-x="692" 
d="M480 581c-4 25 -20 53 -49 85c-29 33 -59 49 -91 49c-33 0 -59 -7 -80 -22s-31 -35 -31 -60c0 -44 46 -66 138 -66c49 0 87 5 113 14zM531 393c-71 -12 -138 -18 -201 -18s-109 6 -138 18c-50 21 -75 56 -75 105c0 88 20 177 60 266c49 103 111 155 184 155
c185 0 278 -178 278 -535c0 -145 -42 -247 -125 -306c-71 -52 -182 -78 -331 -78h-188c-27 0 -41 12 -41 35v180c0 23 14 34 41 34h236c61 0 128 8 203 25s112 41 112 73c0 17 -5 33 -15 46z" />
    <glyph glyph-name="afii57374" unicode="&#x6a1;" horiz-adv-x="827" 
d="M600 268c59 -13 105 -19 138 -19h95c28 0 42 -11 42 -34v-180c0 -23 -14 -35 -42 -35h-39c-105 0 -223 37 -354 112c-62 -41 -122 -70 -180 -87s-137 -25 -237 -25h-28c-27 0 -41 12 -41 35v180c0 23 14 34 41 34h87c61 0 121 5 179 16c-46 48 -69 106 -69 173
c0 68 25 140 75 216c59 93 130 140 213 140c57 0 105 -29 144 -87s58 -124 58 -199c0 -74 -18 -142 -54 -205c-8 -15 -17 -26 -28 -35zM349 544c-43 -24 -64 -50 -64 -77s20 -59 60 -97c40 -36 71 -55 92 -55s52 16 92 47s60 60 60 84c0 26 -15 54 -47 86
c-30 32 -61 48 -92 48s-64 -12 -101 -36z" />
    <glyph glyph-name="afii52258" unicode="&#x6a1;" horiz-adv-x="1613" 
d="M1387 268c53 -13 99 -19 137 -19h94c27 0 41 -11 41 -34v-180c0 -23 -14 -35 -41 -35h-23c-142 0 -268 39 -377 116c-40 -30 -117 -61 -230 -92s-221 -47 -322 -47c-191 0 -332 28 -424 85c-91 56 -137 150 -137 281c0 70 15 135 44 196s54 91 75 91c27 0 41 -13 41 -38
v-4c0 -1 -5 -14 -17 -40c-10 -24 -16 -60 -17 -106c0 -71 39 -124 119 -160c78 -37 192 -55 342 -55c148 0 267 13 355 38c-46 44 -69 101 -69 171c0 69 25 142 75 218c60 93 132 140 215 140c55 0 103 -29 142 -86c39 -58 59 -125 59 -200c0 -76 -18 -144 -54 -205
c-9 -15 -18 -26 -28 -35zM1131 369c40 -36 71 -54 92 -54s52 15 92 47c40 30 60 59 60 84c0 26 -15 55 -45 86c-31 32 -62 48 -93 48s-62 -9 -91 -27c-49 -31 -74 -60 -74 -87s20 -60 59 -97z" />
    <glyph glyph-name="uniFB7B" unicode="&#x686;" horiz-adv-x="1282" arabic-form="final" 
d="M1083 441c-74 0 -129 -4 -164 -11v-33c0 -79 54 -126 161 -141c33 -5 72 -7 117 -7h91c27 0 41 -11 41 -34v-180c0 -23 -14 -35 -41 -35h-150c-80 0 -151 24 -213 73c-74 54 -111 128 -111 222c0 29 1 55 3 78s3 39 3 47c-165 -45 -288 -107 -372 -186
c-82 -79 -124 -183 -124 -312c0 -93 34 -168 103 -224c86 -72 225 -108 416 -108c95 0 177 6 247 19c61 8 91 14 91 17v1c7 -2 11 -7 11 -15s-11 -22 -34 -43c-95 -87 -237 -131 -427 -131s-339 33 -448 100c-128 76 -192 188 -192 336c0 265 187 460 561 583v9
c-119 26 -209 39 -269 39s-105 -11 -134 -32c-8 -7 -23 -23 -47 -49c-22 -27 -40 -40 -51 -40c-21 0 -32 12 -32 36c0 47 24 107 71 180c57 91 123 136 196 136c43 0 134 -13 274 -40c138 -27 245 -40 318 -40c74 0 147 4 219 13zM507 -108l-119 121l119 119l119 -119z
M643 -344l-120 121l120 119l119 -119zM779 -108l-119 121l119 119l119 -119z" />
    <glyph glyph-name="uniFB7C" unicode="&#x686;" horiz-adv-x="1216" arabic-form="initial" 
d="M1057 288c-7 1 -13 2 -19 2h-17c-45 0 -99 -12 -163 -34c-65 -24 -170 -72 -316 -146c-146 -73 -294 -110 -443 -110h-104c-27 0 -41 12 -41 35v180c0 23 14 34 41 34h94c123 0 231 10 323 30c85 23 191 57 317 101v8c-167 78 -284 117 -350 117c-42 0 -82 -19 -121 -59
c-39 -38 -62 -58 -71 -58c-24 0 -36 12 -36 37c0 39 24 94 73 166c61 89 130 134 208 134c42 0 126 -29 252 -87c126 -57 221 -95 284 -114c64 -19 119 -28 165 -28h50zM419 -351l-119 121l119 119l119 -119zM555 -587l-120 121l120 119l119 -119zM691 -351l-119 121
l119 119l119 -119z" />
    <glyph glyph-name="uniFB7D" unicode="&#x686;" horiz-adv-x="1243" arabic-form="medial" 
d="M1249 0h-109c-128 0 -221 34 -279 103c-41 49 -62 112 -62 188c0 8 0 16 1 24c-149 -125 -279 -209 -388 -251c-109 -43 -248 -64 -417 -64c-27 0 -41 12 -41 35v180c0 23 14 34 41 34c157 0 277 11 362 32c149 37 278 94 385 169v7c-99 29 -181 50 -246 61
c-66 11 -104 17 -114 17c-42 0 -82 -19 -120 -59c-38 -38 -62 -58 -72 -58c-23 0 -35 12 -35 37c0 39 24 95 72 166c61 89 130 133 209 133c61 0 131 -16 208 -48c137 -57 270 -86 399 -87h19l119 2l-102 -228c-35 4 -69 6 -101 6c-31 0 -60 -6 -85 -19v-5
c0 -57 36 -93 108 -108c48 -12 131 -18 248 -18c27 0 40 -11 40 -34v-180c0 -23 -13 -35 -40 -35zM434 -382l-119 121l119 119l119 -119zM570 -618l-120 121l120 119l119 -119zM706 -382l-119 121l119 119l119 -119z" />
    <glyph glyph-name="uniFB8B" unicode="&#x698;" horiz-adv-x="827" arabic-form="final" 
d="M665 26c5 -12 7 -32 7 -59c0 -75 -18 -156 -55 -243c-12 -29 -26 -55 -41 -78c-73 -116 -129 -174 -166 -174c-54 0 -136 6 -246 19c-109 13 -164 25 -164 38s29 29 88 49c111 37 218 101 320 192s153 162 153 212c0 52 -59 138 -177 260l103 233
c63 -91 110 -148 141 -169c54 -38 119 -57 196 -57h9c28 2 42 -9 42 -34v-180c0 -23 -14 -35 -42 -35c-79 0 -135 9 -168 26zM447 827l-119 120l119 121l119 -121zM583 590l-120 119l120 122l119 -122zM311 590l-120 119l120 122l119 -122z" />
    <glyph glyph-name="uniFB8F" unicode="&#x6a9;" horiz-adv-x="1967" arabic-form="final" 
d="M1972 0h-75c-111 0 -243 83 -395 249l-71 79c-31 -234 -239 -351 -622 -351h-155c-183 0 -320 28 -412 85c-91 56 -137 150 -137 281c0 70 15 135 44 196s54 91 75 91c27 0 41 -13 41 -38c1 -3 -5 -17 -16 -42s-17 -61 -18 -108c0 -71 39 -124 119 -160
c78 -37 179 -55 302 -55h202c152 0 268 11 348 34c79 23 119 50 119 82c0 77 -113 210 -339 399l46 255c65 31 183 79 354 145c172 65 313 113 424 142l-65 -235c-203 -57 -393 -121 -569 -190v-9l306 -315c187 -191 335 -286 446 -286h48c27 0 41 -11 41 -34v-180
c0 -23 -14 -35 -41 -35z" />
    <glyph glyph-name="uniFB90" unicode="&#x6a9;" horiz-adv-x="767" arabic-form="initial" 
d="M399 350c0 65 -116 195 -347 392l47 255l248 102c188 77 352 139 492 185l-71 -237c-219 -73 -395 -136 -526 -188v-11c99 -99 163 -174 191 -222c28 -50 47 -95 57 -136s15 -91 15 -148c0 -111 -39 -196 -119 -254c-78 -59 -172 -88 -281 -88h-110c-27 0 -41 12 -41 35
v180c0 23 14 34 41 34h87c103 0 188 13 254 39c42 17 63 37 63 62z" />
    <glyph glyph-name="uniFB91" unicode="&#x6a9;" horiz-adv-x="1036" arabic-form="medial" 
d="M397 343c0 78 -113 211 -340 399l48 255c337 146 596 242 777 287l-66 -235c-199 -56 -388 -119 -568 -190v-9l305 -315c101 -107 188 -181 261 -223s133 -63 180 -63h48c27 0 41 -11 41 -34v-180c0 -23 -14 -35 -41 -35h-75c-108 0 -238 83 -389 249l-75 79
c-3 -115 -49 -201 -138 -258c-71 -47 -158 -70 -260 -70h-110c-27 0 -41 12 -41 35v180c0 23 14 34 41 34h101c87 1 165 14 234 39c42 16 64 34 67 55z" />
    <glyph glyph-name="uniFB93" unicode="&#x6af;" horiz-adv-x="1967" arabic-form="final" 
d="M1763 1232c-267 -57 -484 -114 -650 -172l25 110c99 35 224 70 374 106c149 35 242 57 277 64zM2013 35c0 -23 -14 -35 -41 -35h-75c-112 0 -244 83 -395 249l-71 79c-17 -136 -89 -231 -218 -286c-75 -32 -150 -51 -223 -56c-73 -6 -134 -9 -181 -9h-155
c-184 0 -322 28 -412 85c-92 56 -137 151 -137 285c0 66 14 130 43 191c28 61 54 92 79 92c11 0 22 -5 31 -16s7 -30 -6 -58c-13 -27 -20 -64 -21 -110c0 -71 39 -125 117 -162c79 -38 166 -57 262 -57h310c110 0 206 11 290 35c82 22 124 51 124 85c0 55 -69 141 -206 259
c-33 28 -72 59 -118 93l43 236c14 4 37 11 69 19c33 10 124 35 274 78c149 42 292 76 427 101l-56 -214c-105 -16 -225 -40 -358 -73c-133 -32 -205 -49 -214 -52c97 -75 219 -184 367 -328c34 -33 69 -66 104 -99s77 -61 125 -83c48 -24 92 -35 133 -35h48
c27 0 41 -11 41 -34v-180z" />
    <glyph glyph-name="uniFB94" unicode="&#x6af;" horiz-adv-x="831" arabic-form="initial" 
d="M-46 215c0 23 14 34 41 34h87c103 0 188 13 254 39c42 17 63 36 63 59c-1 34 -33 85 -96 154s-135 135 -216 198l43 236c14 4 37 11 70 19c33 10 125 35 277 78s293 76 423 101l-56 -214c-112 -17 -234 -41 -365 -73s-202 -49 -211 -52c32 -31 63 -60 92 -89
c97 -95 145 -201 145 -319v-7c0 -78 -12 -140 -35 -185c-67 -129 -189 -194 -365 -194h-110c-27 0 -41 12 -41 35v180zM841 1232c-269 -57 -486 -114 -651 -172l27 110c87 32 209 66 363 104c156 36 251 59 286 66z" />
    <glyph glyph-name="uniFB95" unicode="&#x6af;" horiz-adv-x="1036" arabic-form="medial" 
d="M-46 215c0 23 14 34 41 34h101c88 1 167 14 236 39c43 16 64 34 65 55c0 43 -63 125 -189 245c-43 41 -85 78 -128 111l43 236c14 4 37 11 69 19c33 10 124 35 273 77s292 76 428 102l-56 -214c-115 -17 -236 -42 -365 -73c-129 -32 -198 -49 -207 -52
c99 -79 194 -162 283 -248c90 -88 153 -147 188 -180c35 -32 77 -60 126 -82c48 -24 92 -35 132 -35h48c27 0 41 -11 41 -34v-180c0 -23 -14 -35 -41 -35h-75c-123 0 -259 89 -410 268l-54 60c-3 -115 -49 -201 -138 -258c-71 -47 -158 -70 -260 -70h-110
c-27 0 -41 12 -41 35v180zM833 1232c-267 -57 -484 -114 -650 -172l25 110c85 31 206 66 363 103s253 60 288 67z" />
    <glyph glyph-name="uniFBFD" unicode="&#x6cc;" horiz-adv-x="1390" arabic-form="final" 
d="M1135 261l261 -12c27 0 41 -11 41 -34v-180c0 -23 -14 -35 -41 -35c-91 0 -176 6 -254 18c-79 12 -129 18 -152 18c-22 0 -34 0 -35 1c-42 0 -75 -8 -99 -23s-36 -31 -36 -48c0 -22 14 -35 43 -39l274 -43c28 -3 52 -15 73 -37s31 -49 31 -81v-8
c-6 -177 -145 -279 -417 -308c-76 -8 -166 -12 -271 -12c-312 0 -469 115 -471 345c0 83 32 191 95 323c22 47 46 71 72 71s39 -13 39 -39c-1 0 -12 -28 -31 -84s-29 -104 -30 -145c0 -104 61 -177 182 -220c72 -25 158 -38 258 -38c299 0 448 23 448 70c0 17 -19 28 -58 33
l-241 43c-81 15 -121 47 -121 95c0 80 40 162 121 244c80 84 186 125 319 125z" />
    <glyph glyph-name="uniFC5E" unicode="&#xfc5e;" arabic-form="isolated" 
d="M147 569c0 -35 -7 -66 -21 -93l59 -7l-48 -77c-21 0 -40 2 -59 7c-31 -57 -96 -99 -196 -127c-27 -8 -55 -13 -83 -14c13 51 20 87 20 110c0 37 -18 55 -54 55c-27 0 -54 -9 -82 -27c2 39 15 70 39 94c20 23 44 34 70 34c28 0 48 -8 62 -25s21 -38 21 -65s-3 -55 -10 -84
h5c16 0 41 6 74 19s59 30 78 51c-40 9 -68 30 -84 62c-5 9 -7 19 -7 29c0 36 16 72 49 108c32 36 64 54 96 54c47 0 71 -35 71 -104zM-108 197c-7 -21 -11 -43 -11 -65c0 -24 8 -35 23 -35c31 0 55 45 71 136l40 23v-10c0 -51 15 -76 44 -76c26 0 39 10 39 30
c0 43 2 68 6 75c5 15 23 31 54 48l-5 -135c-3 -30 -15 -60 -37 -88c-22 -30 -44 -44 -68 -44c-22 0 -40 3 -52 10c-31 -47 -67 -71 -106 -71c-50 0 -75 28 -75 83c1 33 8 61 22 84s30 35 49 35h6zM91 530c0 42 -14 63 -43 63c-35 0 -52 -13 -52 -37c0 -26 29 -48 88 -69
c5 15 7 29 7 43z" />
    <glyph glyph-name="uniFC5F" unicode="&#xfc5f;" arabic-form="isolated" 
d="M-117 546c-7 -21 -11 -43 -11 -66c0 -24 8 -36 23 -36c31 0 55 45 73 134l39 23c0 -53 14 -79 41 -79s41 10 41 29c1 47 6 76 17 87c10 10 24 19 43 27l-5 -124c-3 -31 -15 -60 -36 -89c-22 -29 -44 -43 -68 -43c-22 0 -40 3 -53 9c-23 -51 -59 -77 -107 -77
c-50 0 -74 31 -74 91c0 62 16 99 49 113c9 4 19 4 28 1zM151 318l-347 -176l20 85l347 178zM151 179l-347 -177l20 86l347 177z" />
    <glyph glyph-name="uniFC60" unicode="&#xfc60;" arabic-form="isolated" 
d="M172 443l-347 -176l20 85l347 178zM167 196c-3 -31 -14 -60 -34 -88c-25 -29 -49 -44 -72 -44s-40 3 -51 9c-34 -47 -69 -71 -106 -71c-50 0 -75 28 -75 84c0 33 7 61 21 84s30 35 49 34h6c-7 -24 -11 -46 -11 -68c0 -20 8 -31 24 -31c33 0 57 47 71 142l39 21v-10
c0 -54 15 -81 45 -81c26 0 39 10 39 30c0 43 2 68 5 75c5 15 24 31 55 48z" />
    <glyph glyph-name="uniFC61" unicode="&#xfc61;" arabic-form="isolated" 
d="M110 455c1 -1 22 -6 62 -15c-9 -27 -25 -53 -48 -76c-37 7 -60 13 -69 18c-33 -40 -73 -69 -120 -86s-88 -26 -123 -26s-55 10 -61 30c108 26 189 60 244 103c-61 27 -91 59 -91 97c0 39 17 76 51 112c37 35 72 53 105 53c51 0 76 -31 76 -94c0 -33 -9 -72 -26 -116z
M161 194c-3 -31 -15 -60 -37 -89c-21 -29 -43 -43 -66 -43c-22 0 -40 3 -53 9c-33 -47 -68 -71 -107 -71c-50 0 -75 28 -75 84c1 32 8 60 21 83c14 23 30 35 47 36c3 0 6 0 9 -1c-7 -24 -11 -46 -11 -68c0 -20 8 -31 24 -31c31 0 54 45 71 135l39 23v-10
c0 -50 15 -75 44 -75c26 0 39 10 39 30c0 43 2 68 6 74c4 14 22 30 55 49zM73 524c0 41 -13 61 -39 61c-36 0 -54 -13 -54 -39c0 -31 27 -54 82 -70c7 11 11 27 11 48z" />
    <glyph glyph-name="uniFC62" unicode="&#xfc62;" arabic-form="isolated" 
d="M20 460c0 -42 14 -64 43 -65c26 0 39 10 39 31c0 39 3 66 10 80c6 15 23 29 50 42l-5 -134c-2 -31 -15 -61 -37 -90c-24 -29 -45 -43 -65 -43s-38 3 -55 10c-32 -47 -67 -71 -106 -71c-50 0 -75 28 -75 84c0 44 7 76 21 96c18 21 36 32 55 32c-7 -38 -11 -66 -11 -84
c0 -17 7 -26 22 -26c31 0 56 47 77 140l39 23c-1 -9 -2 -18 -2 -25zM157 183l-347 -178l20 87l347 176z" />
    <glyph glyph-name="uniFE80" unicode="&#x621;" horiz-adv-x="725" arabic-form="isolated" 
d="M101 -13c-7 23 -10 46 -10 69s10 52 31 84c21 34 42 54 63 61c-41 39 -62 88 -62 147s31 121 93 186c63 66 125 99 186 99s106 -14 135 -41c27 -23 41 -51 41 -86s-13 -65 -39 -92c-43 37 -93 56 -150 56c-27 0 -55 -6 -85 -18s-45 -30 -45 -54c0 -25 16 -49 49 -72
c32 -24 64 -36 96 -36c73 0 148 18 226 53l-32 -177l-153 -34c-133 -29 -247 -78 -344 -145z" />
    <glyph glyph-name="uniFE82" unicode="&#x622;" horiz-adv-x="470" arabic-form="final" 
d="M482 0h-59c-89 0 -156 26 -201 78c-45 53 -67 103 -67 152c0 80 -6 223 -19 428c-12 205 -27 359 -45 462l49 47c80 78 124 117 132 117c7 0 13 -68 18 -203l21 -699c3 -51 15 -86 37 -105s56 -28 102 -28c45 0 68 -11 68 -34v-180c0 -23 -12 -35 -36 -35zM244 1481
c83 0 143 34 178 103l18 -41c-11 -61 -45 -108 -104 -141c-35 -20 -98 -30 -190 -30c-67 0 -110 -26 -130 -79c-25 9 -37 30 -37 63c0 34 11 64 33 90c21 26 51 39 90 39h8l100 -3c9 -1 20 -1 34 -1z" />
    <glyph glyph-name="uniFE84" unicode="&#x623;" horiz-adv-x="470" arabic-form="final" 
d="M482 0h-59c-89 0 -156 26 -201 78c-45 53 -67 103 -67 152c0 80 -6 223 -19 428c-12 205 -27 359 -45 462l49 47c80 78 124 117 132 117c7 0 13 -68 18 -203l21 -699c3 -51 15 -86 37 -105s56 -28 102 -28c45 0 68 -11 68 -34v-180c0 -23 -12 -35 -36 -35zM25 1291
c-6 15 -9 29 -9 43c0 38 23 70 69 95c-39 24 -58 56 -58 95c0 40 21 80 63 120c41 39 83 59 125 59c61 0 91 -24 91 -72c0 -22 -6 -39 -18 -51c-19 20 -48 30 -87 30c-70 0 -105 -18 -105 -54c0 -26 21 -47 63 -63c11 -4 34 -6 69 -6c34 0 76 14 127 41l-31 -107
c-29 -3 -66 -10 -111 -23c-94 -27 -157 -62 -188 -107z" />
    <glyph glyph-name="uniFE86" unicode="&#x624;" horiz-adv-x="831" arabic-form="final" 
d="M878 35c0 -23 -14 -35 -41 -35h-161c-7 -161 -44 -290 -114 -385c-68 -95 -121 -143 -158 -143s-113 6 -230 20c-116 12 -174 25 -174 38s28 29 84 50c119 44 228 110 330 196c100 88 151 153 151 198c0 10 -3 22 -10 37c-35 -7 -89 -11 -160 -11
c-169 0 -253 53 -253 160c0 68 19 149 57 244c52 133 118 200 198 200c117 0 198 -73 245 -219c13 -41 22 -86 25 -136h170c27 0 41 -11 41 -34v-180zM526 240c-28 99 -85 149 -170 149c-26 0 -47 -9 -64 -27c-16 -17 -24 -34 -24 -51c0 -53 47 -80 141 -80c36 0 75 3 117 9
zM211 725c-6 15 -9 29 -9 43c0 38 23 70 69 95c-39 24 -58 56 -58 95c0 40 21 80 63 120c41 39 83 59 125 59c61 0 91 -24 91 -72c0 -22 -6 -39 -18 -51c-19 20 -48 30 -87 30c-70 0 -105 -18 -105 -54c0 -26 21 -47 63 -63c11 -4 34 -6 69 -6c34 0 76 14 127 41l-31 -107
c-29 -3 -66 -10 -111 -23c-94 -27 -157 -62 -188 -107z" />
    <glyph glyph-name="uniFE88" unicode="&#x625;" horiz-adv-x="470" arabic-form="final" 
d="M482 0h-59c-89 0 -156 26 -201 78c-45 53 -67 103 -67 152c0 80 -6 223 -19 428c-12 205 -27 359 -45 462l49 47c80 78 124 117 132 117c7 0 13 -68 18 -203l21 -699c3 -51 15 -86 37 -105s56 -28 102 -28c45 0 68 -11 68 -34v-180c0 -23 -12 -35 -36 -35zM179 -598
c-6 15 -9 29 -9 43c0 38 23 70 69 95c-39 24 -58 56 -58 96c0 39 21 79 63 118c41 40 83 60 125 60c61 0 91 -24 91 -72c0 -22 -6 -39 -18 -51c-19 20 -48 30 -87 30c-70 0 -105 -18 -105 -54c0 -26 21 -47 63 -63c11 -4 34 -6 69 -6c34 0 76 14 127 41l-31 -107
c-29 -3 -66 -10 -111 -23c-94 -27 -157 -62 -188 -107z" />
    <glyph glyph-name="uniFE8A" unicode="&#x626;" horiz-adv-x="1390" arabic-form="final" 
d="M1135 261l261 -12c27 0 41 -11 41 -34v-180c0 -23 -14 -35 -41 -35c-91 0 -176 6 -254 18c-79 12 -129 18 -152 18c-22 0 -34 0 -35 1c-42 0 -75 -8 -99 -23s-36 -31 -36 -48c0 -22 14 -35 43 -39l274 -43c28 -3 52 -15 73 -37s31 -49 31 -81v-8
c-6 -177 -145 -279 -417 -308c-76 -8 -166 -12 -271 -12c-312 0 -469 115 -471 345c0 83 32 191 95 323c22 47 46 71 72 71s39 -13 39 -39c-1 0 -12 -28 -31 -84s-29 -104 -30 -145c0 -104 61 -177 182 -220c72 -25 158 -38 258 -38c299 0 448 23 448 70c0 17 -19 28 -58 33
l-241 43c-81 15 -121 47 -121 95c0 80 40 162 121 244c80 84 186 125 319 125zM392 404c-6 15 -9 29 -9 43c0 38 23 70 69 95c-39 24 -58 56 -58 96c0 39 21 79 62 118c42 40 84 60 126 60c61 0 91 -24 91 -72c0 -22 -6 -39 -18 -51c-19 20 -48 30 -87 30
c-70 0 -105 -18 -105 -54c0 -26 21 -47 63 -63c11 -4 34 -6 68 -6c35 0 77 14 128 41l-31 -107c-29 -3 -66 -10 -111 -23c-94 -27 -157 -62 -188 -107z" />
    <glyph glyph-name="uniFE8B" unicode="&#x626;" horiz-adv-x="465" arabic-form="initial" 
d="M430 386c0 -257 -116 -386 -348 -386h-87c-27 0 -41 12 -41 35v180c0 23 14 34 41 34c206 0 309 22 309 66c0 25 -39 85 -117 181l131 203c75 -83 112 -188 112 -313zM33 767c-6 15 -9 29 -9 43c0 38 23 70 69 95c-39 24 -58 56 -58 95c0 40 21 80 63 120
c41 39 83 59 125 59c61 0 91 -24 91 -72c0 -22 -6 -39 -18 -51c-19 20 -48 30 -87 30c-70 0 -105 -18 -105 -54c0 -26 21 -47 63 -63c11 -4 34 -6 69 -6c34 0 76 14 127 41l-31 -107c-29 -3 -66 -10 -111 -23c-94 -27 -157 -62 -188 -107z" />
    <glyph glyph-name="uniFE8C" unicode="&#x626;" horiz-adv-x="725" arabic-form="medial" 
d="M731 0h-62c-84 0 -162 52 -233 155c-23 -44 -61 -81 -114 -111c-54 -29 -106 -44 -155 -44h-172c-27 0 -41 12 -41 35v180c0 23 16 34 49 34h107c147 0 235 40 265 119c11 28 16 59 16 94s16 52 47 52c11 0 21 -5 30 -14c8 -10 12 -21 12 -32c0 -146 75 -219 226 -219h25
c27 0 41 -11 41 -34v-180c0 -23 -14 -35 -41 -35zM254 719c-6 15 -9 29 -9 43c0 38 23 70 69 95c-39 24 -58 56 -58 95c0 40 21 80 62 120c42 39 84 59 126 59c61 0 91 -24 91 -72c0 -22 -6 -39 -18 -51c-19 20 -48 30 -87 30c-70 0 -105 -18 -105 -54c0 -26 21 -47 63 -63
c11 -4 34 -6 68 -6c35 0 77 14 128 41l-31 -107c-29 -3 -66 -10 -111 -23c-94 -27 -157 -62 -188 -107z" />
    <glyph glyph-name="uniFE90" unicode="&#x628;" horiz-adv-x="1653" arabic-form="final" 
d="M1446 509c30 0 45 -17 45 -53c0 -34 -13 -77 -38 -128c27 -53 96 -79 206 -79c27 0 41 -11 41 -34v-180c0 -23 -14 -35 -41 -35c-83 0 -146 12 -187 37c-39 25 -76 73 -110 144c-165 -136 -401 -204 -708 -204c-183 0 -320 28 -412 85c-91 56 -137 150 -137 281
c0 70 15 135 44 196s54 91 75 91c27 0 41 -13 41 -38c1 -3 -5 -17 -16 -42s-17 -61 -18 -108c0 -71 39 -124 119 -160c78 -37 179 -55 302 -55c361 0 602 70 723 209c45 49 68 73 71 73zM686 -486l-132 133l132 130l132 -130z" />
    <glyph glyph-name="uniFE91" unicode="&#x628;" horiz-adv-x="465" arabic-form="initial" 
d="M430 386c0 -257 -116 -386 -348 -386h-87c-27 0 -41 12 -41 35v180c0 23 14 34 41 34c206 0 309 22 309 66c0 25 -39 85 -117 181l131 203c75 -83 112 -188 112 -313zM153 -466l-132 133l132 130l132 -130z" />
    <glyph glyph-name="uniFE92" unicode="&#x628;" horiz-adv-x="725" arabic-form="medial" 
d="M731 0h-62c-84 0 -162 52 -233 155c-23 -44 -61 -81 -114 -111c-54 -29 -106 -44 -155 -44h-172c-27 0 -41 12 -41 35v180c0 23 16 34 49 34h107c147 0 235 40 265 119c11 28 16 59 16 94s16 52 47 52c11 0 21 -5 30 -14c8 -10 12 -21 12 -32c0 -146 75 -219 226 -219h25
c27 0 41 -11 41 -34v-180c0 -23 -14 -35 -41 -35zM406 -468l-132 133l132 130l132 -130z" />
    <glyph glyph-name="uniFE94" unicode="&#x629;" horiz-adv-x="870" arabic-form="final" 
d="M919 35c0 -23 -14 -35 -43 -35h-26c-131 0 -220 82 -267 246h-3l-98 -130c-13 -5 -42 -8 -89 -8s-98 9 -155 28c-95 31 -143 59 -143 86c1 39 9 86 27 140c16 56 38 93 63 113c53 49 151 109 294 181l-24 98l136 151l106 -517c16 -93 66 -139 149 -139h30
c29 0 43 -11 43 -34v-180zM507 541c-175 -79 -263 -133 -263 -161c0 -13 27 -28 81 -43s94 -23 119 -23h72c22 -1 37 1 45 6zM446 946l-119 119l119 121l119 -121zM174 946l-119 119l119 121l119 -121z" />
    <glyph glyph-name="uniFE96" unicode="&#x62a;" horiz-adv-x="1653" arabic-form="final" 
d="M1446 509c30 0 45 -17 45 -53c0 -34 -13 -77 -38 -128c27 -53 96 -79 206 -79c27 0 41 -11 41 -34v-180c0 -23 -14 -35 -41 -35c-83 0 -146 12 -187 37c-39 25 -76 73 -110 144c-165 -136 -401 -204 -708 -204c-183 0 -320 28 -412 85c-91 56 -137 150 -137 281
c0 70 15 135 44 196s54 91 75 91c27 0 41 -13 41 -38c1 -3 -5 -17 -16 -42s-17 -61 -18 -108c0 -71 39 -124 119 -160c78 -37 179 -55 302 -55c361 0 602 70 723 209c45 49 68 73 71 73zM935 733l-119 119l119 121l119 -121zM663 733l-119 119l119 121l119 -121z" />
    <glyph glyph-name="uniFE97" unicode="&#x62a;" horiz-adv-x="465" arabic-form="initial" 
d="M430 386c0 -257 -116 -386 -348 -386h-87c-27 0 -41 12 -41 35v180c0 23 14 34 41 34c206 0 309 22 309 66c0 25 -39 85 -117 181l131 203c75 -83 112 -188 112 -313zM309 833l-119 119l119 121l119 -121zM37 833l-119 119l119 121l119 -121z" />
    <glyph glyph-name="uniFE98" unicode="&#x62a;" horiz-adv-x="725" arabic-form="medial" 
d="M731 0h-62c-84 0 -162 52 -233 155c-23 -44 -61 -81 -114 -111c-54 -29 -106 -44 -155 -44h-172c-27 0 -41 12 -41 35v180c0 23 16 34 49 34h107c147 0 235 40 265 119c11 28 16 59 16 94s16 52 47 52c11 0 21 -5 30 -14c8 -10 12 -21 12 -32c0 -146 75 -219 226 -219h25
c27 0 41 -11 41 -34v-180c0 -23 -14 -35 -41 -35zM560 723l-119 119l119 121l119 -121zM288 723l-119 119l119 121l119 -121z" />
    <glyph glyph-name="uniFE9A" unicode="&#x62b;" horiz-adv-x="1653" arabic-form="final" 
d="M1446 509c30 0 45 -17 45 -53c0 -34 -13 -77 -38 -128c27 -53 96 -79 206 -79c27 0 41 -11 41 -34v-180c0 -23 -14 -35 -41 -35c-83 0 -146 12 -187 37c-39 25 -76 73 -110 144c-165 -136 -401 -204 -708 -204c-183 0 -320 28 -412 85c-91 56 -137 150 -137 281
c0 70 15 135 44 196s54 91 75 91c27 0 41 -13 41 -38c1 -3 -5 -17 -16 -42s-17 -61 -18 -108c0 -71 39 -124 119 -160c78 -37 179 -55 302 -55c361 0 602 70 723 209c45 49 68 73 71 73zM801 948l-119 120l119 121l119 -121zM937 711l-120 119l120 122l119 -122zM665 711
l-120 119l120 122l119 -122z" />
    <glyph glyph-name="uniFE9B" unicode="&#x62b;" horiz-adv-x="465" arabic-form="initial" 
d="M430 386c0 -257 -116 -386 -348 -386h-87c-27 0 -41 12 -41 35v180c0 23 14 34 41 34c206 0 309 22 309 66c0 25 -39 85 -117 181l131 203c75 -83 112 -188 112 -313zM184 1047l-119 120l119 121l119 -121zM320 810l-120 119l120 122l119 -122zM48 810l-120 119l120 122
l119 -122z" />
    <glyph glyph-name="uniFE9C" unicode="&#x62b;" horiz-adv-x="725" arabic-form="medial" 
d="M731 0h-62c-84 0 -162 52 -233 155c-23 -44 -61 -81 -114 -111c-54 -29 -106 -44 -155 -44h-172c-27 0 -41 12 -41 35v180c0 23 16 34 49 34h107c147 0 235 40 265 119c11 28 16 59 16 94s16 52 47 52c11 0 21 -5 30 -14c8 -10 12 -21 12 -32c0 -146 75 -219 226 -219h25
c27 0 41 -11 41 -34v-180c0 -23 -14 -35 -41 -35zM411 919l-119 120l119 121l119 -121zM547 682l-120 119l120 122l119 -122zM275 682l-120 119l120 122l119 -122z" />
    <glyph glyph-name="uniFE9E" unicode="&#x62c;" horiz-adv-x="1282" arabic-form="final" 
d="M1083 441c-74 0 -129 -4 -164 -11v-33c0 -79 54 -126 161 -141c33 -5 72 -7 117 -7h91c27 0 41 -11 41 -34v-180c0 -23 -14 -35 -41 -35h-150c-80 0 -151 24 -213 73c-74 54 -111 128 -111 222c0 29 1 55 3 78s3 39 3 47c-165 -45 -288 -107 -372 -186
c-82 -79 -124 -183 -124 -312c0 -93 34 -168 103 -224c86 -72 225 -108 416 -108c95 0 177 6 247 19c61 8 91 14 91 17v1c7 -2 11 -7 11 -15s-11 -22 -34 -43c-95 -87 -237 -131 -427 -131s-339 33 -448 100c-128 76 -192 188 -192 336c0 265 187 460 561 583v9
c-119 26 -209 39 -269 39s-105 -11 -134 -32c-8 -7 -23 -23 -47 -49c-22 -27 -40 -40 -51 -40c-21 0 -32 12 -32 36c0 47 24 107 71 180c57 91 123 136 196 136c43 0 134 -13 274 -40c138 -27 245 -40 318 -40c74 0 147 4 219 13zM683 -192l-132 133l132 130l132 -130z" />
    <glyph glyph-name="uniFE9F" unicode="&#x62c;" horiz-adv-x="1216" arabic-form="initial" 
d="M1057 288c-7 1 -13 2 -19 2h-17c-45 0 -99 -12 -163 -34c-65 -24 -170 -72 -316 -146c-146 -73 -294 -110 -443 -110h-104c-27 0 -41 12 -41 35v180c0 23 14 34 41 34h94c123 0 231 10 323 30c85 23 191 57 317 101v8c-167 78 -284 117 -350 117c-42 0 -82 -19 -121 -59
c-39 -38 -62 -58 -71 -58c-24 0 -36 12 -36 37c0 39 24 94 73 166c61 89 130 134 208 134c42 0 126 -29 252 -87c126 -57 221 -95 284 -114c64 -19 119 -28 165 -28h50zM547 -402l-132 133l132 130l132 -130z" />
    <glyph glyph-name="uniFEA0" unicode="&#x62c;" horiz-adv-x="1243" arabic-form="medial" 
d="M1249 0h-109c-128 0 -221 34 -279 103c-41 49 -62 112 -62 188c0 8 0 16 1 24c-149 -125 -279 -209 -388 -251c-109 -43 -248 -64 -417 -64c-27 0 -41 12 -41 35v180c0 23 14 34 41 34c157 0 277 11 362 32c149 37 278 94 385 169v7c-99 29 -181 50 -246 61
c-66 11 -104 17 -114 17c-42 0 -82 -19 -120 -59c-38 -38 -62 -58 -72 -58c-23 0 -35 12 -35 37c0 39 24 95 72 166c61 89 130 133 209 133c61 0 131 -16 208 -48c137 -57 270 -86 399 -87h19l119 2l-102 -228c-35 4 -69 6 -101 6c-31 0 -60 -6 -85 -19v-5
c0 -57 36 -93 108 -108c48 -12 131 -18 248 -18c27 0 40 -11 40 -34v-180c0 -23 -13 -35 -40 -35zM579 -383l-132 133l132 130l132 -130z" />
    <glyph glyph-name="uniFEA2" unicode="&#x62d;" horiz-adv-x="1282" arabic-form="final" 
d="M1083 441c-74 0 -129 -4 -164 -11v-33c0 -79 54 -126 161 -141c33 -5 72 -7 117 -7h91c27 0 41 -11 41 -34v-180c0 -23 -14 -35 -41 -35h-150c-80 0 -151 24 -213 73c-74 54 -111 128 -111 222c0 29 1 55 3 78s3 39 3 47c-165 -45 -288 -107 -372 -186
c-82 -79 -124 -183 -124 -312c0 -93 34 -168 103 -224c86 -72 225 -108 416 -108c95 0 177 6 247 19c61 8 91 14 91 17v1c7 -2 11 -7 11 -15s-11 -22 -34 -43c-95 -87 -237 -131 -427 -131s-339 33 -448 100c-128 76 -192 188 -192 336c0 265 187 460 561 583v9
c-119 26 -209 39 -269 39s-105 -11 -134 -32c-8 -7 -23 -23 -47 -49c-22 -27 -40 -40 -51 -40c-21 0 -32 12 -32 36c0 47 24 107 71 180c57 91 123 136 196 136c43 0 134 -13 274 -40c138 -27 245 -40 318 -40c74 0 147 4 219 13z" />
    <glyph glyph-name="uniFEA3" unicode="&#x62d;" horiz-adv-x="1216" arabic-form="initial" 
d="M1057 288c-7 1 -13 2 -19 2h-17c-45 0 -99 -12 -163 -34c-65 -24 -170 -72 -316 -146c-146 -73 -294 -110 -443 -110h-104c-27 0 -41 12 -41 35v180c0 23 14 34 41 34h94c123 0 231 10 323 30c85 23 191 57 317 101v8c-167 78 -284 117 -350 117c-42 0 -82 -19 -121 -59
c-39 -38 -62 -58 -71 -58c-24 0 -36 12 -36 37c0 39 24 94 73 166c61 89 130 134 208 134c42 0 126 -29 252 -87c126 -57 221 -95 284 -114c64 -19 119 -28 165 -28h50z" />
    <glyph glyph-name="uniFEA4" unicode="&#x62d;" horiz-adv-x="1243" arabic-form="medial" 
d="M1249 0h-109c-128 0 -221 34 -279 103c-41 49 -62 112 -62 188c0 8 0 16 1 24c-149 -125 -279 -209 -388 -251c-109 -43 -248 -64 -417 -64c-27 0 -41 12 -41 35v180c0 23 14 34 41 34c157 0 277 11 362 32c149 37 278 94 385 169v7c-99 29 -181 50 -246 61
c-66 11 -104 17 -114 17c-42 0 -82 -19 -120 -59c-38 -38 -62 -58 -72 -58c-23 0 -35 12 -35 37c0 39 24 95 72 166c61 89 130 133 209 133c61 0 131 -16 208 -48c137 -57 270 -86 399 -87h19l119 2l-102 -228c-35 4 -69 6 -101 6c-31 0 -60 -6 -85 -19v-5
c0 -57 36 -93 108 -108c48 -12 131 -18 248 -18c27 0 40 -11 40 -34v-180c0 -23 -13 -35 -40 -35z" />
    <glyph glyph-name="uniFEA6" unicode="&#x62e;" horiz-adv-x="1282" arabic-form="final" 
d="M1083 441c-74 0 -129 -4 -164 -11v-33c0 -79 54 -126 161 -141c33 -5 72 -7 117 -7h91c27 0 41 -11 41 -34v-180c0 -23 -14 -35 -41 -35h-150c-80 0 -151 24 -213 73c-74 54 -111 128 -111 222c0 29 1 55 3 78s3 39 3 47c-165 -45 -288 -107 -372 -186
c-82 -79 -124 -183 -124 -312c0 -93 34 -168 103 -224c86 -72 225 -108 416 -108c95 0 177 6 247 19c61 8 91 14 91 17v1c7 -2 11 -7 11 -15s-11 -22 -34 -43c-95 -87 -237 -131 -427 -131s-339 33 -448 100c-128 76 -192 188 -192 336c0 265 187 460 561 583v9
c-119 26 -209 39 -269 39s-105 -11 -134 -32c-8 -7 -23 -23 -47 -49c-22 -27 -40 -40 -51 -40c-21 0 -32 12 -32 36c0 47 24 107 71 180c57 91 123 136 196 136c43 0 134 -13 274 -40c138 -27 245 -40 318 -40c74 0 147 4 219 13zM695 918l-132 133l132 130l132 -130z" />
    <glyph glyph-name="uniFEA7" unicode="&#x62e;" horiz-adv-x="1216" arabic-form="initial" 
d="M1057 288c-7 1 -13 2 -19 2h-17c-45 0 -99 -12 -163 -34c-65 -24 -170 -72 -316 -146c-146 -73 -294 -110 -443 -110h-104c-27 0 -41 12 -41 35v180c0 23 14 34 41 34h94c123 0 231 10 323 30c85 23 191 57 317 101v8c-167 78 -284 117 -350 117c-42 0 -82 -19 -121 -59
c-39 -38 -62 -58 -71 -58c-24 0 -36 12 -36 37c0 39 24 94 73 166c61 89 130 134 208 134c42 0 126 -29 252 -87c126 -57 221 -95 284 -114c64 -19 119 -28 165 -28h50zM679 857l-132 133l132 130l132 -130z" />
    <glyph glyph-name="uniFEA8" unicode="&#x62e;" horiz-adv-x="1243" arabic-form="medial" 
d="M1249 0h-109c-128 0 -221 34 -279 103c-41 49 -62 112 -62 188c0 8 0 16 1 24c-149 -125 -279 -209 -388 -251c-109 -43 -248 -64 -417 -64c-27 0 -41 12 -41 35v180c0 23 14 34 41 34c157 0 277 11 362 32c149 37 278 94 385 169v7c-99 29 -181 50 -246 61
c-66 11 -104 17 -114 17c-42 0 -82 -19 -120 -59c-38 -38 -62 -58 -72 -58c-23 0 -35 12 -35 37c0 39 24 95 72 166c61 89 130 133 209 133c61 0 131 -16 208 -48c137 -57 270 -86 399 -87h19l119 2l-102 -228c-35 4 -69 6 -101 6c-31 0 -60 -6 -85 -19v-5
c0 -57 36 -93 108 -108c48 -12 131 -18 248 -18c27 0 40 -11 40 -34v-180c0 -23 -13 -35 -40 -35zM733 916l-132 133l132 130l132 -130z" />
    <glyph glyph-name="uniFEAA" unicode="&#x62f;" horiz-adv-x="1047" arabic-form="final" 
d="M1053 0c-113 0 -196 39 -251 116c-16 23 -32 50 -48 81c-83 -131 -208 -197 -374 -197c-186 0 -279 75 -279 226c0 56 8 104 25 144c16 39 33 59 51 59c23 0 35 -22 35 -65c0 -44 16 -74 46 -90c32 -17 83 -25 156 -25s138 10 196 29c52 20 78 40 78 60
c0 25 -6 52 -19 82l-130 313l128 172l187 -512c17 -52 40 -89 67 -110c28 -21 72 -32 132 -34c27 0 41 -11 41 -34v-180c0 -23 -14 -35 -41 -35z" />
    <glyph glyph-name="uniFEAC" unicode="&#x630;" horiz-adv-x="1047" arabic-form="final" 
d="M1053 0c-113 0 -196 39 -251 116c-16 23 -32 50 -48 81c-83 -131 -208 -197 -374 -197c-186 0 -279 75 -279 226c0 56 8 104 25 144c16 39 33 59 51 59c23 0 35 -22 35 -65c0 -44 16 -74 46 -90c32 -17 83 -25 156 -25s138 10 196 29c52 20 78 40 78 60
c0 25 -6 52 -19 82l-130 313l128 172l187 -512c17 -52 40 -89 67 -110c28 -21 72 -32 132 -34c27 0 41 -11 41 -34v-180c0 -23 -14 -35 -41 -35zM575 1020l-132 133l132 130l132 -130z" />
    <glyph glyph-name="uniFEAE" unicode="&#x631;" horiz-adv-x="827" arabic-form="final" 
d="M665 26c5 -12 7 -32 7 -59c0 -75 -18 -156 -55 -243c-12 -29 -26 -55 -41 -78c-73 -116 -129 -174 -166 -174c-54 0 -136 6 -246 19c-109 13 -164 25 -164 38s29 29 88 49c111 37 218 101 320 192s153 162 153 212c0 52 -59 138 -177 260l103 233
c63 -91 110 -148 141 -169c54 -38 119 -57 196 -57h9c28 2 42 -9 42 -34v-180c0 -23 -14 -35 -42 -35c-79 0 -135 9 -168 26z" />
    <glyph glyph-name="uniFEB0" unicode="&#x632;" horiz-adv-x="827" arabic-form="final" 
d="M665 26c5 -12 7 -32 7 -59c0 -75 -18 -156 -55 -243c-12 -29 -26 -55 -41 -78c-73 -116 -129 -174 -166 -174c-54 0 -136 6 -246 19c-109 13 -164 25 -164 38s29 29 88 49c111 37 218 101 320 192s153 162 153 212c0 52 -59 138 -177 260l103 233
c63 -91 110 -148 141 -169c54 -38 119 -57 196 -57h9c28 2 42 -9 42 -34v-180c0 -23 -14 -35 -42 -35c-79 0 -135 9 -168 26zM466 609l-132 133l132 130l132 -130z" />
    <glyph glyph-name="uniFEB2" unicode="&#x633;" horiz-adv-x="1931" arabic-form="final" 
d="M1936 0h-24c-89 0 -164 46 -226 138c-53 -92 -116 -138 -188 -138s-134 43 -186 130c-8 -33 -23 -59 -45 -78c-56 -35 -90 -52 -103 -52h-3c-31 0 -52 4 -65 13v-99c0 -151 -53 -265 -159 -343c-101 -77 -242 -115 -423 -115c-133 0 -238 34 -316 102
c-77 67 -116 170 -116 308c0 82 28 179 84 291c35 68 64 102 87 102s35 -11 35 -33l-40 -109c-27 -72 -40 -128 -40 -169c0 -83 34 -144 103 -185c61 -39 145 -58 251 -58s194 13 264 39c69 25 117 51 142 78c25 26 38 56 38 91v5c0 67 -72 175 -216 324l103 224
c60 -83 107 -140 141 -170c34 -32 66 -47 97 -47c47 0 84 23 112 69c24 37 36 76 36 116c0 42 15 62 45 62c29 0 44 -20 44 -60s13 -81 38 -124c26 -42 60 -63 102 -63c43 0 78 23 105 69c21 40 32 80 32 119s15 59 45 59s45 -21 45 -62c0 -42 16 -81 47 -116
c39 -46 90 -69 154 -69c27 0 41 -11 41 -34v-180c0 -23 -14 -35 -41 -35z" />
    <glyph glyph-name="uniFEB3" unicode="&#x633;" horiz-adv-x="1301" arabic-form="initial" 
d="M1163 676c65 -87 98 -185 98 -294s-22 -200 -65 -272c-44 -74 -105 -110 -182 -110c-58 0 -105 13 -142 39c-29 23 -56 56 -82 99c-52 -92 -116 -138 -193 -138s-136 26 -179 79c-13 16 -26 36 -39 59c-39 -46 -82 -80 -130 -104c-48 -22 -114 -34 -197 -34h-57
c-27 0 -41 12 -41 35v180c0 23 14 34 41 34h96c79 0 138 17 178 51c40 35 60 76 60 124s15 72 45 72c31 0 46 -21 46 -62c0 -42 14 -83 42 -124c27 -41 65 -61 113 -61s86 21 114 62s42 83 42 123c0 42 15 62 45 62c29 0 44 -20 44 -62c0 -40 14 -82 42 -123
c29 -41 70 -62 124 -62c109 0 164 30 164 90c0 25 -32 76 -97 153z" />
    <glyph glyph-name="uniFEB4" unicode="&#x633;" horiz-adv-x="1450" arabic-form="medial" 
d="M1455 0h-24c-88 0 -163 46 -225 138c-54 -92 -118 -138 -192 -138c-58 0 -105 13 -142 39c-29 23 -56 56 -82 99c-52 -92 -116 -138 -193 -138s-136 26 -179 79c-13 16 -26 36 -39 59c-39 -46 -82 -80 -130 -104c-48 -22 -114 -34 -197 -34h-57c-27 0 -41 12 -41 35v180
c0 23 14 34 41 34h96c79 0 138 17 178 51c40 35 60 76 60 124s15 72 45 72c31 0 46 -21 46 -62c0 -42 14 -83 42 -124c27 -41 66 -61 118 -61c50 0 90 21 119 62s43 83 43 123c0 42 15 62 44 62c30 0 45 -20 45 -62c0 -40 14 -82 43 -123c28 -41 69 -62 123 -62
s95 21 125 61c28 42 43 83 43 124s15 62 45 62c29 0 44 -21 44 -62s17 -82 52 -124c34 -40 84 -61 149 -61c28 0 42 -11 42 -34v-180c0 -23 -14 -35 -42 -35z" />
    <glyph glyph-name="uniFEB6" unicode="&#x634;" horiz-adv-x="1931" arabic-form="final" 
d="M1936 0h-24c-89 0 -164 46 -226 138c-53 -92 -116 -138 -188 -138s-134 43 -186 130c-8 -33 -23 -59 -45 -78c-56 -35 -90 -52 -103 -52h-3c-31 0 -52 4 -65 13v-99c0 -151 -53 -265 -159 -343c-101 -77 -242 -115 -423 -115c-133 0 -238 34 -316 102
c-77 67 -116 170 -116 308c0 82 28 179 84 291c35 68 64 102 87 102s35 -11 35 -33l-40 -109c-27 -72 -40 -128 -40 -169c0 -83 34 -144 103 -185c61 -39 145 -58 251 -58s194 13 264 39c69 25 117 51 142 78c25 26 38 56 38 91v5c0 67 -72 175 -216 324l103 224
c60 -83 107 -140 141 -170c34 -32 66 -47 97 -47c47 0 84 23 112 69c24 37 36 76 36 116c0 42 15 62 45 62c29 0 44 -20 44 -60s13 -81 38 -124c26 -42 60 -63 102 -63c43 0 78 23 105 69c21 40 32 80 32 119s15 59 45 59s45 -21 45 -62c0 -42 16 -81 47 -116
c39 -46 90 -69 154 -69c27 0 41 -11 41 -34v-180c0 -23 -14 -35 -41 -35zM1289 941l-119 120l119 121l119 -121zM1425 704l-120 119l120 122l119 -122zM1153 704l-120 119l120 122l119 -122z" />
    <glyph glyph-name="uniFEB7" unicode="&#x634;" horiz-adv-x="1301" arabic-form="initial" 
d="M1163 676c65 -87 98 -185 98 -294s-22 -200 -65 -272c-44 -74 -105 -110 -182 -110c-58 0 -105 13 -142 39c-29 23 -56 56 -82 99c-52 -92 -116 -138 -193 -138s-136 26 -179 79c-13 16 -26 36 -39 59c-39 -46 -82 -80 -130 -104c-48 -22 -114 -34 -197 -34h-57
c-27 0 -41 12 -41 35v180c0 23 14 34 41 34h96c79 0 138 17 178 51c40 35 60 76 60 124s15 72 45 72c31 0 46 -21 46 -62c0 -42 14 -83 42 -124c27 -41 65 -61 113 -61s86 21 114 62s42 83 42 123c0 42 15 62 45 62c29 0 44 -20 44 -62c0 -40 14 -82 42 -123
c29 -41 70 -62 124 -62c109 0 164 30 164 90c0 25 -32 76 -97 153zM765 969l-112 117l112 117l112 -117zM893 740l-113 115l113 118l111 -118zM637 740l-113 115l113 118l112 -118z" />
    <glyph glyph-name="uniFEB8" unicode="&#x634;" horiz-adv-x="1450" arabic-form="medial" 
d="M1455 0h-24c-88 0 -163 46 -225 138c-54 -92 -118 -138 -192 -138c-58 0 -105 13 -142 39c-29 23 -56 56 -82 99c-52 -92 -116 -138 -193 -138s-136 26 -179 79c-13 16 -26 36 -39 59c-39 -46 -82 -80 -130 -104c-48 -22 -114 -34 -197 -34h-57c-27 0 -41 12 -41 35v180
c0 23 14 34 41 34h96c79 0 138 17 178 51c40 35 60 76 60 124s15 72 45 72c31 0 46 -21 46 -62c0 -42 14 -83 42 -124c27 -41 66 -61 118 -61c50 0 90 21 119 62s43 83 43 123c0 42 15 62 44 62c30 0 45 -20 45 -62c0 -40 14 -82 43 -123c28 -41 69 -62 123 -62
s95 21 125 61c28 42 43 83 43 124s15 62 45 62c29 0 44 -21 44 -62s17 -82 52 -124c34 -40 84 -61 149 -61c28 0 42 -11 42 -34v-180c0 -23 -14 -35 -42 -35zM771 962l-119 120l119 121l119 -121zM907 725l-120 119l120 122l119 -122zM635 725l-120 119l120 122l119 -122z
" />
    <glyph glyph-name="uniFEBA" unicode="&#x635;" horiz-adv-x="1903" arabic-form="final" 
d="M1796 256c31 -5 65 -7 100 -7s53 -11 53 -34v-180c0 -23 -14 -35 -41 -35c-113 0 -190 37 -233 112c-109 -75 -241 -112 -395 -112c-68 0 -134 12 -197 35c11 -51 16 -84 16 -101v-31c0 -141 -52 -251 -156 -329c-104 -79 -247 -118 -429 -118c-133 0 -238 34 -316 102
c-77 67 -116 170 -116 308c0 82 28 179 84 291c35 68 64 102 87 102s35 -11 35 -33l-40 -109c-27 -72 -40 -128 -40 -169c0 -83 34 -144 103 -185c61 -39 145 -58 251 -58s194 13 264 39c69 25 117 51 142 78c25 26 38 56 38 91v5c0 67 -72 175 -216 324l103 224
c63 -87 122 -150 177 -190c209 273 394 410 555 410c69 0 123 -21 162 -64c44 -43 66 -103 66 -181c0 -40 -8 -77 -23 -111c-15 -33 -24 -53 -26 -58s-5 -11 -8 -16zM1168 254c37 -3 101 -5 194 -5c228 0 342 34 342 101c0 38 -21 71 -62 98s-83 41 -125 41
c-103 0 -220 -78 -349 -235z" />
    <glyph glyph-name="uniFEBB" unicode="&#x635;" horiz-adv-x="1408" arabic-form="initial" 
d="M1268 188c-104 -125 -262 -188 -473 -188c-120 0 -201 4 -244 11c-92 19 -158 62 -197 127c-50 -58 -99 -96 -147 -112c-48 -18 -119 -26 -212 -26c-27 0 -41 12 -41 35v180c0 23 14 34 41 34h46c95 0 166 23 213 69c32 33 48 71 48 114s15 64 44 64c30 0 45 -21 45 -64
s11 -79 34 -108c31 -42 80 -63 147 -63c218 283 407 425 568 425c69 0 125 -21 166 -64c41 -42 62 -104 62 -186c0 -83 -33 -165 -100 -248zM684 254c35 -3 99 -5 194 -5c227 0 340 34 340 101c0 38 -20 71 -61 98s-82 41 -124 41c-103 0 -220 -78 -349 -235z" />
    <glyph glyph-name="uniFEBC" unicode="&#x635;" horiz-adv-x="1419" arabic-form="medial" 
d="M1465 35c0 -23 -14 -35 -41 -35c-115 0 -192 37 -233 112c-79 -50 -149 -81 -210 -94c-61 -12 -160 -18 -297 -18c-164 0 -274 46 -330 138c-50 -58 -99 -96 -147 -112c-48 -18 -119 -26 -212 -26c-27 0 -41 12 -41 35v180c0 23 14 34 41 34h46c95 0 166 23 213 69
c32 33 48 71 48 114s15 64 44 64c30 0 45 -21 45 -62c0 -42 15 -82 44 -118c29 -38 69 -56 120 -56c5 0 11 0 17 1c222 283 411 425 568 425c69 0 125 -21 166 -64c41 -42 62 -102 62 -181c0 -42 -14 -93 -41 -154l-15 -31l112 -7c27 0 41 -11 41 -34v-180zM684 254
c35 -3 99 -5 194 -5c227 0 340 34 340 101c0 38 -20 71 -61 98s-82 41 -124 41c-103 0 -220 -78 -349 -235z" />
    <glyph glyph-name="uniFEBE" unicode="&#x636;" horiz-adv-x="1903" arabic-form="final" 
d="M1796 256c31 -5 65 -7 100 -7s53 -11 53 -34v-180c0 -23 -14 -35 -41 -35c-113 0 -190 37 -233 112c-109 -75 -241 -112 -395 -112c-68 0 -134 12 -197 35c11 -51 16 -84 16 -101v-31c0 -141 -52 -251 -156 -329c-104 -79 -247 -118 -429 -118c-133 0 -238 34 -316 102
c-77 67 -116 170 -116 308c0 82 28 179 84 291c35 68 64 102 87 102s35 -11 35 -33l-40 -109c-27 -72 -40 -128 -40 -169c0 -83 34 -144 103 -185c61 -39 145 -58 251 -58s194 13 264 39c69 25 117 51 142 78c25 26 38 56 38 91v5c0 67 -72 175 -216 324l103 224
c63 -87 122 -150 177 -190c209 273 394 410 555 410c69 0 123 -21 162 -64c44 -43 66 -103 66 -181c0 -40 -8 -77 -23 -111c-15 -33 -24 -53 -26 -58s-5 -11 -8 -16zM1168 254c37 -3 101 -5 194 -5c228 0 342 34 342 101c0 38 -21 71 -62 98s-83 41 -125 41
c-103 0 -220 -78 -349 -235zM1132 668l-132 133l132 130l132 -130z" />
    <glyph glyph-name="uniFEBF" unicode="&#x636;" horiz-adv-x="1408" arabic-form="initial" 
d="M1268 188c-104 -125 -262 -188 -473 -188c-120 0 -201 4 -244 11c-92 19 -158 62 -197 127c-50 -58 -99 -96 -147 -112c-48 -18 -119 -26 -212 -26c-27 0 -41 12 -41 35v180c0 23 14 34 41 34h46c95 0 166 23 213 69c32 33 48 71 48 114s15 64 44 64c30 0 45 -21 45 -64
s11 -79 34 -108c31 -42 80 -63 147 -63c218 283 407 425 568 425c69 0 125 -21 166 -64c41 -42 62 -104 62 -186c0 -83 -33 -165 -100 -248zM684 254c35 -3 99 -5 194 -5c227 0 340 34 340 101c0 38 -20 71 -61 98s-82 41 -124 41c-103 0 -220 -78 -349 -235zM595 658
l-132 133l132 130l132 -130z" />
    <glyph glyph-name="uniFEC0" unicode="&#x636;" horiz-adv-x="1419" arabic-form="medial" 
d="M1465 35c0 -23 -14 -35 -41 -35c-115 0 -192 37 -233 112c-79 -50 -149 -81 -210 -94c-61 -12 -160 -18 -297 -18c-164 0 -274 46 -330 138c-50 -58 -99 -96 -147 -112c-48 -18 -119 -26 -212 -26c-27 0 -41 12 -41 35v180c0 23 14 34 41 34h46c95 0 166 23 213 69
c32 33 48 71 48 114s15 64 44 64c30 0 45 -21 45 -62c0 -42 15 -82 44 -118c29 -38 69 -56 120 -56c5 0 11 0 17 1c222 283 411 425 568 425c69 0 125 -21 166 -64c41 -42 62 -102 62 -181c0 -42 -14 -93 -41 -154l-15 -31l112 -7c27 0 41 -11 41 -34v-180zM684 254
c35 -3 99 -5 194 -5c227 0 340 34 340 101c0 38 -20 71 -61 98s-82 41 -124 41c-103 0 -220 -78 -349 -235zM592 688l-132 133l132 130l132 -130z" />
    <glyph glyph-name="uniFEC2" unicode="&#x637;" horiz-adv-x="1346" arabic-form="final" 
d="M548 1001c5 -47 7 -137 7 -273c0 -134 -14 -258 -43 -370l4 -4c215 221 388 332 519 332c66 0 120 -21 163 -62c42 -42 63 -93 63 -154c0 -60 -20 -131 -59 -214c19 -5 48 -7 89 -7h60c27 0 41 -11 41 -34v-180c0 -23 -14 -35 -41 -35c-83 0 -145 11 -184 32
c-34 16 -62 46 -84 89c-78 -81 -303 -121 -674 -121c-99 0 -183 39 -252 117c-50 55 -75 98 -75 131c0 13 6 19 17 17l100 -7l207 -9c9 19 14 55 14 110c0 156 -27 411 -82 765l121 119c27 27 44 41 50 41s12 -8 19 -23c23 -81 52 -162 87 -245c9 -25 9 -38 -2 -38
s-32 8 -65 23zM1113 349c0 38 -21 71 -61 99c-42 27 -83 41 -126 41c-87 0 -213 -78 -380 -235l222 -5h31c209 0 314 33 314 100z" />
    <glyph glyph-name="uniFEC3" unicode="&#x637;" horiz-adv-x="1097" arabic-form="initial" 
d="M341 1001c5 -43 8 -131 8 -267c0 -134 -14 -260 -43 -376l3 -4c213 221 386 332 518 332c68 0 123 -21 165 -64c42 -42 63 -102 63 -181c0 -109 -49 -204 -146 -286c-123 -103 -302 -155 -536 -155h-378c-27 0 -41 12 -41 35v180c0 23 14 34 41 34h204c9 20 13 57 13 110
c0 173 -27 428 -82 765l121 119c27 27 44 41 51 41s17 -24 32 -72c15 -47 40 -113 75 -196c11 -25 10 -38 -5 -38c-9 0 -30 8 -63 23zM905 349c0 39 -20 72 -61 99c-40 27 -81 41 -124 41c-87 0 -214 -78 -381 -235l222 -5h31c209 0 313 33 313 100z" />
    <glyph glyph-name="uniFEC4" unicode="&#x637;" horiz-adv-x="1138" arabic-form="medial" 
d="M341 1001c5 -43 8 -131 8 -267c0 -134 -14 -260 -43 -376l3 -4c213 221 386 332 518 332c67 0 122 -21 165 -62c42 -42 63 -93 63 -154c0 -60 -20 -131 -59 -214c19 -5 48 -7 89 -7h59c28 0 42 -11 42 -34v-180c0 -23 -14 -35 -42 -35c-83 0 -145 11 -184 32
c-34 16 -62 46 -84 89c-77 -81 -295 -121 -654 -121h-227c-27 0 -41 12 -41 35v180c0 23 14 34 41 34h204c9 20 13 57 13 110c0 173 -27 428 -82 765l121 119c27 27 44 41 51 41s17 -24 32 -72c15 -47 40 -113 75 -196c11 -25 10 -38 -5 -38c-9 0 -30 8 -63 23zM905 349
c0 39 -20 72 -61 99c-40 27 -81 41 -124 41c-87 0 -214 -78 -381 -235l222 -5h31c209 0 313 33 313 100z" />
    <glyph glyph-name="uniFEC6" unicode="&#x638;" horiz-adv-x="1346" arabic-form="final" 
d="M548 1001c5 -47 7 -137 7 -273c0 -134 -14 -258 -43 -370l4 -4c215 221 388 332 519 332c66 0 120 -21 163 -62c42 -42 63 -93 63 -154c0 -60 -20 -131 -59 -214c19 -5 48 -7 89 -7h60c27 0 41 -11 41 -34v-180c0 -23 -14 -35 -41 -35c-83 0 -145 11 -184 32
c-34 16 -62 46 -84 89c-78 -81 -303 -121 -674 -121c-99 0 -183 39 -252 117c-50 55 -75 98 -75 131c0 13 6 19 17 17l100 -7l207 -9c9 19 14 55 14 110c0 156 -27 411 -82 765l121 119c27 27 44 41 50 41s12 -8 19 -23c23 -81 52 -162 87 -245c9 -25 9 -38 -2 -38
s-32 8 -65 23zM1113 349c0 38 -21 71 -61 99c-42 27 -83 41 -126 41c-87 0 -213 -78 -380 -235l222 -5h31c209 0 314 33 314 100zM902 875l-132 133l132 130l132 -130z" />
    <glyph glyph-name="uniFEC7" unicode="&#x638;" horiz-adv-x="1097" arabic-form="initial" 
d="M696 869l-132 133l132 130l132 -130zM341 1001c5 -43 8 -131 8 -267c0 -134 -14 -260 -43 -376l3 -4c213 221 386 332 518 332c68 0 123 -21 165 -64c42 -42 63 -102 63 -181c0 -109 -49 -204 -146 -286c-123 -103 -302 -155 -536 -155h-378c-27 0 -41 12 -41 35v180
c0 23 14 34 41 34h204c9 20 13 57 13 110c0 173 -27 428 -82 765l121 119c27 27 44 41 51 41s17 -24 32 -72c15 -47 40 -113 75 -196c11 -25 10 -38 -5 -38c-9 0 -30 8 -63 23zM905 349c0 39 -20 72 -61 99c-40 27 -81 41 -124 41c-87 0 -214 -78 -381 -235l222 -5h31
c209 0 313 33 313 100z" />
    <glyph glyph-name="uniFEC8" unicode="&#x638;" horiz-adv-x="1138" arabic-form="medial" 
d="M711 901l-132 133l132 130l132 -130zM341 1001c5 -43 8 -131 8 -267c0 -134 -14 -260 -43 -376l3 -4c213 221 386 332 518 332c67 0 122 -21 165 -62c42 -42 63 -93 63 -154c0 -60 -20 -131 -59 -214c19 -5 48 -7 89 -7h59c28 0 42 -11 42 -34v-180
c0 -23 -14 -35 -42 -35c-83 0 -145 11 -184 32c-34 16 -62 46 -84 89c-77 -81 -295 -121 -654 -121h-227c-27 0 -41 12 -41 35v180c0 23 14 34 41 34h204c9 20 13 57 13 110c0 173 -27 428 -82 765l121 119c27 27 44 41 51 41s17 -24 32 -72c15 -47 40 -113 75 -196
c11 -25 10 -38 -5 -38c-9 0 -30 8 -63 23zM905 349c0 39 -20 72 -61 99c-40 27 -81 41 -124 41c-87 0 -214 -78 -381 -235l222 -5h31c209 0 313 33 313 100z" />
    <glyph glyph-name="uniFECA" unicode="&#x639;" horiz-adv-x="1165" arabic-form="final" 
d="M304 -94c0 -211 155 -316 465 -316c78 0 149 5 215 16c64 11 97 17 97 18v3c6 -2 9 -7 9 -15s-11 -22 -34 -43c-95 -87 -238 -131 -431 -131s-336 41 -429 124c-82 71 -123 163 -123 276c0 209 155 380 464 512l-80 79c-48 47 -79 71 -92 72c-18 4 -27 13 -27 27
c0 49 23 94 68 135s112 62 201 62s160 -14 213 -43c61 -30 91 -76 91 -136c0 -62 -59 -127 -177 -196v-9c89 -61 234 -92 436 -92c27 0 41 -11 41 -34v-180c0 -23 -14 -35 -41 -35h-117c-69 0 -147 28 -231 84c-86 55 -156 120 -212 195c-204 -89 -306 -213 -306 -373z" />
    <glyph glyph-name="uniFECB" unicode="&#x639;" horiz-adv-x="994" arabic-form="initial" 
d="M833 89l-88 -7c-77 -6 -209 -21 -394 -46c-185 -24 -304 -36 -356 -36c-27 0 -41 12 -41 35v180c0 23 14 34 41 34h50l213 7l-21 27c-37 35 -56 78 -56 131c0 93 44 183 131 270c87 88 178 132 273 132c65 0 127 -29 188 -88c61 -58 91 -105 91 -141
c0 -11 -8 -16 -23 -16c3 0 -18 5 -61 15c-43 11 -95 16 -154 16c-198 0 -297 -35 -297 -104c0 -39 21 -77 64 -116c59 -55 137 -82 235 -82c137 0 244 8 320 24z" />
    <glyph glyph-name="uniFECC" unicode="&#x639;" horiz-adv-x="827" arabic-form="medial" 
d="M551 304c72 -37 158 -55 258 -55h24c28 0 42 -11 42 -34v-180c0 -23 -14 -35 -42 -35h-65c-115 0 -220 58 -315 173c-54 -65 -113 -111 -176 -135c-63 -26 -141 -38 -234 -38h-48c-27 0 -41 12 -41 35v180c0 23 14 34 41 34h117c67 0 148 16 242 49v17l-80 84
c-45 47 -76 73 -93 78s-26 13 -26 26c0 49 21 91 62 127c50 46 120 69 211 69s160 -14 209 -41c61 -31 92 -79 92 -142c0 -31 -21 -68 -62 -110c-41 -43 -80 -73 -116 -91v-11z" />
    <glyph glyph-name="uniFECE" unicode="&#x63a;" horiz-adv-x="1165" arabic-form="final" 
d="M619 917l-132 133l132 130l132 -130zM304 -94c0 -211 155 -316 465 -316c78 0 149 5 215 16c64 11 97 17 97 18v3c6 -2 9 -7 9 -15s-11 -22 -34 -43c-95 -87 -238 -131 -431 -131s-336 41 -429 124c-82 71 -123 163 -123 276c0 209 155 380 464 512l-80 79
c-48 47 -79 71 -92 72c-18 4 -27 13 -27 27c0 49 23 94 68 135s112 62 201 62s160 -14 213 -43c61 -30 91 -76 91 -136c0 -62 -59 -127 -177 -196v-9c89 -61 234 -92 436 -92c27 0 41 -11 41 -34v-180c0 -23 -14 -35 -41 -35h-117c-69 0 -147 28 -231 84
c-86 55 -156 120 -212 195c-204 -89 -306 -213 -306 -373z" />
    <glyph glyph-name="uniFECF" unicode="&#x63a;" horiz-adv-x="994" arabic-form="initial" 
d="M833 89l-88 -7c-77 -6 -209 -21 -394 -46c-185 -24 -304 -36 -356 -36c-27 0 -41 12 -41 35v180c0 23 14 34 41 34h50l213 7l-21 27c-37 35 -56 78 -56 131c0 93 44 183 131 270c87 88 178 132 273 132c65 0 127 -29 188 -88c61 -58 91 -105 91 -141
c0 -11 -8 -16 -23 -16c3 0 -18 5 -61 15c-43 11 -95 16 -154 16c-198 0 -297 -35 -297 -104c0 -39 21 -77 64 -116c59 -55 137 -82 235 -82c137 0 244 8 320 24zM514 984l-132 133l132 130l132 -130z" />
    <glyph glyph-name="uniFED0" unicode="&#x63a;" horiz-adv-x="827" arabic-form="medial" 
d="M551 304c72 -37 158 -55 258 -55h24c28 0 42 -11 42 -34v-180c0 -23 -14 -35 -42 -35h-65c-115 0 -220 58 -315 173c-54 -65 -113 -111 -176 -135c-63 -26 -141 -38 -234 -38h-48c-27 0 -41 12 -41 35v180c0 23 14 34 41 34h117c67 0 148 16 242 49v17l-80 84
c-45 47 -76 73 -93 78s-26 13 -26 26c0 49 21 91 62 127c50 46 120 69 211 69s160 -14 209 -41c61 -31 92 -79 92 -142c0 -31 -21 -68 -62 -110c-41 -43 -80 -73 -116 -91v-11zM417 870l-132 133l132 130l132 -130z" />
    <glyph glyph-name="uniFED2" unicode="&#x641;" horiz-adv-x="1613" arabic-form="final" 
d="M1387 268c53 -13 99 -19 137 -19h94c27 0 41 -11 41 -34v-180c0 -23 -14 -35 -41 -35h-23c-142 0 -268 39 -377 116c-40 -30 -117 -61 -230 -92s-221 -47 -322 -47c-191 0 -332 28 -424 85c-91 56 -137 150 -137 281c0 70 15 135 44 196s54 91 75 91c27 0 41 -13 41 -38
v-4c0 -1 -5 -14 -17 -40c-10 -24 -16 -60 -17 -106c0 -71 39 -124 119 -160c78 -37 192 -55 342 -55c148 0 267 13 355 38c-46 44 -69 101 -69 171c0 69 25 142 75 218c60 93 132 140 215 140c55 0 103 -29 142 -86c39 -58 59 -125 59 -200c0 -76 -18 -144 -54 -205
c-9 -15 -18 -26 -28 -35zM1131 369c40 -36 71 -54 92 -54s52 15 92 47c40 30 60 59 60 84c0 26 -15 55 -45 86c-31 32 -62 48 -93 48s-62 -9 -91 -27c-49 -31 -74 -60 -74 -87s20 -60 59 -97zM1248 935l-132 133l132 130l132 -130z" />
    <glyph glyph-name="uniFED3" unicode="&#x641;" horiz-adv-x="692" arabic-form="initial" 
d="M480 581c-4 25 -20 53 -49 85c-29 33 -59 49 -91 49c-33 0 -59 -7 -80 -22s-31 -35 -31 -60c0 -44 46 -66 138 -66c49 0 87 5 113 14zM531 393c-71 -12 -138 -18 -201 -18s-109 6 -138 18c-50 21 -75 56 -75 105c0 88 20 177 60 266c49 103 111 155 184 155
c185 0 278 -178 278 -535c0 -145 -42 -247 -125 -306c-71 -52 -182 -78 -331 -78h-188c-27 0 -41 12 -41 35v180c0 23 14 34 41 34h236c61 0 128 8 203 25s112 41 112 73c0 17 -5 33 -15 46zM343 1038l-132 133l132 130l132 -130z" />
    <glyph glyph-name="uniFED4" unicode="&#x641;" horiz-adv-x="827" arabic-form="medial" 
d="M600 268c59 -13 105 -19 138 -19h95c28 0 42 -11 42 -34v-180c0 -23 -14 -35 -42 -35h-39c-105 0 -223 37 -354 112c-62 -41 -122 -70 -180 -87s-137 -25 -237 -25h-28c-27 0 -41 12 -41 35v180c0 23 14 34 41 34h87c61 0 121 5 179 16c-46 48 -69 106 -69 173
c0 68 25 140 75 216c59 93 130 140 213 140c57 0 105 -29 144 -87s58 -124 58 -199c0 -74 -18 -142 -54 -205c-8 -15 -17 -26 -28 -35zM349 544c-43 -24 -64 -50 -64 -77s20 -59 60 -97c40 -36 71 -55 92 -55s52 16 92 47s60 60 60 84c0 26 -15 54 -47 86
c-30 32 -61 48 -92 48s-64 -12 -101 -36zM461 948l-132 133l132 130l132 -130z" />
    <glyph glyph-name="uniFED6" unicode="&#x642;" horiz-adv-x="1327" arabic-form="final" 
d="M1077 5c-80 -3 -147 -5 -201 -5c-165 0 -248 53 -248 160c0 82 22 172 65 269c51 114 112 171 185 171c84 0 153 -39 207 -116c41 -61 69 -139 85 -235h162c27 0 41 -11 41 -34v-180c0 -23 -14 -35 -41 -35h-151v-56c0 -301 -222 -451 -667 -451c-132 0 -237 33 -315 99
c-78 67 -117 169 -117 307c0 82 28 179 84 291c35 69 64 103 87 103s35 -11 35 -34l-40 -108c-27 -73 -40 -130 -40 -169c0 -160 118 -240 353 -240c121 0 232 14 332 41c130 36 195 90 195 163c0 14 -4 34 -11 59zM1017 242c-12 45 -35 82 -67 111c-34 29 -68 44 -104 44
s-64 -18 -84 -53c-5 -10 -8 -20 -8 -31c0 -55 32 -82 96 -82c65 0 120 4 167 11zM1014 775l-119 119l119 121l119 -121zM742 775l-119 119l119 121l119 -121z" />
    <glyph glyph-name="uniFED7" unicode="&#x642;" horiz-adv-x="692" arabic-form="initial" 
d="M480 581c-4 25 -20 53 -49 85c-29 33 -59 49 -91 49c-33 0 -59 -7 -80 -22s-31 -35 -31 -60c0 -44 46 -66 138 -66c49 0 87 5 113 14zM531 393c-71 -12 -138 -18 -201 -18s-109 6 -138 18c-50 21 -75 56 -75 105c0 88 20 177 60 266c49 103 111 155 184 155
c185 0 278 -178 278 -535c0 -145 -42 -247 -125 -306c-71 -52 -182 -78 -331 -78h-188c-27 0 -41 12 -41 35v180c0 23 14 34 41 34h236c61 0 128 8 203 25s112 41 112 73c0 17 -5 33 -15 46zM472 1042l-119 119l119 121l119 -121zM200 1042l-119 119l119 121l119 -121z" />
    <glyph glyph-name="uniFED8" unicode="&#x642;" horiz-adv-x="827" arabic-form="medial" 
d="M600 268c59 -13 105 -19 138 -19h95c28 0 42 -11 42 -34v-180c0 -23 -14 -35 -42 -35h-39c-105 0 -223 37 -354 112c-62 -41 -122 -70 -180 -87s-137 -25 -237 -25h-28c-27 0 -41 12 -41 35v180c0 23 14 34 41 34h87c61 0 121 5 179 16c-46 48 -69 106 -69 173
c0 68 25 140 75 216c59 93 130 140 213 140c57 0 105 -29 144 -87s58 -124 58 -199c0 -74 -18 -142 -54 -205c-8 -15 -17 -26 -28 -35zM349 544c-43 -24 -64 -50 -64 -77s20 -59 60 -97c40 -36 71 -55 92 -55s52 16 92 47s60 60 60 84c0 26 -15 54 -47 86
c-30 32 -61 48 -92 48s-64 -12 -101 -36zM564 935l-119 119l119 121l119 -121zM292 935l-119 119l119 121l119 -121z" />
    <glyph glyph-name="uniFEDA" unicode="&#x643;" horiz-adv-x="1528" arabic-form="final" 
d="M1204 386c0 243 -12 492 -37 747l104 105c37 37 59 55 65 55c15 0 23 -104 24 -311l8 -598c2 -90 57 -135 166 -135c27 0 41 -11 41 -34v-180c0 -23 -14 -35 -41 -35h-32c-61 0 -109 10 -146 31s-69 58 -98 113c-39 -63 -106 -106 -201 -129c-114 -25 -236 -38 -365 -38
h-38c-182 0 -319 28 -411 85c-92 56 -138 150 -138 281c0 70 15 135 44 196s54 91 75 91c27 0 41 -13 41 -38c-1 -3 -7 -19 -17 -48c-12 -28 -17 -59 -17 -92c0 -77 42 -135 125 -173c72 -35 171 -52 296 -52h65c137 0 260 12 370 36c47 11 78 26 93 43c16 18 24 45 24 80z
M783 800c62 0 93 -29 93 -88c0 -54 -17 -96 -52 -126c-35 -29 -69 -44 -104 -44c-34 0 -63 4 -87 13s-51 24 -82 45c-3 3 -4 6 -4 9c1 3 21 6 61 7s85 9 136 22c51 14 76 29 76 46c0 13 -14 19 -43 19h-85c-39 0 -66 7 -78 21c-14 14 -20 38 -20 73s15 73 46 115
c30 42 63 63 98 63h2c21 0 38 -11 52 -31c13 -22 20 -41 21 -59c-1 -7 -7 -8 -19 -3c-12 6 -28 9 -47 9s-41 -9 -63 -25c-24 -18 -35 -33 -35 -46s19 -20 57 -20h77z" />
    <glyph glyph-name="uniFEDB" unicode="&#x643;" horiz-adv-x="885" arabic-form="initial" 
d="M399 350c0 65 -116 195 -347 392l47 255l248 102c188 77 352 139 492 185l-71 -237c-219 -73 -395 -136 -526 -188v-11c99 -99 163 -174 191 -222c28 -50 47 -95 57 -136s15 -91 15 -148c0 -111 -39 -196 -119 -254c-78 -59 -172 -88 -281 -88h-110c-27 0 -41 12 -41 35
v180c0 23 14 34 41 34h87c103 0 188 13 254 39c42 17 63 37 63 62z" />
    <glyph glyph-name="uniFEDC" unicode="&#x643;" horiz-adv-x="1036" arabic-form="medial" 
d="M397 343c0 78 -113 211 -340 399l48 255c337 146 596 242 777 287l-66 -235c-199 -56 -388 -119 -568 -190v-9l305 -315c101 -107 188 -181 261 -223s133 -63 180 -63h48c27 0 41 -11 41 -34v-180c0 -23 -14 -35 -41 -35h-75c-108 0 -238 83 -389 249l-75 79
c-3 -115 -49 -201 -138 -258c-71 -47 -158 -70 -260 -70h-110c-27 0 -41 12 -41 35v180c0 23 14 34 41 34h101c87 1 165 14 234 39c42 16 64 34 67 55z" />
    <glyph glyph-name="uniFEDF" unicode="&#x644;" horiz-adv-x="509" arabic-form="initial" 
d="M324 1261c24 -79 46 -143 65 -191c19 -47 29 -74 29 -82c0 -6 -4 -10 -12 -10s-28 8 -61 23l16 -455v-226c0 -213 -108 -320 -324 -320h-42c-27 0 -41 12 -41 35v180c0 23 14 34 41 34h59c62 0 106 6 132 18c27 12 40 38 40 78s-3 75 -8 106l-84 673l122 119
c27 27 43 41 50 41c6 0 12 -8 18 -23z" />
    <glyph glyph-name="uniFEE0" unicode="&#x644;" horiz-adv-x="583" arabic-form="medial" 
d="M261 380c0 250 -12 501 -37 753l102 105c39 37 60 55 65 55c14 0 23 -104 27 -311l7 -598c2 -90 57 -135 164 -135c27 0 41 -11 41 -34v-180c0 -23 -14 -35 -41 -35h-32c-59 0 -106 10 -141 28c-35 20 -69 55 -103 106c-37 -58 -76 -95 -115 -110
c-40 -16 -101 -24 -183 -24h-20c-27 0 -41 12 -41 35v180c0 23 14 34 41 34h46c147 0 220 44 220 131z" />
    <glyph glyph-name="uniFEE2" unicode="&#x645;" horiz-adv-x="1049" arabic-form="final" 
d="M235 64l21 -386c0 -37 -14 -86 -42 -148c-27 -61 -46 -92 -56 -92c-13 0 -20 18 -20 55s-8 131 -24 283s-24 254 -24 306c0 53 19 111 57 174c50 83 116 126 198 128l112 4c11 50 29 96 54 138c211 -185 368 -277 471 -277h73c27 0 41 -11 41 -34v-180
c0 -23 -14 -35 -41 -35h-36c-49 0 -91 10 -126 30c3 -39 5 -76 5 -111s-12 -71 -35 -107c-23 -35 -45 -59 -65 -72c-21 -13 -44 -19 -69 -19c-142 0 -232 95 -271 285c-9 46 -15 99 -17 158c-15 1 -39 1 -69 1c-32 0 -62 -5 -92 -16s-45 -39 -45 -85zM794 23
c0 28 -13 52 -40 72l-197 154c-7 -15 -11 -44 -11 -89s15 -89 45 -134c30 -49 71 -74 124 -74s79 24 79 71z" />
    <glyph glyph-name="uniFEE3" unicode="&#x645;" horiz-adv-x="779" arabic-form="initial" 
d="M738 235c0 -118 -44 -195 -132 -231c-27 -11 -49 -17 -66 -17h-29c-111 0 -190 49 -235 147c-25 -41 -59 -74 -100 -98c-42 -24 -81 -36 -116 -36h-65c-27 0 -41 12 -41 35v180c0 23 14 34 41 34h59c112 0 168 21 168 64l-5 58c0 67 18 123 55 170c46 54 110 81 192 81
c97 0 171 -54 222 -162c35 -72 52 -147 52 -225zM626 263c0 51 -14 103 -44 157c-28 54 -63 81 -102 81c-53 0 -80 -34 -80 -101c0 -43 15 -93 44 -150s64 -86 104 -86c52 0 78 33 78 99z" />
    <glyph glyph-name="uniFEE6" unicode="&#x646;" horiz-adv-x="1301" arabic-form="final" 
d="M1307 0h-41c-41 0 -88 10 -139 30c10 -46 15 -90 15 -133c0 -294 -209 -441 -628 -441c-133 0 -238 34 -316 102c-77 67 -116 170 -116 308c0 82 28 179 84 291c35 68 64 102 87 102s35 -11 35 -33l-40 -109c-27 -72 -40 -128 -40 -169c0 -83 34 -144 103 -185
c61 -39 144 -58 247 -58s203 12 299 37c128 36 192 92 192 169c0 44 -14 88 -43 131c-28 44 -82 112 -162 204l109 229c100 -151 212 -226 335 -226h19c27 0 41 -11 41 -34v-180c0 -23 -14 -35 -41 -35zM601 449l-132 133l132 130l132 -130z" />
    <glyph glyph-name="uniFEE7" unicode="&#x646;" horiz-adv-x="449" arabic-form="initial" 
d="M430 386c0 -257 -116 -386 -348 -386h-87c-27 0 -41 12 -41 35v180c0 23 14 34 41 34c206 0 309 22 309 66c0 25 -39 85 -117 181l131 203c75 -83 112 -188 112 -313zM211 820l-132 133l132 130l132 -130z" />
    <glyph glyph-name="uniFEE8" unicode="&#x646;" horiz-adv-x="725" arabic-form="medial" 
d="M731 0h-62c-84 0 -162 52 -233 155c-23 -44 -61 -81 -114 -111c-54 -29 -106 -44 -155 -44h-172c-27 0 -41 12 -41 35v180c0 23 16 34 49 34h107c147 0 235 40 265 119c11 28 16 59 16 94s16 52 47 52c11 0 21 -5 30 -14c8 -10 12 -21 12 -32c0 -146 75 -219 226 -219h25
c27 0 41 -11 41 -34v-180c0 -23 -14 -35 -41 -35zM369 740l-132 133l132 130l132 -130z" />
    <glyph glyph-name="uniFEE9" unicode="&#x647;" horiz-adv-x="732" arabic-form="isolated" 
d="M695 308c0 -107 -29 -187 -87 -240c-59 -54 -136 -81 -234 -81c-96 0 -168 21 -214 63c-39 39 -59 97 -59 174c0 76 26 163 78 260s108 169 168 215c91 -18 171 -61 242 -129c71 -69 106 -156 106 -262zM304 482c-51 -42 -77 -96 -77 -162c0 -73 67 -110 200 -110
c36 0 72 8 108 22c36 16 54 31 54 47c0 29 -36 68 -107 117c-71 48 -131 77 -178 86z" />
    <glyph glyph-name="uniFEEA" unicode="&#x647;" horiz-adv-x="870" arabic-form="final" 
d="M919 35c0 -23 -14 -35 -43 -35h-26c-131 0 -220 82 -267 246h-3l-98 -130c-13 -5 -42 -8 -89 -8s-98 9 -155 28c-95 31 -143 59 -143 86c1 39 9 86 27 140c16 56 38 93 63 113c53 49 151 109 294 181l-24 98l136 151l106 -517c16 -93 66 -139 149 -139h30
c29 0 43 -11 43 -34v-180zM507 541c-175 -79 -263 -133 -263 -161c0 -13 27 -28 81 -43s94 -23 119 -23h72c22 -1 37 1 45 6z" />
    <glyph glyph-name="uniFEEB" unicode="&#x647;" horiz-adv-x="993" arabic-form="initial" 
d="M453 142c-143 -95 -268 -142 -373 -142h-85c-27 0 -41 12 -41 35v180c0 23 14 34 41 34h50c52 0 114 4 186 12c-45 33 -67 76 -67 130c0 127 66 215 199 265l-100 47l95 202c172 -81 313 -167 424 -261c111 -92 166 -183 166 -271s-23 -166 -69 -233s-93 -101 -141 -101
s-143 34 -285 103zM837 278c0 64 -58 131 -174 201c0 -77 -26 -143 -78 -198c83 -43 150 -64 199 -64c35 0 53 20 53 61zM551 448c0 60 -20 102 -59 126c-56 0 -100 -12 -132 -35c-31 -23 -47 -52 -47 -86c0 -54 49 -92 146 -114c61 28 92 64 92 109z" />
    <glyph glyph-name="uniFEEC" unicode="&#x647;" horiz-adv-x="1036" arabic-form="medial" 
d="M229 5c-52 -3 -130 -5 -234 -5c-27 0 -41 12 -41 35v180c0 23 14 34 41 34h204c21 209 97 398 228 567c78 -109 131 -200 158 -272c27 -73 41 -146 41 -220c0 -75 -20 -142 -61 -200c-41 -60 -104 -92 -190 -98c35 -91 105 -160 212 -207c15 287 145 430 391 430h64
c27 0 41 -11 41 -34v-180c0 -23 -14 -35 -41 -35h-80c-85 0 -139 -2 -162 -7c-67 -14 -101 -43 -101 -87c0 -45 21 -83 62 -114c27 -22 64 -39 111 -51l-88 -237c-301 83 -486 250 -555 501zM311 258c89 1 145 6 169 15c22 9 34 22 34 39c0 30 -38 104 -114 221
c-57 -89 -87 -180 -89 -275z" />
    <glyph glyph-name="uniFEEE" unicode="&#x648;" horiz-adv-x="831" arabic-form="final" 
d="M878 35c0 -23 -14 -35 -41 -35h-161c-7 -161 -44 -290 -114 -385c-68 -95 -121 -143 -158 -143s-113 6 -230 20c-116 12 -174 25 -174 38s28 29 84 50c119 44 228 110 330 196c100 88 151 153 151 198c0 10 -3 22 -10 37c-35 -7 -89 -11 -160 -11
c-169 0 -253 53 -253 160c0 68 19 149 57 244c52 133 118 200 198 200c117 0 198 -73 245 -219c13 -41 22 -86 25 -136h170c27 0 41 -11 41 -34v-180zM526 240c-28 99 -85 149 -170 149c-26 0 -47 -9 -64 -27c-16 -17 -24 -34 -24 -51c0 -53 47 -80 141 -80c36 0 75 3 117 9
z" />
    <glyph glyph-name="uniFEF0" unicode="&#x649;" horiz-adv-x="1390" arabic-form="final" 
d="M1135 261l261 -12c27 0 41 -11 41 -34v-180c0 -23 -14 -35 -41 -35c-91 0 -176 6 -254 18c-79 12 -129 18 -152 18c-22 0 -34 0 -35 1c-42 0 -75 -8 -99 -23s-36 -31 -36 -48c0 -22 14 -35 43 -39l274 -43c28 -3 52 -15 73 -37s31 -49 31 -81v-8
c-6 -177 -145 -279 -417 -308c-76 -8 -166 -12 -271 -12c-312 0 -469 115 -471 345c0 83 32 191 95 323c22 47 46 71 72 71s39 -13 39 -39c-1 0 -12 -28 -31 -84s-29 -104 -30 -145c0 -104 61 -177 182 -220c72 -25 158 -38 258 -38c299 0 448 23 448 70c0 17 -19 28 -58 33
l-241 43c-81 15 -121 47 -121 95c0 80 40 162 121 244c80 84 186 125 319 125z" />
    <glyph glyph-name="uniFEF2" unicode="&#x64a;" horiz-adv-x="1390" arabic-form="final" 
d="M1135 261l261 -12c27 0 41 -11 41 -34v-180c0 -23 -14 -35 -41 -35c-91 0 -176 6 -254 18c-79 12 -129 18 -152 18c-22 0 -34 0 -35 1c-42 0 -75 -8 -99 -23s-36 -31 -36 -48c0 -22 14 -35 43 -39l274 -43c28 -3 52 -15 73 -37s31 -49 31 -81v-8
c-6 -177 -145 -279 -417 -308c-76 -8 -166 -12 -271 -12c-312 0 -469 115 -471 345c0 83 32 191 95 323c22 47 46 71 72 71s39 -13 39 -39c-1 0 -12 -28 -31 -84s-29 -104 -30 -145c0 -104 61 -177 182 -220c72 -25 158 -38 258 -38c299 0 448 23 448 70c0 17 -19 28 -58 33
l-241 43c-81 15 -121 47 -121 95c0 80 40 162 121 244c80 84 186 125 319 125zM773 -908l-119 119l119 121l119 -121zM501 -908l-119 119l119 121l119 -121z" />
    <glyph glyph-name="uniFEF3" unicode="&#x64a;" horiz-adv-x="465" arabic-form="initial" 
d="M430 386c0 -257 -116 -386 -348 -386h-87c-27 0 -41 12 -41 35v180c0 23 14 34 41 34c206 0 309 22 309 66c0 25 -39 85 -117 181l131 203c75 -83 112 -188 112 -313zM363 -422l-119 119l119 121l119 -121zM91 -422l-119 119l119 121l119 -121z" />
    <glyph glyph-name="uniFBFF" unicode="&#x6cc;" horiz-adv-x="725" arabic-form="medial" 
d="M731 0h-62c-84 0 -162 52 -233 155c-23 -44 -61 -81 -114 -111c-54 -29 -106 -44 -155 -44h-172c-27 0 -41 12 -41 35v180c0 23 16 34 49 34h107c147 0 235 40 265 119c11 28 16 59 16 94s16 52 47 52c11 0 21 -5 30 -14c8 -10 12 -21 12 -32c0 -146 75 -219 226 -219h25
c27 0 41 -11 41 -34v-180c0 -23 -14 -35 -41 -35zM536 -416l-119 119l119 121l119 -121zM264 -416l-119 119l119 121l119 -121z" />
    <glyph glyph-name="uniFBA4" unicode="&#x6c0;" horiz-adv-x="732" arabic-form="isolated" 
d="M695 308c0 -107 -29 -187 -87 -240c-59 -54 -136 -81 -234 -81c-96 0 -168 21 -214 63c-39 39 -59 97 -59 174c0 76 26 163 78 260s108 169 168 215c91 -18 171 -61 242 -129c71 -69 106 -156 106 -262zM304 482c-51 -42 -77 -96 -77 -162c0 -73 67 -110 200 -110
c36 0 72 8 108 22c36 16 54 31 54 47c0 29 -36 68 -107 117c-71 48 -131 77 -178 86zM207 772c-6 15 -9 29 -9 43c0 38 23 70 69 95c-39 24 -58 56 -58 96c0 39 21 79 63 118c41 40 83 60 125 60c61 0 91 -24 91 -72c0 -22 -6 -39 -18 -51c-19 20 -48 30 -87 30
c-70 0 -105 -18 -105 -54c0 -26 21 -47 63 -63c11 -4 34 -6 69 -6c34 0 76 14 127 41l-31 -107c-29 -3 -66 -10 -111 -23c-94 -27 -157 -62 -188 -107z" />
    <glyph glyph-name="uniFBA5" unicode="&#x6c0;" horiz-adv-x="870" arabic-form="final" 
d="M919 35c0 -23 -14 -35 -43 -35h-26c-131 0 -220 82 -267 246h-3l-98 -130c-13 -5 -42 -8 -89 -8s-98 9 -155 28c-95 31 -143 59 -143 86c1 39 9 86 27 140c16 56 38 93 63 113c53 49 151 109 294 181l-24 98l136 151l106 -517c16 -93 66 -139 149 -139h30
c29 0 43 -11 43 -34v-180zM507 541c-175 -79 -263 -133 -263 -161c0 -13 27 -28 81 -43s94 -23 119 -23h72c22 -1 37 1 45 6zM169 833c-6 15 -9 29 -9 43c0 38 23 70 69 95c-39 24 -58 56 -58 95c0 40 21 80 63 120c41 39 83 59 125 59c61 0 91 -24 91 -72
c0 -22 -6 -39 -18 -51c-19 20 -48 30 -87 30c-70 0 -105 -18 -105 -54c0 -26 21 -47 63 -63c11 -4 34 -6 69 -6c34 0 76 14 127 41l-31 -107c-29 -3 -66 -10 -111 -23c-94 -27 -157 -62 -188 -107z" />
    <glyph glyph-name="uniFBFE" unicode="&#x6cc;" horiz-adv-x="465" arabic-form="initial" 
d="M430 386c0 -257 -116 -386 -348 -386h-87c-27 0 -41 12 -41 35v180c0 23 14 34 41 34c206 0 309 22 309 66c0 25 -39 85 -117 181l131 203c75 -83 112 -188 112 -313zM307 -418l-119 119l119 121l119 -121zM35 -418l-119 119l119 121l119 -121z" />
    <glyph glyph-name="uniFB67" unicode="&#x679;" horiz-adv-x="1653" arabic-form="final" 
d="M1446 509c30 0 45 -17 45 -53c0 -34 -13 -77 -38 -128c27 -53 96 -79 206 -79c27 0 41 -11 41 -34v-180c0 -23 -14 -35 -41 -35c-83 0 -146 12 -187 37c-39 25 -76 73 -110 144c-165 -136 -401 -204 -708 -204c-183 0 -320 28 -412 85c-91 56 -137 150 -137 281
c0 70 15 135 44 196s54 91 75 91c27 0 41 -13 41 -38c1 -3 -5 -17 -16 -42s-17 -61 -18 -108c0 -71 39 -124 119 -160c78 -37 179 -55 302 -55c361 0 602 70 723 209c45 49 68 73 71 73zM934 879h2c53 0 79 -32 79 -97c0 -33 -19 -66 -57 -98c-39 -34 -101 -50 -187 -50h-61
c-35 0 -64 12 -84 36c-22 25 -32 41 -32 48c0 8 2 12 6 11l36 -3l73 -3c4 7 6 27 6 61c0 35 -10 118 -30 251l43 43c10 10 16 15 18 15c3 0 7 -8 12 -25s12 -35 20 -55s10 -30 5 -30s-12 3 -23 9c2 -19 3 -52 3 -100c0 -46 -5 -90 -15 -131v-1c77 79 139 119 186 119z
M962 759c0 21 -15 36 -44 46c-8 3 -16 4 -23 4c-31 0 -76 -28 -136 -84l80 -2h17c71 0 106 12 106 36z" />
    <glyph glyph-name="uniFB68" unicode="&#x679;" horiz-adv-x="465" arabic-form="initial" 
d="M430 386c0 -257 -116 -386 -348 -386h-87c-27 0 -41 12 -41 35v180c0 23 14 34 41 34c206 0 309 22 309 66c0 25 -39 85 -117 181l131 203c75 -83 112 -188 112 -313zM327 1094h2c53 0 79 -32 79 -97c0 -33 -19 -65 -58 -99c-38 -32 -100 -49 -186 -49h-61
c-35 0 -63 12 -85 37c-20 24 -31 40 -31 48c0 7 2 11 6 10l36 -3l73 -3c4 7 6 27 6 62c0 34 -10 117 -30 250l43 43c10 10 16 15 19 15c2 0 6 -8 11 -25s12 -35 20 -55s10 -30 5 -30s-12 3 -23 9c2 -19 3 -53 3 -99c0 -48 -5 -91 -15 -132v-1c77 79 139 119 186 119z
M355 974c0 21 -15 36 -44 46c-8 3 -16 4 -23 4c-31 0 -76 -28 -136 -84l80 -2h17c71 0 106 12 106 36z" />
    <glyph glyph-name="uniFB69" unicode="&#x679;" horiz-adv-x="725" arabic-form="medial" 
d="M731 0h-62c-84 0 -162 52 -233 155c-23 -44 -61 -81 -114 -111c-54 -29 -106 -44 -155 -44h-172c-27 0 -41 12 -41 35v180c0 23 16 34 49 34h107c147 0 235 40 265 119c11 28 16 59 16 94s16 52 47 52c11 0 21 -5 30 -14c8 -10 12 -21 12 -32c0 -146 75 -219 226 -219h25
c27 0 41 -11 41 -34v-180c0 -23 -14 -35 -41 -35zM539 998h2c53 0 79 -32 79 -97c0 -33 -19 -65 -58 -99c-38 -32 -100 -49 -186 -49h-61c-35 0 -63 12 -85 37c-20 24 -31 40 -31 48c0 7 2 11 6 10l36 -3l73 -3c4 7 6 27 6 62c0 34 -10 117 -30 250l43 43c10 10 16 15 19 15
c2 0 6 -8 11 -25s12 -35 20 -55s10 -30 5 -30s-12 3 -23 9c2 -19 3 -53 3 -99c0 -48 -5 -91 -15 -132v-1c77 79 139 119 186 119zM567 878c0 21 -15 36 -44 46c-8 3 -16 4 -23 4c-31 0 -76 -28 -136 -84l80 -2h17c71 0 106 12 106 36z" />
    <glyph glyph-name="uniFB89" unicode="&#x688;" horiz-adv-x="1047" arabic-form="final" 
d="M1053 0c-113 0 -196 39 -251 116c-16 23 -32 50 -48 81c-83 -131 -208 -197 -374 -197c-186 0 -279 75 -279 226c0 56 8 104 25 144c16 39 33 59 51 59c23 0 35 -22 35 -65c0 -44 16 -74 46 -90c32 -17 83 -25 156 -25s138 10 196 29c52 20 78 40 78 60
c0 25 -6 52 -19 82l-130 313l128 172l187 -512c17 -52 40 -89 67 -110c28 -21 72 -32 132 -34c27 0 41 -11 41 -34v-180c0 -23 -14 -35 -41 -35zM740 1260h2c53 0 79 -32 79 -97c0 -33 -19 -65 -57 -99c-39 -32 -101 -49 -187 -49h-61c-35 0 -64 12 -84 37
c-22 24 -32 40 -32 48c0 7 2 11 6 10l36 -3l73 -3c4 7 6 27 6 62c0 34 -10 117 -30 250l43 43c10 10 16 15 18 15c3 0 7 -8 12 -25s12 -35 20 -55s10 -30 5 -30s-12 3 -23 9c2 -19 3 -53 3 -99c0 -48 -5 -91 -15 -132v-1c77 79 139 119 186 119zM768 1140
c0 21 -15 36 -44 46c-8 3 -16 4 -23 4c-31 0 -76 -28 -136 -84l80 -2h17c71 0 106 12 106 36z" />
    <glyph glyph-name="uniFB8D" unicode="&#x691;" horiz-adv-x="827" arabic-form="final" 
d="M665 26c5 -12 7 -32 7 -59c0 -75 -18 -156 -55 -243c-12 -29 -26 -55 -41 -78c-73 -116 -129 -174 -166 -174c-54 0 -136 6 -246 19c-109 13 -164 25 -164 38s29 29 88 49c111 37 218 101 320 192s153 162 153 212c0 52 -59 138 -177 260l103 233
c63 -91 110 -148 141 -169c54 -38 119 -57 196 -57h9c28 2 42 -9 42 -34v-180c0 -23 -14 -35 -42 -35c-79 0 -135 9 -168 26zM614 905h2c53 0 79 -32 79 -97c0 -33 -19 -66 -57 -98c-39 -34 -101 -50 -187 -50h-61c-35 0 -64 12 -84 36c-22 25 -32 41 -32 48c0 8 2 12 6 11
l36 -3l73 -3c4 7 6 27 6 61c0 35 -10 118 -30 251l43 43c10 10 16 15 18 15c3 0 7 -8 12 -25s12 -35 20 -55s10 -30 5 -30s-12 3 -23 9c2 -19 3 -52 3 -100c0 -46 -5 -90 -15 -131v-1c77 79 139 119 186 119zM642 785c0 21 -15 36 -44 46c-8 3 -16 4 -23 4
c-31 0 -76 -28 -136 -84l80 -2h17c71 0 106 12 106 36z" />
    <glyph glyph-name="uniFB9F" unicode="&#x6ba;" horiz-adv-x="1301" arabic-form="final" 
d="M1307 0h-41c-41 0 -88 10 -139 30c10 -46 15 -90 15 -133c0 -294 -209 -441 -628 -441c-133 0 -238 34 -316 102c-77 67 -116 170 -116 308c0 82 28 179 84 291c35 68 64 102 87 102s35 -11 35 -33l-40 -109c-27 -72 -40 -128 -40 -169c0 -83 34 -144 103 -185
c61 -39 144 -58 247 -58s203 12 299 37c128 36 192 92 192 169c0 44 -14 88 -43 131c-28 44 -82 112 -162 204l109 229c100 -151 212 -226 335 -226h19c27 0 41 -11 41 -34v-180c0 -23 -14 -35 -41 -35z" />
    <glyph glyph-name="uniFBA8" unicode="&#x6c1;" horiz-adv-x="514" arabic-form="initial" 
d="M430 386c0 -257 -116 -386 -348 -386h-87c-27 0 -41 12 -41 35v180c0 23 14 34 41 34c206 0 309 22 309 66c0 26 -39 86 -117 181l131 203c75 -85 112 -190 112 -313zM226 -314c29 21 56 31 81 31s47 -11 63 -31c18 -22 26 -48 26 -80c0 -31 -11 -56 -32 -75
s-47 -28 -76 -28c-54 0 -96 19 -127 58s-46 82 -46 129c1 102 32 177 93 224c16 12 30 18 41 18s17 -6 17 -17c0 -4 -5 -11 -14 -21c-35 -38 -53 -83 -53 -134c0 -29 9 -53 27 -74z" />
    <glyph glyph-name="uniFBA9" unicode="&#x6c1;" horiz-adv-x="1042" arabic-form="medial" 
d="M596 -185c-3 9 -5 22 -5 41c0 129 34 228 103 298c59 63 175 95 348 95h5c27 0 41 -11 41 -34v-180c0 -23 -14 -35 -41 -35h-137c-139 0 -208 -33 -208 -100c0 -66 57 -125 170 -176l-90 -246c-152 57 -262 126 -331 208c-69 81 -103 184 -103 309c0 16 1 32 2 49
c-43 -29 -124 -44 -244 -44h-111c-27 0 -41 12 -41 35v180c0 23 14 34 41 34h123c111 0 184 7 220 21c35 15 61 30 78 46c16 16 30 32 41 49s20 27 26 32s14 7 23 7c15 0 23 -11 23 -33c0 -7 -4 -25 -13 -53c-8 -27 -15 -51 -20 -72c-5 -20 -12 -47 -21 -80
c-9 -34 -13 -70 -13 -109s11 -80 32 -123c21 -44 54 -84 99 -121z" />
    <glyph glyph-name="uniFBAF" unicode="&#x6d2;" horiz-adv-x="1185" arabic-form="final" 
d="M1231 35c0 -23 -14 -35 -41 -35h-614c-183 0 -303 -29 -360 -87c-15 -15 -22 -30 -21 -46c0 -31 29 -51 89 -61c58 -9 184 -14 378 -14c192 0 314 4 364 12c51 7 83 12 98 16c14 2 24 5 31 8s12 4 15 4c4 0 6 -6 6 -18s-13 -38 -40 -77c-49 -71 -99 -118 -150 -141
s-110 -36 -180 -40c-68 -4 -137 -6 -205 -6h-111c-148 0 -248 15 -301 45c-75 43 -112 111 -112 205c0 140 50 255 150 346c45 41 93 68 147 82c52 14 129 21 228 21h588c27 0 41 -11 41 -34v-180z" />
    <glyph glyph-name="uniFBB1" unicode="&#x6d3;" horiz-adv-x="1185" arabic-form="final" 
d="M1231 35c0 -23 -14 -35 -41 -35h-614c-183 0 -303 -29 -360 -87c-15 -15 -22 -30 -21 -46c0 -31 29 -51 89 -61c58 -9 184 -14 378 -14c192 0 314 4 364 12c51 7 83 12 98 16c14 2 24 5 31 8s12 4 15 4c4 0 6 -6 6 -18s-13 -38 -40 -77c-49 -71 -99 -118 -150 -141
s-110 -36 -180 -40c-68 -4 -137 -6 -205 -6h-111c-148 0 -248 15 -301 45c-75 43 -112 111 -112 205c0 140 50 255 150 346c45 41 93 68 147 82c52 14 129 21 228 21h588c27 0 41 -11 41 -34v-180zM251 345c-6 15 -9 29 -9 43c0 38 23 70 69 95c-39 24 -58 56 -58 95
c0 40 21 80 63 120c41 39 83 59 125 59c61 0 91 -24 91 -72c0 -22 -6 -39 -18 -51c-19 20 -48 30 -87 30c-70 0 -105 -18 -105 -54c0 -26 21 -47 63 -63c11 -4 34 -6 69 -6c34 0 76 14 127 41l-31 -107c-29 -3 -66 -10 -111 -23c-94 -27 -157 -62 -188 -107z" />
    <glyph glyph-name="uniFBA6" unicode="&#x6c1;" horiz-adv-x="732" arabic-form="isolated" 
d="M695 308c0 -107 -29 -187 -87 -240c-59 -54 -136 -81 -234 -81c-96 0 -168 21 -214 63c-39 39 -59 97 -59 174c0 76 26 163 78 260s108 169 168 215c91 -18 171 -61 242 -129c71 -69 106 -156 106 -262zM304 482c-51 -42 -77 -96 -77 -162c0 -73 67 -110 200 -110
c36 0 72 8 108 22c36 16 54 31 54 47c0 29 -36 68 -107 117c-71 48 -131 77 -178 86z" />
    <glyph glyph-name="uniFB51" unicode="&#x671;" horiz-adv-x="470" arabic-form="final" 
d="M482 0h-59c-89 0 -156 26 -201 78c-45 53 -67 103 -67 152c0 80 -6 223 -19 428c-12 205 -27 359 -45 462l49 47c80 78 124 117 132 117c7 0 13 -68 18 -203l21 -699c3 -51 15 -86 37 -105s56 -28 102 -28c45 0 68 -11 68 -34v-180c0 -23 -12 -35 -36 -35zM101 1495
c67 110 128 165 182 165c25 0 47 -9 65 -27s27 -40 27 -67c0 -55 -18 -98 -54 -130c-31 -31 -71 -46 -120 -46l-107 10c-37 0 -62 -22 -76 -65c-17 14 -25 35 -25 63c0 29 9 52 28 71s38 28 58 28h10c6 0 10 -1 12 -2zM144 1489c24 -2 49 -3 75 -3s50 4 73 13
c22 9 33 20 33 33c0 29 -20 43 -60 43s-80 -29 -121 -86z" />
    <glyph glyph-name="uni0672.fina" unicode="&#x672;" horiz-adv-x="470" 
d="M482 0h-59c-89 0 -156 26 -201 78c-45 53 -67 103 -67 152c0 80 -6 223 -19 428c-12 205 -27 359 -45 462l49 47c80 78 124 117 132 117c7 0 13 -68 18 -203l21 -699c3 -51 15 -86 37 -105s56 -28 102 -28c45 0 68 -11 68 -34v-180c0 -23 -12 -35 -36 -35zM110 1479
c9 -37 41 -56 94 -56c27 0 51 3 72 8s32 6 32 1s-6 -19 -19 -43c-31 -23 -82 -37 -151 -41c-69 -6 -110 -22 -122 -51h-3c-4 0 -6 4 -6 11c0 8 2 16 6 25c10 23 32 37 66 41s58 9 73 16c-15 1 -32 6 -50 16c-19 9 -28 25 -29 47c0 55 22 95 66 120c14 8 26 12 37 12
c10 0 22 -1 35 -3c13 -1 30 -12 51 -31c3 -4 4 -11 4 -19c0 -10 -13 -24 -38 -45c1 1 -4 7 -15 18s-21 18 -31 21s-23 1 -40 -8s-27 -22 -32 -39z" />
    <glyph glyph-name="uni0673.fina" unicode="&#x673;" horiz-adv-x="470" 
d="M482 0h-59c-89 0 -156 26 -201 78c-45 53 -67 103 -67 152c0 80 -6 223 -19 428c-12 205 -27 359 -45 462l49 47c80 78 124 117 132 117c7 0 13 -68 18 -203l21 -699c3 -51 15 -86 37 -105s56 -28 102 -28c45 0 68 -11 68 -34v-180c0 -23 -12 -35 -36 -35zM209 -270
c9 -37 41 -56 94 -56c27 0 51 3 72 8s32 6 32 1s-6 -19 -19 -43c-31 -23 -82 -36 -151 -42c-69 -4 -110 -21 -122 -50h-3c-4 0 -6 4 -6 12c0 7 2 15 6 24c10 23 32 37 66 41s58 9 73 16c-15 1 -32 6 -51 15c-18 10 -27 26 -28 48c0 55 22 95 66 120c14 8 26 12 36 12
c11 0 23 -1 36 -2c13 -2 30 -13 51 -32c3 -4 4 -10 4 -20c0 -8 -13 -23 -38 -44c1 1 -4 7 -15 18s-21 18 -31 21s-23 1 -40 -8s-27 -22 -32 -39z" />
    <glyph glyph-name="uni0675.fina" unicode="&#x675;" horiz-adv-x="470" 
d="M482 0h-59c-89 0 -156 26 -201 78c-45 53 -67 103 -67 152c0 80 -6 223 -19 428c-12 205 -27 359 -45 462l49 47c80 78 124 117 132 117c7 0 13 -68 18 -203l21 -699c3 -51 15 -86 37 -105s56 -28 102 -28c45 0 68 -11 68 -34v-180c0 -23 -12 -35 -36 -35zM18 1306
c-6 15 -9 29 -9 43c0 38 23 70 69 95c-39 24 -58 56 -58 96c0 39 21 79 62 118c42 40 84 60 126 60c61 0 91 -24 91 -72c0 -22 -6 -39 -18 -51c-19 20 -48 30 -87 30c-70 0 -105 -18 -105 -54c0 -26 21 -47 63 -63c11 -4 34 -6 68 -6c35 0 77 14 128 41l-31 -107
c-29 -3 -66 -10 -111 -23c-94 -27 -157 -62 -188 -107z" />
    <glyph glyph-name="uni0676.fina" unicode="&#x676;" horiz-adv-x="831" 
d="M878 35c0 -23 -14 -35 -41 -35h-161c-7 -161 -44 -290 -114 -385c-68 -95 -121 -143 -158 -143s-113 6 -230 20c-116 12 -174 25 -174 38s28 29 84 50c119 44 228 110 330 196c100 88 151 153 151 198c0 10 -3 22 -10 37c-35 -7 -89 -11 -160 -11
c-169 0 -253 53 -253 160c0 68 19 149 57 244c52 133 118 200 198 200c117 0 198 -73 245 -219c13 -41 22 -86 25 -136h170c27 0 41 -11 41 -34v-180zM526 240c-28 99 -85 149 -170 149c-26 0 -47 -9 -64 -27c-16 -17 -24 -34 -24 -51c0 -53 47 -80 141 -80c36 0 75 3 117 9
zM238 717c-6 15 -9 29 -9 43c0 38 23 70 69 95c-39 24 -58 56 -58 95c0 40 21 80 62 120c42 39 84 59 126 59c61 0 91 -24 91 -72c0 -22 -6 -39 -18 -51c-19 20 -48 30 -87 30c-70 0 -105 -18 -105 -54c0 -26 21 -47 63 -63c11 -4 34 -6 68 -6c35 0 77 14 128 41l-31 -107
c-29 -3 -66 -10 -111 -23c-94 -27 -157 -62 -188 -107z" />
    <glyph glyph-name="uni0677.fina" unicode="&#x677;" horiz-adv-x="831" 
d="M878 35c0 -23 -14 -35 -41 -35h-161c-7 -161 -44 -290 -114 -385c-68 -95 -121 -143 -158 -143s-113 6 -230 20c-116 12 -174 25 -174 38s28 29 84 50c119 44 228 110 330 196c100 88 151 153 151 198c0 10 -3 22 -10 37c-35 -7 -89 -11 -160 -11
c-169 0 -253 53 -253 160c0 68 19 149 57 244c52 133 118 200 198 200c117 0 198 -73 245 -219c13 -41 22 -86 25 -136h170c27 0 41 -11 41 -34v-180zM526 240c-28 99 -85 149 -170 149c-26 0 -47 -9 -64 -27c-16 -17 -24 -34 -24 -51c0 -53 47 -80 141 -80c36 0 75 3 117 9
zM467 753c-6 15 -9 29 -9 43c0 38 23 70 69 95c-39 24 -58 56 -58 95c0 40 21 80 63 120c41 39 83 59 125 59c61 0 91 -24 91 -72c0 -22 -6 -39 -18 -51c-19 20 -48 30 -87 30c-70 0 -105 -18 -105 -54c0 -26 21 -47 63 -63c11 -4 34 -6 69 -6c34 0 76 14 127 41l-31 -107
c-29 -3 -66 -10 -111 -23c-94 -27 -157 -62 -188 -107zM415 889c-5 -8 -26 -34 -63 -78l-60 25c-53 -67 -131 -101 -233 -101c-37 0 -60 11 -69 33c65 13 120 31 166 53c45 22 73 37 82 46c-20 7 -40 21 -61 40s-31 40 -31 62c0 39 19 77 58 113c38 35 75 53 112 53
c43 0 65 -34 65 -102c0 -47 -9 -86 -27 -119zM316 977c0 45 -11 67 -33 67c-40 0 -60 -12 -60 -36c0 -13 10 -26 31 -41c20 -15 38 -25 55 -31c5 10 7 24 7 41z" />
    <glyph glyph-name="uni0678.fina" unicode="&#x678;" horiz-adv-x="1390" 
d="M1135 261l261 -12c27 0 41 -11 41 -34v-180c0 -23 -14 -35 -41 -35c-91 0 -176 6 -254 18c-79 12 -129 18 -152 18c-22 0 -34 0 -35 1c-42 0 -75 -8 -99 -23s-36 -31 -36 -48c0 -22 14 -35 43 -39l274 -43c28 -3 52 -15 73 -37s31 -49 31 -81v-8
c-6 -177 -145 -279 -417 -308c-76 -8 -166 -12 -271 -12c-312 0 -469 115 -471 345c0 83 32 191 95 323c22 47 46 71 72 71s39 -13 39 -39c-1 0 -12 -28 -31 -84s-29 -104 -30 -145c0 -104 61 -177 182 -220c72 -25 158 -38 258 -38c299 0 448 23 448 70c0 17 -19 28 -58 33
l-241 43c-81 15 -121 47 -121 95c0 80 40 162 121 244c80 84 186 125 319 125zM439 349c-6 15 -9 29 -9 43c0 38 23 70 69 95c-39 24 -58 56 -58 95c0 40 21 80 63 120c41 39 83 59 125 59c61 0 91 -24 91 -72c0 -22 -6 -39 -18 -51c-19 20 -48 30 -87 30
c-70 0 -105 -18 -105 -54c0 -26 21 -47 63 -63c11 -4 34 -6 69 -6c34 0 76 14 127 41l-31 -107c-29 -3 -66 -10 -111 -23c-94 -27 -157 -62 -188 -107z" />
    <glyph glyph-name="uniFB5F" unicode="&#x67a;" horiz-adv-x="1653" arabic-form="final" 
d="M1446 509c30 0 45 -17 45 -53c0 -34 -13 -77 -38 -128c27 -53 96 -79 206 -79c27 0 41 -11 41 -34v-180c0 -23 -14 -35 -41 -35c-83 0 -146 12 -187 37c-39 25 -76 73 -110 144c-165 -136 -401 -204 -708 -204c-183 0 -320 28 -412 85c-91 56 -137 150 -137 281
c0 70 15 135 44 196s54 91 75 91c27 0 41 -13 41 -38c1 -3 -5 -17 -16 -42s-17 -61 -18 -108c0 -71 39 -124 119 -160c78 -37 179 -55 302 -55c361 0 602 70 723 209c45 49 68 73 71 73zM780 571l-120 119l120 121l119 -121zM778 831l-119 119l119 122l119 -122z" />
    <glyph glyph-name="uniFB60" unicode="&#x67a;" horiz-adv-x="465" arabic-form="initial" 
d="M430 386c0 -257 -116 -386 -348 -386h-87c-27 0 -41 12 -41 35v180c0 23 14 34 41 34c206 0 309 22 309 66c0 25 -39 85 -117 181l131 203c75 -83 112 -188 112 -313zM152 689l-120 119l120 121l119 -121zM150 949l-119 119l119 122l119 -122z" />
    <glyph glyph-name="uniFB61" unicode="&#x67a;" horiz-adv-x="725" arabic-form="medial" 
d="M731 0h-62c-84 0 -162 52 -233 155c-23 -44 -61 -81 -114 -111c-54 -29 -106 -44 -155 -44h-172c-27 0 -41 12 -41 35v180c0 23 16 34 49 34h107c147 0 235 40 265 119c11 28 16 59 16 94s16 52 47 52c11 0 21 -5 30 -14c8 -10 12 -21 12 -32c0 -146 75 -219 226 -219h25
c27 0 41 -11 41 -34v-180c0 -23 -14 -35 -41 -35zM359 712l-120 119l120 121l119 -121zM357 972l-119 119l119 122l119 -122z" />
    <glyph glyph-name="uniFB53" unicode="&#x67b;" horiz-adv-x="1653" arabic-form="final" 
d="M1446 509c30 0 45 -17 45 -53c0 -34 -13 -77 -38 -128c27 -53 96 -79 206 -79c27 0 41 -11 41 -34v-180c0 -23 -14 -35 -41 -35c-83 0 -146 12 -187 37c-39 25 -76 73 -110 144c-165 -136 -401 -204 -708 -204c-183 0 -320 28 -412 85c-91 56 -137 150 -137 281
c0 70 15 135 44 196s54 91 75 91c27 0 41 -13 41 -38c1 -3 -5 -17 -16 -42s-17 -61 -18 -108c0 -71 39 -124 119 -160c78 -37 179 -55 302 -55c361 0 602 70 723 209c45 49 68 73 71 73zM704 -707l-120 119l120 121l119 -121zM702 -447l-119 119l119 122l119 -122z" />
    <glyph glyph-name="uniFB54" unicode="&#x67b;" horiz-adv-x="465" arabic-form="initial" 
d="M430 386c0 -257 -116 -386 -348 -386h-87c-27 0 -41 12 -41 35v180c0 23 14 34 41 34c206 0 309 22 309 66c0 25 -39 85 -117 181l131 203c75 -83 112 -188 112 -313zM155 -692l-120 119l120 121l119 -121zM153 -432l-119 119l119 122l119 -122z" />
    <glyph glyph-name="uniFB55" unicode="&#x67b;" horiz-adv-x="725" arabic-form="medial" 
d="M731 0h-62c-84 0 -162 52 -233 155c-23 -44 -61 -81 -114 -111c-54 -29 -106 -44 -155 -44h-172c-27 0 -41 12 -41 35v180c0 23 16 34 49 34h107c147 0 235 40 265 119c11 28 16 59 16 94s16 52 47 52c11 0 21 -5 30 -14c8 -10 12 -21 12 -32c0 -146 75 -219 226 -219h25
c27 0 41 -11 41 -34v-180c0 -23 -14 -35 -41 -35zM393 -672l-120 119l120 121l119 -121zM391 -412l-119 119l119 122l119 -122z" />
    <glyph glyph-name="uni067C.init" unicode="&#x67c;" horiz-adv-x="465" 
d="M54 875l-119 119l119 121l119 -121zM326 875l-119 119l119 121l119 -121zM153 -50c0 -48 27 -72 81 -72c31 0 59 14 83 42c-5 38 -28 67 -69 87c-12 5 -26 8 -41 8h-1c-6 -2 -12 -3 -18 -4c-7 -4 -14 -10 -20 -19c-10 -14 -15 -29 -15 -42zM117 -190
c-19 22 -29 55 -29 97c0 29 7 61 21 94c-9 -1 -18 -1 -27 -1h-87c-27 0 -41 12 -41 35v180c0 23 14 34 41 34c206 0 309 22 309 66c0 25 -39 85 -117 181l131 203c75 -83 112 -188 112 -313c0 -139 -34 -240 -101 -304c5 -5 9 -10 13 -16c27 -35 40 -75 40 -121
s-19 -86 -56 -119c-37 -34 -77 -51 -118 -51s-72 11 -91 35z" />
    <glyph glyph-name="uni067C.medi" unicode="&#x67c;" horiz-adv-x="725" 
d="M731 0h-62c-84 0 -162 52 -233 155c-20 -40 -53 -73 -99 -101c5 -5 9 -10 13 -16c27 -35 40 -75 40 -121s-19 -86 -56 -119c-37 -34 -77 -51 -118 -51s-72 11 -91 35c-19 22 -29 55 -29 97c0 37 11 78 34 121h-135c-27 0 -41 12 -41 35v180c0 23 16 34 49 34h107
c147 0 235 40 265 119c11 28 16 59 16 94s16 52 47 52c11 0 21 -5 30 -14c8 -10 12 -21 12 -32c0 -146 75 -219 226 -219h25c27 0 41 -11 41 -34v-180c0 -23 -14 -35 -41 -35zM239 772l-119 119l119 121l119 -121zM511 772l-119 119l119 121l119 -121zM161 -78
c0 -48 27 -72 81 -72c31 0 59 14 83 42c-5 38 -28 67 -69 87c-12 5 -26 8 -41 8s-28 -7 -39 -23c-10 -14 -15 -29 -15 -42z" />
    <glyph glyph-name="uni067C.fina" unicode="&#x67c;" horiz-adv-x="1499" 
d="M1446 509c30 0 45 -17 45 -53c0 -34 -13 -77 -38 -128c27 -53 96 -79 206 -79c27 0 41 -11 41 -34v-180c0 -23 -14 -35 -41 -35c-83 0 -146 12 -187 37c-39 25 -76 73 -110 144c-130 -107 -304 -172 -522 -195c12 -26 18 -55 18 -86c0 -46 -19 -86 -56 -120
c-37 -33 -77 -50 -118 -50s-72 12 -91 34c-19 24 -29 56 -29 98c0 36 11 75 32 116c-154 6 -272 33 -354 84c-91 56 -137 150 -137 281c0 70 15 135 44 196s54 91 75 91c27 0 41 -13 41 -38c1 -3 -5 -17 -16 -42s-17 -61 -18 -108c0 -71 39 -124 119 -160
c78 -37 179 -55 302 -55c361 0 602 70 723 209c45 49 68 73 71 73zM657 651l-119 119l119 121l119 -121zM929 651l-119 119l119 121l119 -121zM629 -95c0 -48 27 -72 81 -72c31 0 59 14 83 42c-5 38 -28 67 -69 87c-12 5 -26 8 -41 8s-28 -8 -39 -22
c-10 -16 -15 -30 -15 -43z" />
    <glyph glyph-name="uni067D.init" unicode="&#x67d;" horiz-adv-x="465" 
d="M430 386c0 -257 -116 -386 -348 -386h-87c-27 0 -41 12 -41 35v180c0 23 14 34 41 34c206 0 309 22 309 66c0 25 -39 85 -117 181l131 203c75 -83 112 -188 112 -313zM-5 999l-119 121l119 119l119 -119zM131 763l-120 121l120 119l119 -119zM267 999l-119 121l119 119
l119 -119z" />
    <glyph glyph-name="uni067D.medi" unicode="&#x67d;" horiz-adv-x="725" 
d="M731 0h-62c-84 0 -162 52 -233 155c-23 -44 -61 -81 -114 -111c-54 -29 -106 -44 -155 -44h-172c-27 0 -41 12 -41 35v180c0 23 16 34 49 34h107c147 0 235 40 265 119c11 28 16 59 16 94s16 52 47 52c11 0 21 -5 30 -14c8 -10 12 -21 12 -32c0 -146 75 -219 226 -219h25
c27 0 41 -11 41 -34v-180c0 -23 -14 -35 -41 -35zM238 880l-119 121l119 119l119 -119zM374 644l-120 121l120 119l119 -119zM510 880l-119 121l119 119l119 -119z" />
    <glyph glyph-name="uni067D.fina" unicode="&#x67d;" horiz-adv-x="1653" 
d="M1446 509c30 0 45 -17 45 -53c0 -34 -13 -77 -38 -128c27 -53 96 -79 206 -79c27 0 41 -11 41 -34v-180c0 -23 -14 -35 -41 -35c-83 0 -146 12 -187 37c-39 25 -76 73 -110 144c-165 -136 -401 -204 -708 -204c-183 0 -320 28 -412 85c-91 56 -137 150 -137 281
c0 70 15 135 44 196s54 91 75 91c27 0 41 -13 41 -38c1 -3 -5 -17 -16 -42s-17 -61 -18 -108c0 -71 39 -124 119 -160c78 -37 179 -55 302 -55c361 0 602 70 723 209c45 49 68 73 71 73zM647 826l-119 121l119 119l119 -119zM783 590l-120 121l120 119l119 -119zM919 826
l-119 121l119 119l119 -119z" />
    <glyph glyph-name="uniFB63" unicode="&#x67f;" horiz-adv-x="1653" arabic-form="final" 
d="M1446 509c30 0 45 -17 45 -53c0 -34 -13 -77 -38 -128c27 -53 96 -79 206 -79c27 0 41 -11 41 -34v-180c0 -23 -14 -35 -41 -35c-83 0 -146 12 -187 37c-39 25 -76 73 -110 144c-165 -136 -401 -204 -708 -204c-183 0 -320 28 -412 85c-91 56 -137 150 -137 281
c0 70 15 135 44 196s54 91 75 91c27 0 41 -13 41 -38c1 -3 -5 -17 -16 -42s-17 -61 -18 -108c0 -71 39 -124 119 -160c78 -37 179 -55 302 -55c361 0 602 70 723 209c45 49 68 73 71 73zM748 958l-120 120l120 121l119 -121zM885 765l-119 120l119 122l119 -122zM613 765
l-119 120l119 122l119 -122zM747 578l-120 120l120 121l119 -121z" />
    <glyph glyph-name="uniFB64" unicode="&#x67f;" horiz-adv-x="465" arabic-form="initial" 
d="M430 386c0 -257 -116 -386 -348 -386h-87c-27 0 -41 12 -41 35v180c0 23 14 34 41 34c206 0 309 22 309 66c0 25 -39 85 -117 181l131 203c75 -83 112 -188 112 -313zM140 1090l-120 120l120 121l119 -121zM277 897l-119 120l119 122l119 -122zM5 897l-119 120l119 122
l119 -122zM139 710l-120 120l120 121l119 -121z" />
    <glyph glyph-name="uniFB65" unicode="&#x67f;" horiz-adv-x="725" arabic-form="medial" 
d="M731 0h-62c-84 0 -162 52 -233 155c-23 -44 -61 -81 -114 -111c-54 -29 -106 -44 -155 -44h-172c-27 0 -41 12 -41 35v180c0 23 16 34 49 34h107c147 0 235 40 265 119c11 28 16 59 16 94s16 52 47 52c11 0 21 -5 30 -14c8 -10 12 -21 12 -32c0 -146 75 -219 226 -219h25
c27 0 41 -11 41 -34v-180c0 -23 -14 -35 -41 -35zM362 1026l-120 120l120 121l119 -121zM499 833l-119 120l119 122l119 -122zM227 833l-119 120l119 122l119 -122zM361 646l-120 120l120 121l119 -121z" />
    <glyph glyph-name="uniFB5B" unicode="&#x680;" horiz-adv-x="1653" arabic-form="final" 
d="M1446 509c30 0 45 -17 45 -53c0 -34 -13 -77 -38 -128c27 -53 96 -79 206 -79c27 0 41 -11 41 -34v-180c0 -23 -14 -35 -41 -35c-83 0 -146 12 -187 37c-39 25 -76 73 -110 144c-165 -136 -401 -204 -708 -204c-183 0 -320 28 -412 85c-91 56 -137 150 -137 281
c0 70 15 135 44 196s54 91 75 91c27 0 41 -13 41 -38c1 -3 -5 -17 -16 -42s-17 -61 -18 -108c0 -71 39 -124 119 -160c78 -37 179 -55 302 -55c361 0 602 70 723 209c45 49 68 73 71 73zM699 -436l-120 120l120 121l119 -121zM836 -629l-119 120l119 122l119 -122zM564 -629
l-119 120l119 122l119 -122zM698 -816l-120 120l120 121l119 -121z" />
    <glyph glyph-name="uniFB5C" unicode="&#x680;" horiz-adv-x="465" arabic-form="initial" 
d="M430 386c0 -257 -116 -386 -348 -386h-87c-27 0 -41 12 -41 35v180c0 23 14 34 41 34c206 0 309 22 309 66c0 25 -39 85 -117 181l131 203c75 -83 112 -188 112 -313zM235 -377l-112 113l112 113l112 -113zM364 -558l-112 113l112 114l111 -114zM109 -558l-112 113
l112 114l111 -114zM234 -733l-112 113l112 113l112 -113z" />
    <glyph glyph-name="uniFB5D" unicode="&#x680;" horiz-adv-x="725" arabic-form="medial" 
d="M731 0h-62c-84 0 -162 52 -233 155c-23 -44 -61 -81 -114 -111c-54 -29 -106 -44 -155 -44h-172c-27 0 -41 12 -41 35v180c0 23 16 34 49 34h107c147 0 235 40 265 119c11 28 16 59 16 94s16 52 47 52c11 0 21 -5 30 -14c8 -10 12 -21 12 -32c0 -146 75 -219 226 -219h25
c27 0 41 -11 41 -34v-180c0 -23 -14 -35 -41 -35zM393 -371l-114 114l114 114l113 -114zM523 -554l-113 114l113 115l112 -115zM265 -554l-113 114l113 115l113 -115zM392 -731l-114 114l114 115l113 -115z" />
    <glyph glyph-name="uni0681.init" unicode="&#x681;" horiz-adv-x="1216" 
d="M1057 288c-7 1 -13 2 -19 2h-17c-45 0 -99 -12 -163 -34c-65 -24 -170 -72 -316 -146c-146 -73 -294 -110 -443 -110h-104c-27 0 -41 12 -41 35v180c0 23 14 34 41 34h94c123 0 231 10 323 30c85 23 191 57 317 101v8c-167 78 -284 117 -350 117c-42 0 -82 -19 -121 -59
c-39 -38 -62 -58 -71 -58c-24 0 -36 12 -36 37c0 39 24 94 73 166c61 89 130 134 208 134c42 0 126 -29 252 -87c126 -57 221 -95 284 -114c64 -19 119 -28 165 -28h50zM563 835c-6 15 -9 29 -9 43c0 38 23 70 69 95c-39 24 -58 56 -58 95c0 40 21 80 63 120
c41 39 83 59 125 59c61 0 91 -24 91 -72c0 -22 -6 -39 -18 -51c-19 20 -48 30 -87 30c-70 0 -105 -18 -105 -54c0 -26 21 -47 63 -63c11 -4 34 -6 69 -6c34 0 76 14 127 41l-31 -107c-29 -3 -66 -10 -111 -23c-94 -27 -157 -62 -188 -107z" />
    <glyph glyph-name="uni0681.medi" unicode="&#x681;" horiz-adv-x="1243" 
d="M1249 0h-109c-128 0 -221 34 -279 103c-41 49 -62 112 -62 188c0 8 0 16 1 24c-149 -125 -279 -209 -388 -251c-109 -43 -248 -64 -417 -64c-27 0 -41 12 -41 35v180c0 23 14 34 41 34c157 0 277 11 362 32c149 37 278 94 385 169v7c-99 29 -181 50 -246 61
c-66 11 -104 17 -114 17c-42 0 -82 -19 -120 -59c-38 -38 -62 -58 -72 -58c-23 0 -35 12 -35 37c0 39 24 95 72 166c61 89 130 133 209 133c61 0 131 -16 208 -48c137 -57 270 -86 399 -87h19l119 2l-102 -228c-35 4 -69 6 -101 6c-31 0 -60 -6 -85 -19v-5
c0 -57 36 -93 108 -108c48 -12 131 -18 248 -18c27 0 40 -11 40 -34v-180c0 -23 -13 -35 -40 -35zM521 867c-6 15 -9 29 -9 43c0 38 23 70 69 95c-39 24 -58 56 -58 95c0 40 21 80 63 120c41 39 83 59 125 59c61 0 91 -24 91 -72c0 -22 -6 -39 -18 -51c-19 20 -48 30 -87 30
c-70 0 -105 -18 -105 -54c0 -26 21 -47 63 -63c11 -4 34 -6 69 -6c34 0 76 14 127 41l-31 -107c-29 -3 -66 -10 -111 -23c-94 -27 -157 -62 -188 -107z" />
    <glyph glyph-name="uni0681.fina" unicode="&#x681;" horiz-adv-x="1282" 
d="M1083 441c-74 0 -129 -4 -164 -11v-33c0 -79 54 -126 161 -141c33 -5 72 -7 117 -7h91c27 0 41 -11 41 -34v-180c0 -23 -14 -35 -41 -35h-150c-80 0 -151 24 -213 73c-74 54 -111 128 -111 222c0 29 1 55 3 78s3 39 3 47c-165 -45 -288 -107 -372 -186
c-82 -79 -124 -183 -124 -312c0 -93 34 -168 103 -224c86 -72 225 -108 416 -108c95 0 177 6 247 19c61 8 91 14 91 17v1c7 -2 11 -7 11 -15s-11 -22 -34 -43c-95 -87 -237 -131 -427 -131s-339 33 -448 100c-128 76 -192 188 -192 336c0 265 187 460 561 583v9
c-119 26 -209 39 -269 39s-105 -11 -134 -32c-8 -7 -23 -23 -47 -49c-22 -27 -40 -40 -51 -40c-21 0 -32 12 -32 36c0 47 24 107 71 180c57 91 123 136 196 136c43 0 134 -13 274 -40c138 -27 245 -40 318 -40c74 0 147 4 219 13zM496 866c-6 15 -9 29 -9 43
c0 38 23 70 69 95c-39 24 -58 56 -58 96c0 39 21 79 62 118c42 40 84 60 126 60c61 0 91 -24 91 -72c0 -22 -6 -39 -18 -51c-19 20 -48 30 -87 30c-70 0 -105 -18 -105 -54c0 -26 21 -47 63 -63c11 -4 34 -6 68 -6c35 0 77 14 128 41l-31 -107c-29 -3 -66 -10 -111 -23
c-94 -27 -157 -62 -188 -107z" />
    </font>
</defs>
</svg>
